<svg viewBox="0 0 44 44" xmlns="http://www.w3.org/2000/svg" fill-rule="evenodd" clip-rule="evenodd"><path d="M30.339 22.394v-.052c-.026-.234-.052-.443-.052-.651-.235-.651-.86-1.354-1.276-1.718-1.485-1.355-3.594-1.849-5.547-1.901-1.224-.026-2.057.364-3.203.572-2.109.391-4.01.079-5.703 1.667-.52.495-1.093 1.016-1.249 1.51l-.026.417c-.391 4.245-.73 8.906-.834 10.078-.13 1.718 1.953 4.114 2.526 4.713.365.364 5.807 1.77 6.666 1.77.86 0 6.615-1.458 6.927-1.77.339-.339 2.656-2.995 2.526-4.713-.052-1.172-.391-5.729-.755-9.922z" fill="#dde1ea"/><path d="M15.157 23.306c-.833-.105-1.432-.625-1.51-1.068-.104-.625.599-1.302 1.224-1.927 1.614-1.588 3.437-1.276 5.442-1.667 1.094-.208 1.901-.598 3.047-.572 1.849.052 3.854.546 5.286 1.901.521.494 1.458 1.588 1.276 2.369-.208.912-1.562 1.276-2.474 1.484-1.64.365-2.942.469-4.635.313-1.51-.156-2.786.156-4.244-.391-1.25-.468-2.057-.26-3.412-.442zM24.427 23.879c-.469 0-.99-.026-1.537-.078-.442-.026-.859-.052-1.145-.052h-.886c-.885 0-1.562-.052-2.343-.312-.886-.313-1.589-.339-2.318-.365-.417-.026-.833-.026-1.328-.104-.755-.104-1.25-.521-1.276-.781-.078-.443.599-1.068 1.146-1.589l.052-.052c1.172-1.094 2.448-1.224 3.906-1.38.521-.052 1.068-.104 1.641-.208.39-.078.755-.157 1.093-.261.625-.156 1.198-.312 1.901-.312h.13c1.563.052 3.75.39 5.312 1.797.678.625 1.355 1.536 1.224 2.031-.208.781-1.77 1.119-2.343 1.25-1.198.312-2.188.416-3.229.416z" fill="#eff6f7"/><path d="M25.262 28.176c0 .182-.13.312-.313.312-.182 0-.312-.156-.312-.312 0-.182.156-.313.312-.313s.313.131.313.313zM24.298 30.858c0 .104-.078.182-.182.182s-.182-.078-.182-.182.078-.182.182-.182.182.078.182.182zM25.782 31.091c0 .156-.13.287-.287.287-.156 0-.286-.131-.286-.287 0-.156.13-.286.286-.286.157 0 .287.13.287.286zM29.844 31.3c0 .156-.13.287-.286.287-.156 0-.286-.131-.286-.287 0-.156.13-.286.286-.286.156 0 .286.13.286.286zM29.766 26.171c0 .156-.13.287-.286.287-.156 0-.287-.131-.287-.287 0-.156.131-.286.287-.286.182 0 .286.13.286.286zM26.432 33.306c0 .13-.104.208-.208.208s-.208-.104-.208-.208c0-.13.104-.208.208-.208s.208.078.208.208zM23.23 28.072c0 .13-.104.234-.234.234s-.234-.104-.234-.234.104-.235.234-.235c.104-.026.234.105.234.235zM21.484 32.811c0 .183-.13.313-.312.313s-.313-.156-.313-.313c0-.182.157-.312.313-.312.156-.026.312.13.312.312zM16.46 29.816c0 .156-.131.286-.287.286-.156 0-.286-.13-.286-.286 0-.156.13-.287.286-.287.156 0 .287.131.287.287zM24.01 34.372c0 .131-.104.209-.208.209-.13 0-.208-.104-.208-.209 0-.13.104-.208.208-.208s.208.078.208.208zM25.079 34.842c0 .105-.078.183-.182.183s-.182-.078-.182-.183c0-.104.078-.182.182-.182s.182.078.182.182zM26.849 26.43c0 .105-.078.183-.182.183s-.183-.078-.183-.183c0-.104.079-.182.183-.182s.182.078.182.182zM28.854 27.238c0 .156-.13.286-.286.286-.156 0-.287-.13-.287-.286 0-.157.131-.287.287-.287.156 0 .286.13.286.287zM29.636 29.555c0 .105-.078.183-.182.183s-.182-.078-.182-.183c0-.104.078-.182.182-.182s.182.078.182.182zM21.017 29.633c0 .131-.104.261-.26.261-.131 0-.261-.104-.261-.261 0-.13.104-.26.261-.26.156 0 .26.13.26.26zM20.314 33.228c0 .078-.052.13-.156.13-.079 0-.131-.052-.131-.13 0-.078.052-.13.131-.13.078 0 .156.052.156.13zM19.585 34.66c0 .13-.105.208-.209.208-.13 0-.208-.104-.208-.208 0-.131.104-.209.208-.209s.209.078.209.209zM17.085 29.348c0 .105-.078.183-.182.183s-.182-.078-.182-.183c0-.104.078-.182.182-.182s.182.078.182.182zM16.173 26.536c0 .078-.052.156-.156.156-.078 0-.13-.052-.13-.156 0-.078.052-.13.13-.13.078-.026.156.052.156.13zM15.028 26.665c0 .131-.104.209-.208.209-.131 0-.209-.104-.209-.209 0-.13.105-.208.209-.208s.208.104.208.208zM14.819 30.39c0 .13-.104.208-.208.208-.131 0-.209-.104-.209-.208 0-.13.105-.208.209-.208.104-.026.208.078.208.208zM15.73 32.421c0 .104-.078.182-.182.182-.105 0-.183-.078-.183-.182 0-.105.078-.183.183-.183.104 0 .182.078.182.183zM18.386 25.649c0 .104-.078.182-.182.182s-.182-.078-.182-.182.078-.182.182-.182.182.078.182.182zM22.083 25.833c0 .078-.052.13-.13.13-.078 0-.156-.052-.156-.13 0-.078.078-.131.156-.131.078-.026.13.053.13.131zM19.22 34.374c0 .079-.052.131-.13.131-.078 0-.156-.052-.156-.131 0-.078.078-.13.156-.13s.13.052.13.13zM17.163 33.15c0 .078-.052.13-.13.13-.079 0-.131-.052-.131-.13 0-.078.052-.13.131-.13.078 0 .13.052.13.13zM23.022 21.328c0 .078-.052.156-.13.156-.078 0-.13-.052-.13-.156 0-.079.052-.131.13-.131.052 0 .13.052.13.131zM23.361 23.151c0 .052-.052.104-.104.104-.053 0-.105-.052-.105-.104s.052-.104.105-.104c.052 0 .104.052.104.104zM17.736 20.52c0 .052-.052.104-.104.104-.053 0-.105-.052-.105-.104s.052-.104.105-.104c.052 0 .104.026.104.104zM17.085 22.214c0 .104-.078.182-.182.182s-.182-.078-.182-.182c0-.105.078-.183.182-.183s.182.104.182.183zM24.089 19.217c0 .053-.052.105-.104.105s-.104-.052-.104-.105c0-.052.052-.104.104-.104s.104.052.104.104zM25.079 20.962c0 .13-.104.209-.209.209-.13 0-.208-.105-.208-.209 0-.13.104-.208.208-.208.105 0 .209.104.209.208zM27.5 21.691c0 .053-.026.079-.078.079-.052 0-.078-.026-.078-.079 0-.052.026-.078.078-.078.052 0 .078.026.078.078zM25.365 23.071c0 .104-.079.182-.183.182s-.182-.078-.182-.182.078-.182.182-.182.183.078.183.182zM29.14 25.18c0 .078-.052.13-.156.13-.078 0-.13-.052-.13-.13 0-.078.052-.13.13-.13.078-.026.156.052.156.13zM29.713 27.395c0 .052-.026.078-.078.078l-.078-.078c0-.053.026-.079.078-.079.052 0 .078.026.078.079zM30.001 24.973c0 .078-.052.13-.131.13-.078 0-.13-.052-.13-.13 0-.078.052-.13.13-.13.053-.026.131.052.131.13zM29.219 29.087c0 .13-.104.209-.208.209-.13 0-.208-.105-.208-.209 0-.13.104-.208.208-.208s.208.104.208.208zM29.558 32.708c0 .13-.104.26-.26.26-.131 0-.261-.104-.261-.26 0-.13.104-.261.261-.261.156 0 .26.104.26.261zM27.708 20.936c0 .104-.078.183-.182.183s-.182-.079-.182-.183.078-.182.182-.182.182.078.182.182zM27.579 22.76c0 .078-.078.13-.13.13-.078 0-.156-.052-.156-.13 0-.078.052-.156.156-.156.052 0 .13.078.13.156zM28.697 20.547l-.078.078c-.052 0-.078-.026-.078-.078 0-.052.026-.078.078-.078l.078.078z" fill="#eaebf0"/><path d="M23.282 29.894c0 .13-.104.208-.208.208-.131 0-.209-.104-.209-.208s.104-.208.209-.208c.13-.026.208.078.208.208zM23.829 31.587c0 .13-.104.209-.209.209-.13 0-.208-.105-.208-.209 0-.13.104-.208.208-.208.105 0 .209.104.209.208zM24.038 26.769c0 .13-.104.208-.209.208-.13 0-.208-.104-.208-.208 0-.13.104-.208.208-.208.131 0 .209.104.209.208zM25.756 33.879c0 .078-.078.156-.156.156s-.157-.078-.157-.156.079-.156.157-.156.156.078.156.156zM26.382 29.035c0-.131-.105-.209-.209-.209s-.208.104-.208.209c0 .13.104.208.208.208.13 0 .209-.104.209-.208zM28.854 26.717c0 .078-.079.156-.157.156s-.156-.078-.156-.156.078-.156.156-.156.157.078.157.156zM29.401 28.593c0 .13-.104.208-.208.208-.13 0-.209-.104-.209-.208 0-.13.105-.208.209-.208s.208.104.208.208zM29.166 30.909c0 .079-.078.157-.156.157s-.156-.078-.156-.157c0-.078.078-.156.156-.156.104-.026.156.052.156.156zM19.87 36.249c0 .156-.13.26-.26.26-.156 0-.26-.13-.26-.26 0-.157.13-.261.26-.261.156 0 .26.104.26.261zM19.012 27.864c0 .182-.13.313-.313.313-.182 0-.312-.157-.312-.313 0-.182.156-.312.312-.312.183-.026.313.13.313.312z" fill="#f7f7f9" fill-opacity=".5"/><path d="M22.109 21.17c0 .078-.078.156-.156.156s-.156-.078-.156-.156.078-.156.156-.156c.104 0 .156.078.156.156zM20.521 22.551c0 .157-.13.261-.261.261-.156 0-.26-.13-.26-.261 0-.156.13-.26.26-.26.131 0 .261.13.261.26zM22.865 19.348c0 .078-.078.156-.156.156s-.156-.078-.156-.156.078-.157.156-.157.156.079.156.157zM24.48 20.676c0 .053-.052.105-.104.105s-.104-.052-.104-.105c0-.052.052-.104.104-.104s.104.052.104.104zM25.548 23.359c0 .13-.105.208-.209.208-.13 0-.208-.104-.208-.208 0-.13.104-.209.208-.209s.209.105.209.209zM26.276 19.843c0 .13-.104.209-.208.209-.13 0-.209-.105-.209-.209 0-.13.105-.208.209-.208.13-.026.208.078.208.208zM22.866 22.785c0 .208-.156.365-.365.365-.208 0-.364-.157-.364-.365s.156-.364.364-.364c.209-.027.365.156.365.364zM24.246 21.926c0 .078-.078.156-.156.156s-.156-.078-.156-.156.078-.156.156-.156c.104 0 .156.052.156.156zM19.975 20.363c0 .13-.104.208-.208.208-.13 0-.208-.104-.208-.208 0-.131.104-.209.208-.209.13 0 .208.105.208.209zM18.283 21.536c0 .052-.052.104-.105.104-.052 0-.104-.052-.104-.104s.052-.104.104-.104c.053 0 .105.052.105.104zM17.527 22.602c0 .052-.052.104-.104.104-.053 0-.105-.052-.105-.104s.052-.104.105-.104c.052 0 .104.052.104.104z" fill="#fff"/><path d="M17.526 28.384c0 .13-.104.208-.208.208s-.209-.104-.209-.208c0-.13.105-.208.209-.208s.208.104.208.208zM17.318 30.779c0 .078-.078.157-.156.157s-.156-.079-.156-.157.078-.156.156-.156.156.078.156.156zM18.048 34.008c0 .208-.157.364-.365.364s-.365-.156-.365-.364c0-.209.157-.365.365-.365.208-.026.365.156.365.365zM22.969 35.025c0 .13-.104.208-.208.208-.13 0-.208-.104-.208-.208 0-.13.104-.208.208-.208.104-.026.208.078.208.208z" fill="#f7f7f9" fill-opacity=".5"/><path d="M31.119 32.316l-.052-.781c-.781 1.198-1.901 2.734-2.656 3.359-.755.651-5.442 1.823-6.64 1.823-1.172 0-5.989-1.067-6.51-1.51-.286-.235-2.5-1.823-2.786-3.437l-.052.52v.183l-.026-.026c0 1.692 1.979 3.984 2.551 4.557.079.078.313.182.678.312 1.562.547 5.286 1.484 5.989 1.484.859 0 6.614-1.458 6.926-1.77.391-.365 2.709-3.021 2.578-4.714z" fill="#b8ced8"/><path d="M31.12 32.316c-.078-1.171-.417-5.754-.807-9.973-.183-1.979-.365-3.88-.521-5.286-.521-4.427-2.083-5.26-3.151-5.416h-9.687c-1.067.13-2.63.989-3.177 5.416-.156 1.38-.338 3.255-.521 5.208-.364 4.219-.703 8.88-.807 10.051-.13 1.719 1.953 4.115 2.526 4.714.365.364 5.807 1.77 6.666 1.77.86 0 6.615-1.458 6.927-1.77.365-.365 2.682-3.021 2.552-4.714z" fill="#afd9ef" fill-opacity=".3"/><path d="M31.119 32.316c-.078-1.171-.417-5.754-.808-9.973-.182-1.979-.364-3.88-.52-5.286-.521-4.427-2.083-5.26-3.151-5.416h-1.38c.208.755.416 1.77.625 2.968.651 2.526 2.526 19.296 2.552 21.77.078.39.13.599.156.625.338-.339 2.656-2.995 2.526-4.688z" fill="#afd9ef" fill-opacity=".6"/><path d="M27.968 11.458c.052-.339.078-.677.104-1.068l-.078-.104c-.13-.234-.026-.495.13-.677.052-1.302 0-2.604-.312-2.995-.521-.677-11.64-.39-12.005.026-.156.183-.234 1.12-.26 2.136.182.182.312.494.182.729-.052.078-.104.13-.156.156 0 .364.026.755.052 1.068.182.208.286.494.156.729l-.078.104c.026.208.052.39.104.469.547 1.458 3.49 2.577 6.016 2.577 2.421 0 5.546-.937 6.041-2.369l-.052-.052c-.156-.235-.026-.547.156-.729z" fill="#bdb3ac"/><path d="M21.094 6.223v8.385c.234.026.469.026.703.026.338 0 .651-.026 1.015-.052v-8.385l-1.718.026z" fill="#918d8d" fill-opacity=".4"/><path d="M17.057 6.432c-.208.026-.416.052-.573.052v6.51c.157.13.365.26.573.39v-6.952z" fill="#918d8d" fill-opacity=".2"/><path d="M27.812 6.615c-.026-.052-.13-.105-.287-.131l.105.521c.312 2.37-.678 4.609-2.813 5.807-2.526 1.406-6.796 1.406-9.036-.651.625 1.432 3.516 2.5 5.989 2.5 2.422 0 5.547-.937 6.042-2.37l-.052-.052c-.13-.26 0-.547.182-.755.052-.338.078-.677.104-1.068l-.078-.104c-.13-.234-.026-.494.13-.677.078-1.328.026-2.63-.286-3.02z" fill="#918d8d" fill-opacity=".7"/><path d="M27.89 6.928c-1.094.677-2.526 1.484-3.906 1.77-1.146.235-2.344.339-3.49.235l-2.213-.443-.313-.104c-.833-.313-1.562-.911-2.265-1.458-.235 1.38 1.094 2.135 2.552 2.526v4.531c.677.26 1.458.442 2.213.546v-4.713h.13c4.974.313 7.708-1.198 7.292-2.89z" fill="#bdb3ac"/><path d="M21.797 5c-3.36 0-6.094.859-6.094 1.927s2.188 2.578 6.094 2.578c3.88 0 6.093-1.51 6.093-2.578 0-1.068-2.734-1.927-6.093-1.927z" fill="#bfb8b6"/><path d="M23.229 6.12c0 .182-.26.313-.599.313-.338 0-.599-.131-.599-.313s.261-.312.599-.312c.313-.026.599.13.599.312zM22.605 5.781c-.339 0-.599.13-.599.313 0 .078.052.156.13.208-.052-.234.287-.391.521-.365.208.027.495.105.417.391.078-.052.13-.13.13-.208.026-.183-.261-.339-.599-.339zM20.73 7.005c0 .182-.287.338-.651.338-.365 0-.651-.156-.651-.338 0-.183.286-.339.651-.339.364 0 .651.156.651.339zM19.505 7.161c.104-.234.39-.338.651-.312.208.026.468.104.468.312.052-.052.078-.104.078-.182 0-.182-.286-.338-.651-.338-.364 0-.651.156-.651.338l.105.182zM23.568 7.759c0 .208-.312.365-.703.365-.39 0-.703-.157-.703-.365s.313-.364.703-.364c.365 0 .703.156.703.364zM22.865 7.395c-.39 0-.703.156-.703.364 0 .078.026.13.104.182l.026-.078c.105-.208.469-.312.703-.286.131.026.495.13.391.416.104-.078.182-.156.182-.26 0-.182-.338-.338-.703-.338z" fill="#544532"/><path d="M21.952 37.785c.417-3.047.079-20.103-.416-22.941-.026 0-.443 18.41.416 22.941z" fill="#e1f6ff" fill-opacity=".8"/><path d="M25.86 14.557c-.131.989 1.849 20.806 2.578 21.873 0-2.343-1.927-19.53-2.578-21.873z" fill="#e1f6ff" fill-opacity=".3"/><path d="M17.526 14.348c-.13 3.125-1.719 19.452-2.292 20.806 0-2.344 1.641-18.463 2.292-20.806z" fill="#e1f6ff"/><path d="M27.995 10.286c-.104-.182-.052-.416.052-.598-.364.286-.833.546-1.51.807-2.448.937-8.02 1.823-10.885.338.131.183.209.443.105.651l-.079.104c.469.261 1.042.417 1.511.469 2.239.234 7.812.573 10.806-1.771zM27.968 11.458l.026-.13c-1.484 1.198-3.073 1.875-5.469 2.318 2.11.156 4.011-.521 5.313-1.406l-.026-.053c-.157-.234-.026-.546.156-.729zM15.626 8.881c.131.182.235.443.104.651-.052.078-.104.13-.156.156v.052c1.797.599 4.193 1.094 6.25.599-1.563.026-4.557-.208-6.198-1.458z" fill="#918d8d" fill-opacity=".7"/><path d="M26.927 16.666c.495 3.385 1.64 15.286 2.135 16.301 2.214-.703 1.198-5.182 1.016-7.083-.209-1.822-1.146-9.713-1.719-11.509-.078-.235-1.693.494-1.432 2.291z" fill="#afd9ef" fill-opacity=".3"/><path d="M16.642 16.328c-.443 3.411-1.511 16.04-2.005 17.082-2.24-.677-1.198-5.911-1.016-7.812.182-1.823 1.016-9.713 1.537-11.536.078-.26 1.718.443 1.484 2.266z" fill="#fafeff" fill-opacity=".8"/><path d="M18.099 17.057c-.182 3.333-1.432 15.676-1.589 16.665-.286 2.005 3.854 2.136 3.984.99.209-1.693.313-12.551.261-18.645.026-.234-2.552-.833-2.656.99z" fill="#e1f6ff" fill-opacity=".6"/><path d="M20.73 5.364c-.937 0-4.765.286-3.359 2.916-.625-.338-1.849-.859-.938-1.849 1.016-1.067 3.308-1.197 4.297-1.067z" fill="#bdb3ac"/></svg>