<svg viewBox="0 0 44 44" xmlns="http://www.w3.org/2000/svg" fill-rule="evenodd" clip-rule="evenodd"><path d="M36.401 22.57c0 8.849-7.172 16.02-16.02 16.02-4.424 0-8.429-1.77-11.316-4.703-1.164-1.165-2.142-2.468-2.887-3.959 2.188 1.165 4.703 1.77 7.358 1.77 8.848 0 16.019-7.172 16.019-16.02 0-2.654-.652-5.169-1.769-7.358 1.443.745 2.794 1.723 3.958 2.888 2.841 2.933 4.657 6.938 4.657 11.362z" fill="#eed73c"/><path d="M34.306 24.991c-.093-.047-.14-.14-.233-.233l-.093-.093-.047-.047-.046-.047c-.047.187-.42.28-.606.28h.047l.093.046h.046c.14.047.28.14.466.187l.093.046.047.047.186.14.14.139v.047l.046.093v.093l-.046.047-.047.046.047-.046-.047.046-.093.047-.093.046-.233.047c-.14.047-.512.186-.466.373.047.232.42.139.606.093.326-.093.652-.187.931-.373.187-.093.373-.279.419-.512.047-.373-.326-.652-.605-.838-.279-.187-.652-.373-.978-.373-.373-.047-1.304.14-.931.699l.326.372c.186.14.465.093.698 0 .186 0 .559-.186.373-.372zM32.256 18.844c-.466.279-.745.884-.559 1.443.093.28.326.326.605.326.466 0 .885-.233 1.165-.605.186-.187-.093-.187-.233-.187-.233 0-.559.094-.699.233l-.186.187c.14-.094.373-.14.512-.094l-.046-.046c-.093-.047-.093-.233-.093-.326-.047-.326.093-.699.372-.838.186-.093.14-.233-.046-.233-.326-.047-.559.046-.792.14zM31.791 15.258c.14-.046-.14-.046 0 0 .093.047.186.14.233.233.14.233.186.512.186.745.14-.14.28-.279.466-.372-.14.046-.28.046-.419.046-.233 0-.559.093-.699.28-.14.186.14.279.28.279.326 0 .652-.046.978-.14.186-.046.465-.139.465-.372 0-.419-.139-.839-.465-1.071-.373-.326-.978-.233-1.444-.047-.093.047-.466.233-.279.419.186.187.512.093.698 0zM27.832 29.46c-.652.14-1.21.652-1.397 1.304-.186.745.559 1.071 1.165.978.232-.047.558-.14.558-.419.047-.233-.279-.373-.465-.326h-.187v-.047c-.046-.046-.046-.186 0-.279l.187-.373c.139-.14.186-.186.326-.186.186-.047.465-.233.419-.466-.047-.233-.373-.233-.606-.186zM19.45 35.654c.093-.326.326-.326.652-.326.186 0 .326.047.419.14l-.047.093c-.512.466.28.838.699.466.279-.233.512-.559.326-.932-.14-.326-.559-.419-.885-.465-.745-.14-1.909.093-2.142.931-.186.559.838.559.978.093zM25.225 35.377c-.093-.14-.14-.326-.093-.512.046-.187.14-.233.279-.28h.187l.093.047c.139.046.233.279.233.419l.419-.466c-.233.047-.419.047-.652.047-.233 0-.559.186-.559.419-.047.279.279.326.466.326.326 0 .652-.047.931-.093.233-.047.466-.233.419-.466-.279-1.816-3.725-.652-2.654 1.071.232.326 1.21-.046.931-.512zM14.327 33.886c.093-.373.093-.792-.187-1.071-.372-.326-.838-.373-1.304-.233-.186.047-.465.233-.419.512.047.28.419.28.606.233h.093c-.14 0 .14.047 0 0l.093.047.047.046.093.233-.047.326c-.046.28.28.373.466.373.233-.093.512-.233.559-.466zM22.057 30.16c-.559 0-1.164.14-1.583.512-.419.326-.093.746.233.932.186.093.512 0 .652-.047.046 0 .465-.186.326-.279-.187-.093-.42-.28-.373-.512 0-.094.093-.14.14-.187-.047.047-.187.047-.047 0 .233 0 .512-.046.745-.186.14-.14.093-.233-.093-.233zM29.416 23.268l.093-.046c-.093.093-.326.139-.465.093l.046.046c.093.14.093.326.093.466 0 .233 1.025.047 1.025-.279 0-.28-.093-.513-.326-.652-.187-.094-.466-.047-.652 0-.233.046-.419.139-.652.326-.14.139-.14.232.093.279.233 0 .559-.093.745-.233z" fill="#ecb802"/><path d="M13.396 12.697l1.21 2.189 2.189 1.211-2.189 1.211-1.21 2.188-1.211-2.188-2.189-1.211 2.189-1.211 1.211-2.189zM18.473 17.492l.699 1.258 1.304.745-1.304.698-.699 1.258-.745-1.258-1.257-.698 1.257-.745.745-1.258zM21.592 8.18l.559 1.117 1.118.606-1.118.559-.559 1.117-.605-1.117-1.118-.559 1.118-.606.605-1.117zM9.996 23.502l.419.792.792.419-.792.419-.419.792-.419-.792-.745-.419.745-.419.419-.792z" fill="#eed73b"/></svg>