<svg viewBox="0 0 44 44" xmlns="http://www.w3.org/2000/svg" fill-rule="evenodd" clip-rule="evenodd"><path d="M21.926 8c-7.702 0-13.926 6.224-13.926 13.926s6.224 13.926 13.926 13.926c7.68 0 13.926-6.224 13.926-13.926s-6.246-13.926-13.926-13.926zm0 18.091c-2.306 0-4.164-1.859-4.164-4.165s1.858-4.164 4.164-4.164c2.306 0 4.165 1.858 4.165 4.164 0 2.306-1.859 4.165-4.165 4.165z" fill="#f09431"/><path d="M33.949 26.897c.359-1.321.717-2.642 1.075-3.986.112-.403.224-.828.224-1.231 0-.47-.157-.918-.224-1.366-.157-.85-.134-1.701-.246-2.552-.291-2.172-1.612-4.209-3.471-5.374-.828-.514-1.768-.895-2.395-1.634-.829-.985-2.351-1.209-3.65-1.119-.336.022-.649.089-.985.022-.492-.067-.895-.358-1.366-.537-1.298-.515-2.776-.068-4.097.358-.157.045-.313.089-.47.157-1.858.604-3.873 1.321-4.97 2.933-.224.335-.403.694-.672.985-.336.358-.784.582-1.142.895-1.119.918-1.5 2.441-1.679 3.851-.179 1.433-.224 2.911-.873 4.209-.269.538-.672 1.075-.672 1.68-.022.425.157.828.336 1.231.448 1.008.873 2.015 1.455 2.933.56.873 1.232 1.679 1.903 2.463.426.515.873 1.03 1.433 1.41.537.381 1.142.605 1.724.851 1.433.56 2.866 1.12 4.388 1.321.448.067.896.09 1.321.247.448.179.851.492 1.299.626 1.142.336 2.261-.537 3.403-.783 1.03-.224 2.194.045 3.09-.515.582-.358.94-.963 1.388-1.478.739-.828 1.746-1.388 2.44-2.239.762-.94 1.12-2.172 1.433-3.358zm-14.105-1.008c-1.231-.649-2.127-1.612-2.508-2.821-.358-1.097-.246-2.373.336-3.515 1.232-2.351 4.142-3.269 6.516-2.015 2.351 1.231 3.268 4.142 2.015 6.515-.963 1.814-2.799 2.799-4.68 2.508-.537-.067-1.142-.381-1.679-.672z" fill="#d56c00"/><path d="M34.911 20.83c-.291-1.344-.604-2.687-.895-4.008-.09-.403-.179-.828-.381-1.187-.224-.403-.56-.738-.828-1.097-.336-.403-.605-.873-.874-1.321l-.537-.85c-.381-.538-.851-1.03-1.366-1.433-1.209-.963-2.686-1.59-4.231-1.702-.963-.067-1.993.045-2.888-.336-1.21-.492-2.642.023-3.74.717l-.246.156c-.201.135-.403.247-.627.336-.47.157-.962.112-1.455.157-1.388.157-2.485 1.209-3.47 2.217l-.336.335c-1.366 1.411-2.799 2.978-3.023 4.926-.045.403-.022.784-.134 1.164-.134.47-.403.873-.605 1.321-.559 1.321-.201 2.844.314 4.187.492 1.343 1.164 2.687 1.186 4.12 0 .604-.089 1.254.18 1.791.179.38.537.671.873.918.851.694 1.724 1.365 2.664 1.925.896.515 1.881.918 2.844 1.299.201.089.402.157.604.224.425.157.873.291 1.321.358.649.09 1.299.022 1.926-.045 1.522-.156 3.067-.336 4.5-.873.425-.157.851-.358 1.298-.403.471-.067.986.045 1.456-.045 1.164-.246 1.746-1.522 2.664-2.283.806-.672 1.948-.986 2.485-1.881.358-.582.381-1.276.538-1.948.268-1.075.895-2.037 1.119-3.112.202-1.164-.067-2.418-.336-3.627zm-17.799 1.097c0-2.664 2.149-4.814 4.813-4.814 2.665 0 4.814 2.15 4.814 4.814s-2.149 4.814-4.814 4.814c-2.664 0-4.813-2.15-4.813-4.814z" fill="#fc3a83"/><path d="M9.88 16.687c-.089.38-.224.739-.291 1.119-.112.582-.067 1.209-.358 1.746l-.179.314c-.112.224-.179.448-.179.672l-.023.291c-.022.089-.112.179-.201.201-.179.023-.291-.201-.314-.38-.089-.605.023-1.209.269-1.769.067-.157.157-.291.202-.448.111-.313.111-.649.179-.963.089-.537.335-1.052.627-1.522.111-.179.268-.448.358-.09.067.247-.023.582-.09.829zM13.598 10.888c-.247.134-.448.336-.672.47-.09.045-.157.09-.224.179-.067.068-.112.157-.157.247-.246.447-.515.873-.85 1.231-.292.291-.605.537-.829.896-.045.067-.067.156-.045.223l.068.068c.313.201.761.112.962-.202.09-.112.135-.268.179-.403.068-.134.157-.268.269-.403l.582-.761c.134-.179.269-.336.448-.47.201-.135.425-.202.649-.314.224-.089.426-.246.538-.447.313-.717-.583-.515-.918-.314zM25.71 34.688l-.291.09-1.545.515c-.112.022-.201.067-.291.112l-.022.022.044.045c.426.09.874.045 1.277-.112l.515-.224c.268-.089.537-.089.806-.134.134-.022 1.074-.269.761-.425-.157-.068-.448-.023-.605 0-.224.022-.425.067-.649.111z" fill="#f7ae50"/><path d="M33.501 19.598c.044-.963-.112-1.948-.493-2.844-.358-.828-.896-1.612-1.119-2.508-.112-.425-.09-.716 0-.962l.022-.09-.537-.851c-.381-.537-.851-1.03-1.366-1.433l-.134-.044c-1.165-.381-2.217-.941-3.56-.896-1.859.045-4.321 1.254-5.911.314-.314-.18-.627-.381-.963-.471-.179-.044-.358-.067-.515-.044-.201.134-.403.246-.627.335-.47.157-.962.112-1.455.157-.179.023-.336.045-.515.112-1.164.314-2.105 1.254-2.955 2.127l-.336.336c-1.366 1.388-2.799 2.955-3.023 4.903-.045.403-.022.784-.134 1.164-.134.471-.403.874-.605 1.321-.559 1.321-.201 2.844.314 4.187.492 1.344 1.164 2.687 1.186 4.12 0 .604-.089 1.254.18 1.791.179.381.537.672.873.918.851.694 1.724 1.366 2.664 1.926.896.514 1.881.917 2.844 1.298.201.09.402.157.604.224.314.045.627.045.963-.022l.112-.023 1.254-.448c.694-.156 1.432.023 2.126-.112 1.299-.224 2.262-1.388 3.538-1.724.784-.201 1.679-.089 2.306-.582.358-.268.56-.694.829-1.052 1.074-1.567 3.156-2.53 3.47-4.411.067-.47.022-.94.045-1.41-.045-1.747.828-3.493.918-5.306zm-14.777 5.933c-.986-.873-1.612-2.172-1.612-3.605 0-2.664 2.149-4.814 4.813-4.814.918 0 1.769.247 2.486.694.335.202.626.448.895.717.873.873 1.433 2.082 1.433 3.425 0 2.665-2.149 4.814-4.814 4.814-.694 0-1.343-.134-1.948-.403l-.335-.157c-.336-.201-.627-.425-.918-.671z" fill="#ff6c9a"/><path d="M18.949 34.688l-.112.022c-.314.068-.65.068-.963.023l-.605-.224c-.962-.381-1.925-.784-2.843-1.299-.94-.559-1.814-1.231-2.664-1.925-.336-.269-.672-.538-.874-.918-.268-.538-.179-1.187-.179-1.791-.022-1.433-.671-2.777-1.186-4.12-.493-1.343-.851-2.866-.314-4.187.179-.448.47-.851.605-1.321.179-.425.156-.828.201-1.209.202-1.948 1.657-3.515 3.023-4.903l.336-.336c.85-.873 1.791-1.791 2.955-2.127-.403.314-.806.582-.94.694-1.075.851-1.881 1.993-2.374 3.269-.112.313-.224.649-.425.94-.202.291-.493.493-.739.739-.761.717-1.209 1.791-1.186 2.844.022 1.142.559 2.328.156 3.38-.112.269-.268.515-.336.806-.246.851.314 1.702.762 2.463.738 1.254 1.209 2.642 1.41 4.075.045.381.09.784.224 1.142.515 1.321 2.172 1.702 3.56 1.948.336.067.694.134.963.381.291.268.403.671.604 1.029.179.359.56.695.941.605zM31.912 13.217l-.023.09c-.246 0-.38-.291-.559-.471l-.291-.223c-.247-.157-.471-.336-.695-.538-.201-.179-.403-.403-.47-.671-.022-.09-.022-.291 0-.515l.135.045c.514.425.962.895 1.365 1.432.179.269.359.56.538.851z" fill="#fbb2c3"/><path d="M17.112 21.927c0 1.433.627 2.731 1.612 3.604.291.247.582.471.918.65-1.276-.179-2.261-1.254-2.776-1.993-.515-.739-.851-1.657-.739-2.552.112-.941.717-1.792.851-2.732.067-.605-.023-1.254.313-1.769.448-.671 1.411-.716 2.217-.671 1.052.044 2.127.112 3.134.38.515.135 1.5.426 1.791.941-.716-.448-1.567-.694-2.485-.694-2.686.022-4.836 2.171-4.836 4.836z" fill="#fc3a83"/><path d="M27.322 23.651c0 .582-.246 1.164-.649 1.567-1.075.067-1.388 1.589-2.329 2.104-1.029.56-1.41-.291-2.574-.268-1.433.022-1.657-.403-1.791-.739.604.269 1.253.403 1.947.403 2.665 0 4.814-2.15 4.814-4.814 0-1.343-.537-2.552-1.433-3.425.358.067 1.187.447 1.456.671.492.381.873.918.895 1.545.022.649-.358 1.232-.403 1.881-.022.358.067.716.067 1.075z" fill="#fbb2c3"/><path d="M12.948 25.822c-.605-.761-1.366-1.5-1.411-2.462-.044-.829.583-1.657 1.389-1.836.806-.179 1.724.268 2.059 1.052.247.582.18 1.276.269 1.903.269 1.724 1.881 2.978 3.56 3.426.47.112.985.201 1.411.425.447.224.806.672.783 1.164-.045.65-.694 1.03-1.276 1.321-1.366.65-3.336 1.008-4.366-.403-1.008-1.41-1.343-3.201-2.418-4.59zM14.783 14.56c.09-.515.224-1.052.538-1.478.425-.559 1.142-.828 1.858-.962 1.366-.247 2.776-.112 4.075.403.425.179.851.38 1.321.403.313 0 .604-.068.896-.135.828-.179 1.701-.201 2.53-.089.156.761.291 1.612-.157 2.216-.538.739-1.59.761-2.485.717-.583-.023-1.187-.045-1.747-.179l-2.172-.627c-.738-.157-1.589-.09-2.149.403-.381.336-.582.806-.828 1.276-.269.537-1.277 1.836-1.926.963-.38-.471.157-2.374.246-2.911zM31.844 23.917c.112.493.313 1.008.246 1.5-.09.605-.672 1.075-1.276 1.097-.605 0-1.142-.403-1.523-.85-.694-.851-1.074-1.948-1.164-3.023-.022-.381-.022-.739.09-1.097.089-.291.246-.537.38-.828.336-.672.47-1.433.403-2.195-.045-.492-.47-1.276-.291-1.746.314-.873 1.59-.537 2.149-.112 2.419 1.702.493 4.971.986 7.254zM25.508 28.374c-.336.538-.537 1.232-1.097 1.523-.605.336-1.411.022-2.06.246-.806.291-1.097 1.455-.582 2.149.537.672 1.657.739 2.306.157.493-.425.761-1.164 1.388-1.366.426-.134.873.023 1.321-.089.448-.09.784-.448 1.052-.829.493-.694 1.209-2.35.403-3.089-.806-.761-2.283.604-2.731 1.298z" fill="#ff7f9d"/><path d="M31.084 21.546c-.135.47-.336.896-.426 1.388-.089.47-.022 1.03.336 1.344-.157.067-.358-.023-.493-.135-.246-.179-.515-.358-.604-.649-.067-.157-.067-.336-.067-.493l-.023-1.074c0-.56-.089-2.597.784-2.709.851-.135.627 1.813.493 2.328zM15.074 27.412c.672.985 1.746 1.746 2.933 1.746.246 0 .582-.157.493-.403-.045-.089-.112-.134-.202-.179-.895-.515-1.836-.963-2.597-1.657-.314-.291-.605-.627-.739-1.052-.179-.537-.022-1.097-.134-1.635-1.344.112-.112 2.642.246 3.18zM15.992 18.119c-.202.291-.47.515-.694.783-.291.336-.493.762-.538 1.209-.044.448.09.918.403 1.254.314-.112.471-.492.493-.828.022-.336-.022-.694.112-1.008.134-.38.492-.627.716-.962.202-.314.291-.672.403-1.03.023-.067.045-.135.023-.202-.202-.582-.851.694-.918.784z" fill="#fbb2c3"/><path d="M25.217 18.501c.358.314 1.276 2.06 1.41 2.799.112.627-.067 1.858-.201 1.881-.359.045.089-.851-.291-2.105-.068-.224-.605-1.769-1.321-2.44-.112-.112-.291-.269-.09-.336.157-.067.403.112.493.201z" fill="#f7ae50"/><path d="M12.343 20.92l-.313-1.209c-.023-.112.045-.247.156-.269.112-.023.247.045.269.157l.336 1.209c.022.112-.045.246-.157.268-.134.045-.246-.022-.291-.156z" fill="#ccc"/><path d="M12.389 20.875l-.336-1.209c-.022-.112.045-.247.157-.269.112-.022.246.045.269.157l.335 1.209c.023.112-.044.246-.156.268-.112.045-.247-.044-.269-.156z" fill="#4ec1e0"/><path d="M11.807 16.082v-.985c0-.089.067-.179.179-.179.089 0 .179.067.179.179v.985c0 .09-.067.179-.179.179-.112 0-.179-.089-.179-.179z" fill="#ccc"/><path d="M11.83 16.059v-.985c0-.09.067-.179.179-.179.09 0 .179.067.179.179v.985c0 .089-.067.179-.179.179-.089-.023-.179-.09-.179-.179z" fill="#4ec1e0"/><path d="M30.48 25.596l-1.008-.94c-.09-.09-.112-.247-.022-.336.089-.09.246-.112.335-.023l1.008.941c.09.089.112.246.022.335-.089.112-.246.112-.335.023z" fill="#ccc"/><path d="M30.482 25.529l-1.008-.94c-.09-.089-.112-.246-.022-.336.089-.089.246-.112.335-.022l1.008.94c.09.09.112.247.022.336-.067.112-.224.112-.335.022z" fill="#4ec1e0"/><path d="M10.284 21.344l-.067-1.053c0-.112.067-.179.179-.201.112 0 .179.067.201.179l.068 1.052c0 .112-.068.179-.179.202-.112 0-.202-.09-.202-.179z" fill="#ccc"/><path d="M10.329 21.32l-.067-1.052c0-.112.067-.179.179-.202.112 0 .179.068.201.18l.068 1.052c0 .112-.068.179-.18.201-.112 0-.201-.089-.201-.179z" fill="#4ec1e0"/><path d="M31.106 30.322l-.963.381c-.09.045-.202 0-.246-.09-.045-.089 0-.201.089-.246l.963-.381c.089-.044.201 0 .246.09.045.089 0 .201-.089.246z" fill="#ccc"/><path d="M31.061 30.277l-.963.381c-.09.045-.202 0-.246-.09-.045-.089 0-.201.089-.246l.963-.381c.089-.044.201 0 .246.09.067.112.023.224-.089.246z" fill="#4ec1e0"/><path d="M26.896 16.015l.873.537c.089.045.112.157.067.246-.045.09-.157.112-.246.067l-.873-.537c-.09-.045-.112-.157-.068-.246.068-.09.179-.112.247-.067z" fill="#ccc"/><path d="M26.917 16.06l.873.537c.09.045.112.157.068.246-.045.09-.157.112-.247.067l-.873-.537c-.09-.045-.112-.157-.067-.246.045-.09.157-.112.246-.067z" fill="#4ec1e0"/><path d="M17.626 15.434l-1.231.425c-.112.045-.246-.022-.291-.134-.045-.112.022-.247.134-.291l1.232-.426c.112-.045.246.023.291.135.044.134-.023.246-.135.291z" fill="#ccc"/><path d="M17.582 15.41l-1.254.426c-.111.044-.246-.023-.29-.135-.045-.112.022-.246.134-.291l1.231-.425c.112-.045.247.022.291.134.067.112 0 .246-.112.291z" fill="#4ec1e0"/><path d="M27.992 25.016l-1.253-.09c-.112 0-.202-.112-.202-.246 0-.112.112-.201.246-.201l1.254.089c.112 0 .202.112.202.246 0 .135-.112.224-.247.202z" fill="#ccc"/><path d="M27.971 24.971l-1.254-.09c-.112 0-.201-.112-.201-.246 0-.112.112-.201.246-.201l1.254.089c.112 0 .201.112.201.246-.022.112-.134.202-.246.202z" fill="#4ec1e0"/><path d="M31.689 27.278l.38 1.074c.045.112-.022.224-.111.247-.112.044-.224-.023-.247-.112l-.38-1.075c-.045-.112.022-.224.112-.246.089-.045.201 0 .246.112z" fill="#ccc"/><path d="M31.666 27.323l.38 1.074c.045.112-.022.224-.112.246-.112.045-.224-.022-.246-.111l-.381-1.075c-.045-.112.023-.224.112-.246.09-.045.202 0 .247.112z" fill="#4ec1e0"/><path d="M16.754 13.036l-.627-1.142c-.067-.112-.022-.246.09-.314.112-.067.246-.022.313.09l.627 1.142c.067.112.023.246-.089.313-.112.067-.247.023-.314-.089z" fill="#ccc"/><path d="M16.799 12.991l-.627-1.142c-.067-.112-.022-.246.09-.313.112-.068.246-.023.313.089l.627 1.142c.067.112.023.246-.089.313-.112.045-.269.023-.314-.089z" fill="#4ec1e0"/><path d="M14.965 29.247l-.135 1.142c-.022.112-.112.201-.224.179-.112-.022-.201-.112-.179-.224l.135-1.142c.022-.112.112-.201.224-.179.112 0 .201.112.179.224z" fill="#ccc"/><path d="M14.92 29.27l-.135 1.142c-.022.112-.112.202-.223.179-.112-.022-.202-.112-.18-.224l.135-1.141c.022-.112.112-.202.224-.18.111.023.201.112.179.224z" fill="#4ec1e0"/><path d="M16.06 28.464l-.38-1.344c-.045-.134.045-.268.156-.313.135-.045.269.045.314.156l.381 1.344c.044.134-.045.269-.157.313-.134.045-.269-.022-.314-.156z" fill="#ccc"/><path d="M16.105 28.419l-.38-1.344c-.045-.134.044-.268.156-.313.135-.045.269.045.314.157l.381 1.343c.044.134-.045.269-.157.313-.135.045-.269-.022-.314-.156z" fill="#4ec1e0"/><path d="M20.896 28.239l1.187-.134c.112-.022.224.067.246.179.023.112-.067.224-.179.246l-1.187.135c-.111.022-.223-.067-.246-.179-.022-.135.045-.224.179-.247z" fill="#ccc"/><path d="M20.919 28.284l1.187-.134c.112-.022.224.067.246.179.023.112-.067.224-.179.246l-1.186.135c-.112.022-.224-.068-.247-.179 0-.135.067-.224.179-.247z" fill="#4ec1e0"/><path d="M13.734 24.523l.694.962c.068.09.045.224-.044.292-.09.067-.224.044-.292-.045l-.694-.941c-.067-.089-.044-.223.045-.291.09-.089.224-.067.291.023z" fill="#ccc"/><path d="M13.733 24.59l.694.962c.068.09.045.224-.044.292-.09.067-.224.044-.291-.045l-.717-.963c-.067-.09-.045-.224.045-.291.112-.067.224-.045.313.045z" fill="#4ec1e0"/><path d="M25.688 27.409l1.141-.694c.112-.067.247-.022.314.09.067.112.022.246-.09.313l-1.142.694c-.112.067-.246.023-.313-.089-.067-.09-.022-.247.09-.314z" fill="#ccc"/><path d="M25.732 27.433l1.142-.694c.112-.068.246-.023.313.089.068.112.023.246-.089.314l-1.142.694c-.112.067-.246.022-.313-.09-.045-.089 0-.246.089-.313z" fill="#4ec1e0"/><path d="M13.776 14.829l.224-1.119c.022-.112.134-.179.246-.157.112.023.179.135.157.246l-.224 1.12c-.023.112-.135.179-.247.157-.111-.023-.179-.135-.156-.247z" fill="#ccc"/><path d="M13.82 14.806l.224-1.12c.022-.111.134-.179.246-.156.112.022.179.134.157.246l-.224 1.119c-.022.112-.134.18-.246.157-.09-.022-.179-.134-.157-.246z" fill="#f00138"/><path d="M16.307 31.081l1.209.538c.112.045.179.179.112.313-.045.112-.179.179-.313.112l-1.21-.537c-.111-.045-.179-.179-.111-.314.044-.112.179-.179.313-.112z" fill="#ccc"/><path d="M16.307 31.126l1.209.537c.112.045.179.179.112.313-.045.112-.179.18-.313.112l-1.21-.537c-.111-.045-.179-.179-.111-.313.067-.09.201-.157.313-.112z" fill="#f00138"/><path d="M23.517 10.576l-1.187-.045c-.111 0-.201-.112-.201-.224s.112-.202.224-.202l1.186.045c.112 0 .202.112.202.224s-.112.202-.224.202z" fill="#ccc"/><path d="M23.494 10.53l-1.187-.067c-.112 0-.201-.112-.201-.224s.111-.202.223-.202l1.187.045c.112 0 .202.112.202.224-.023.134-.112.224-.224.224z" fill="#f00138"/><path d="M30.702 22.195l-.985-.157c-.089-.022-.156-.112-.156-.202.022-.089.112-.156.201-.156l.985.156c.09.023.157.112.157.202-.022.09-.112.157-.202.157z" fill="#ccc"/><path d="M30.681 22.15l-.985-.157c-.09-.022-.157-.112-.157-.201.022-.09.112-.157.202-.157l.985.157c.089.022.156.111.156.201-.022.112-.112.157-.201.157z" fill="#f00138"/><path d="M21.746 29.807l.515 1.164c.045.112 0 .246-.112.291-.112.045-.246 0-.291-.112l-.515-1.164c-.044-.112 0-.246.112-.291.112-.067.224 0 .291.112z" fill="#ccc"/><path d="M21.701 29.852l.515 1.164c.045.112 0 .246-.112.291-.111.045-.246 0-.291-.112l-.515-1.164c-.044-.112 0-.246.112-.291.112-.045.247 0 .291.112z" fill="#f00138"/><path d="M28.465 13.036l-.605.851c-.067.09-.179.112-.268.045-.09-.067-.112-.179-.045-.269l.604-.851c.068-.089.18-.112.269-.044.09.067.112.179.045.268z" fill="#ccc"/><path d="M28.42 13.036l-.605.851c-.067.09-.179.112-.268.045-.09-.067-.112-.179-.045-.269l.605-.851c.067-.089.179-.112.268-.044.09.067.09.179.045.268z" fill="#f00138"/><path d="M15.119 17.134l-.179 1.075c-.023.112-.112.179-.224.157-.112-.022-.179-.112-.157-.224l.179-1.075c.023-.112.112-.179.224-.156.09.022.157.112.157.223z" fill="#ccc"/><path d="M15.052 17.158l-.179 1.075c-.022.112-.112.179-.224.156-.112-.022-.179-.112-.156-.224l.179-1.074c.022-.112.112-.179.224-.157.112.022.179.112.156.224z" fill="#f00138"/><path d="M25.576 33.615l-1.12-.112c-.111 0-.179-.112-.179-.224s.112-.179.224-.179l1.12.112c.112 0 .179.112.179.224-.023.111-.112.201-.224.179z" fill="#ccc"/><path d="M25.552 33.568l-1.119-.112c-.112 0-.179-.112-.179-.224s.112-.179.224-.179l1.119.112c.112 0 .179.112.179.224-.022.112-.134.201-.224.179z" fill="#f00138"/><path d="M25.172 32.092l-.806-1.03c-.09-.089-.067-.246.045-.313.089-.09.246-.067.313.044l.806 1.03c.09.09.067.247-.045.314-.089.067-.224.067-.313-.045z" fill="#ccc"/><path d="M25.195 32.047l-.806-1.03c-.089-.089-.067-.246.045-.313.09-.09.246-.067.314.045l.806 1.029c.089.09.067.247-.045.314-.09.067-.247.045-.314-.045z" fill="#f00138"/><path d="M25.176 13.53l.985.268c.089.023.156.135.134.224-.022.09-.134.157-.224.135l-.985-.269c-.09-.022-.157-.134-.134-.224.022-.112.112-.179.224-.134z" fill="#ccc"/><path d="M25.174 13.575l.985.268c.089.023.156.135.134.224-.022.09-.134.157-.224.134l-.985-.268c-.09-.023-.157-.134-.134-.224.044-.112.134-.179.224-.134z" fill="#f00138"/><path d="M34.823 21.679v1.052c0 .112-.089.179-.179.179-.112 0-.179-.089-.179-.179v-1.052c0-.112.089-.179.179-.179.09-.023.179.067.179.179z" fill="#ccc"/><path d="M34.778 21.703v1.052c0 .112-.089.179-.179.179-.112 0-.179-.09-.179-.179v-1.052c0-.112.09-.18.179-.18.09 0 .179.068.179.18z" fill="#f00138"/><path d="M31.374 18.678l-.336 1.276c-.023.135-.157.202-.291.157-.135-.022-.202-.157-.157-.291l.336-1.276c.022-.135.157-.202.291-.157.112.045.201.179.157.291z" fill="#ccc"/><path d="M31.329 18.701l-.336 1.277c-.022.134-.157.201-.291.156-.134-.022-.202-.156-.157-.291l.336-1.276c.022-.134.157-.201.291-.157.112.045.179.179.157.291z" fill="#f00138"/><path d="M27.546 32.022l.828-1.119c.09-.112.246-.135.336-.045.112.09.134.246.045.336l-.829 1.119c-.089.112-.246.135-.336.045-.112-.089-.134-.246-.044-.336z" fill="#ccc"/><path d="M27.612 32.022l.828-1.119c.09-.112.247-.135.336-.045.112.09.135.246.045.336l-.828 1.119c-.09.112-.247.135-.336.045-.112-.089-.135-.246-.045-.336z" fill="#f00138"/><path d="M12.322 17.202l.089 1.253c0 .112-.089.224-.201.224-.112 0-.224-.089-.224-.201l-.089-1.254c0-.112.089-.224.201-.224.112 0 .202.09.224.202z" fill="#ccc"/><path d="M12.277 17.245l.09 1.254c0 .112-.09.224-.202.224-.112 0-.224-.089-.224-.201l-.089-1.254c0-.112.089-.224.201-.224.112-.022.202.09.224.201z" fill="#f00138"/><path d="M27.658 19.283l.918-.47c.09-.045.202 0 .246.089.045.09 0 .202-.089.246l-.918.471c-.09.044-.202 0-.246-.09-.023-.09 0-.202.089-.246z" fill="#ccc"/><path d="M27.703 19.304l.918-.47c.09-.045.202 0 .246.09.045.089 0 .201-.089.246l-.918.47c-.09.045-.202 0-.247-.09-.022-.089 0-.201.09-.246z" fill="#f00138"/><path d="M25.306 11.808l.157-1.298c.022-.135.134-.224.246-.202.135.023.224.135.202.246l-.157 1.299c-.022.134-.134.224-.246.202-.135 0-.224-.112-.202-.247z" fill="#ccc"/><path d="M25.352 11.785l.156-1.299c.023-.134.135-.224.247-.201.134.022.224.134.201.246l-.157 1.299c-.022.134-.134.223-.246.201-.112-.022-.201-.134-.201-.246z" fill="#f00138"/><path d="M27.793 10.707l.873.426c.089.044.112.156.089.224-.044.089-.156.111-.224.089l-.873-.425c-.089-.045-.112-.157-.089-.224.022-.112.134-.135.224-.09z" fill="#ccc"/><path d="M27.793 10.752l.873.425c.089.045.112.157.089.224-.044.09-.156.112-.224.09l-.873-.426c-.089-.044-.112-.156-.089-.223.044-.09.134-.135.224-.09z" fill="#f1da4c"/><path d="M18.166 11.85l1.052-.582c.112-.067.224-.022.291.089.067.112.023.224-.089.292l-1.053.582c-.112.067-.224.022-.291-.09-.045-.112 0-.246.09-.291z" fill="#ccc"/><path d="M18.232 11.871l1.053-.582c.112-.067.224-.022.291.09.067.112.022.224-.09.291l-1.052.582c-.112.067-.224.023-.291-.089-.067-.112-.022-.247.089-.292z" fill="#f1da4c"/><path d="M30.301 16.328l-.963.672c-.09.067-.224.045-.291-.045-.067-.09-.045-.224.045-.291l.962-.672c.09-.067.224-.045.292.045.067.112.044.224-.045.291z" fill="#ccc"/><path d="M30.256 16.305l-.963.671c-.09.067-.224.045-.291-.044-.067-.09-.045-.224.045-.292l.963-.671c.089-.067.223-.045.291.045.067.111.044.223-.045.291z" fill="#f1da4c"/><path d="M23.36 13.239l-.649-.896c-.067-.09-.045-.202.045-.269.089-.067.201-.045.268.045l.65.896c.067.089.045.201-.045.268-.09.045-.202.023-.269-.044z" fill="#ccc"/><path d="M23.384 13.172l-.65-.895c-.067-.09-.044-.202.045-.269.09-.067.202-.045.269.045l.649.895c.067.09.045.202-.045.269-.089.067-.224.045-.268-.045z" fill="#f1da4c"/><path d="M24.523 28.127l-1.03-.358c-.089-.045-.156-.134-.112-.246.045-.09.135-.157.247-.112l1.03.358c.089.045.156.134.112.246-.045.09-.135.135-.247.112z" fill="#ccc"/><path d="M24.501 28.059l-1.008-.358c-.089-.045-.156-.135-.112-.247.045-.089.135-.156.247-.112l1.03.359c.089.044.156.134.112.246-.045.112-.157.157-.269.112z" fill="#f1da4c"/><path d="M23.762 28.598l1.007.425c.09.045.135.157.112.246-.045.09-.156.135-.246.112l-1.008-.425c-.089-.045-.134-.157-.111-.247.022-.089.134-.134.246-.111z" fill="#ccc"/><path d="M23.762 28.666l1.007.425c.09.045.135.157.112.246-.045.09-.156.135-.246.112l-1.008-.425c-.089-.045-.134-.157-.111-.246.044-.112.156-.157.246-.112z" fill="#f1da4c"/><path d="M15.076 20.849l.917-.739c.09-.067.224-.067.292.023.067.089.067.224-.023.291l-.918.739c-.089.067-.224.067-.291-.023-.089-.089-.067-.224.023-.291z" fill="#ccc"/><path d="M15.12 20.849l.918-.739c.09-.067.224-.067.291.023.068.089.068.224-.022.291l-.918.761c-.089.067-.224.067-.291-.022-.089-.112-.067-.224.022-.314z" fill="#f1da4c"/><path d="M32.248 22.484l.985-.044c.09 0 .179.067.179.156 0 .09-.067.179-.156.179l-.986.045c-.089 0-.179-.067-.179-.157-.022-.089.067-.156.157-.179z" fill="#ccc"/><path d="M32.27 22.531l.985-.045c.09 0 .179.068.179.157 0 .09-.067.179-.156.179l-.986.045c-.089 0-.179-.067-.179-.157 0-.089.068-.179.157-.179z" fill="#f1da4c"/><path d="M20.63 12.657l.604.761c.067.067.045.179-.022.246s-.179.045-.247-.022l-.604-.761c-.067-.068-.045-.18.022-.247s.179-.045.247.023z" fill="#ccc"/><path d="M20.606 12.704l.605.761c.067.067.044.179-.023.246s-.179.045-.246-.022l-.605-.761c-.067-.068-.044-.18.023-.247.089-.067.201-.045.246.023z" fill="#f1da4c"/><path d="M29.785 28.507l-1.343.179c-.134.022-.246-.067-.269-.202-.022-.134.068-.246.202-.268l1.343-.179c.135-.023.247.067.269.201.022.134-.09.246-.202.269z" fill="#ccc"/><path d="M29.741 28.462l-1.344.179c-.134.022-.246-.067-.269-.201-.022-.135.068-.247.202-.269l1.343-.179c.135-.023.247.067.269.201.022.135-.09.247-.201.269z" fill="#f1da4c"/><path d="M14.628 22.755l-1.097.336c-.112.023-.224-.022-.246-.134-.023-.112.022-.224.134-.246l1.097-.336c.112-.023.224.022.247.134.022.09-.023.202-.135.246z" fill="#ccc"/><path d="M14.583 22.709l-1.097.335c-.112.023-.224-.022-.246-.134-.022-.112.022-.224.134-.246l1.097-.336c.112-.023.224.022.247.134.022.112-.023.224-.135.247z" fill="#f1da4c"/><path d="M33.346 24.971l-.045 1.231c0 .112-.112.224-.224.202-.111 0-.224-.112-.201-.224l.045-1.231c0-.112.112-.224.224-.202.112 0 .201.09.201.224z" fill="#ccc"/><path d="M33.301 24.994l-.045 1.232c0 .112-.111.224-.223.201-.112 0-.224-.112-.202-.224l.045-1.231c0-.112.112-.224.224-.202.112 0 .201.112.201.224z" fill="#f1da4c"/><path d="M19.374 15.635l1.321-.045c.135 0 .224.089.247.224 0 .134-.09.224-.224.246l-1.321.045c-.135 0-.224-.09-.247-.224 0-.134.09-.246.224-.246z" fill="#ccc"/><path d="M19.418 15.68l1.321-.045c.135 0 .224.089.246.224 0 .134-.089.224-.223.246l-1.344.045c-.134 0-.224-.09-.246-.224 0-.135.112-.224.246-.246z" fill="#f1da4c"/><path d="M20.068 10.888l.023-1.344c0-.134.112-.224.246-.224s.224.112.224.247l-.022 1.343c0 .134-.112.224-.247.224-.134 0-.224-.112-.224-.246z" fill="#ccc"/><path d="M20.113 10.864l.023-1.343c0-.135.112-.224.246-.224s.224.112.224.246l-.022 1.344c0 .134-.112.223-.247.223-.112-.022-.224-.134-.224-.246z" fill="#f1da4c"/><path d="M28.464 22.124l-1.343.269c-.135.022-.247-.067-.291-.179-.023-.135.067-.247.179-.291l1.343-.269c.134-.022.246.067.291.179.045.134-.045.269-.179.291z" fill="#ccc"/><path d="M28.419 22.081l-1.343.269c-.135.022-.246-.067-.291-.179-.023-.135.067-.247.179-.291l1.343-.269c.135-.022.247.067.291.179.023.134-.044.269-.179.291z" fill="#f1da4c"/><path d="M17.203 23.626l-.403 1.321c-.044.134-.179.202-.313.157-.134-.045-.202-.179-.157-.314l.403-1.321c.045-.134.179-.201.314-.156.134.044.201.179.156.313z" fill="#ccc"/><path d="M17.159 23.65l-.403 1.321c-.045.134-.18.201-.314.156-.134-.044-.201-.179-.157-.313l.403-1.321c.045-.134.179-.202.314-.157.112.045.179.179.157.314z" fill="#eff3f4"/><path d="M21.724 33.814l.246-1.343c.023-.135.157-.224.269-.202.134.022.224.157.202.269l-.247 1.343c-.022.134-.156.224-.268.202-.135-.023-.224-.135-.202-.269z" fill="#ccc"/><path d="M21.791 33.769l.246-1.343c.022-.135.157-.224.268-.202.135.022.224.157.202.269l-.246 1.343c-.023.135-.157.224-.269.202-.134 0-.224-.135-.201-.269z" fill="#eff3f4"/><path d="M17.606 16.844l.672.895c.067.09.045.202-.045.269-.089.067-.201.045-.268-.045l-.672-.895c-.067-.09-.045-.202.045-.269.067-.067.201-.045.268.045z" fill="#ccc"/><path d="M17.583 16.889l.672.895c.067.09.044.202-.045.269-.09.067-.202.045-.269-.045l-.671-.895c-.068-.09-.045-.202.044-.269.068-.045.202-.045.269.045z" fill="#eff3f4"/><path d="M20.158 31.441l-1.298.291c-.135.023-.247-.044-.291-.179-.023-.134.044-.246.179-.291l1.298-.291c.135-.022.247.045.291.179.045.135-.044.269-.179.291z" fill="#ccc"/><path d="M20.113 31.396l-1.298.291c-.135.023-.246-.044-.291-.179-.023-.134.045-.246.179-.291l1.299-.291c.134-.022.246.045.291.179.022.135-.045.269-.18.291z" fill="#eff3f4"/><path d="M11.76 24.052l-1.276-.201c-.134-.023-.201-.135-.179-.269.022-.134.134-.202.269-.179l1.276.201c.134.023.201.134.179.269-.022.134-.134.201-.269.179z" fill="#ccc"/><path d="M11.739 24.006l-1.276-.224c-.135-.022-.202-.134-.179-.269.022-.134.134-.201.268-.179l1.276.202c.135.022.202.134.18.269-.023.134-.135.223-.269.201z" fill="#eff3f4"/><path d="M22.509 14.783l.559.918c.045.089.023.201-.067.269-.089.044-.201.022-.268-.068l-.56-.918c-.045-.089-.023-.201.067-.268.112-.045.224-.023.269.067z" fill="#ccc"/><path d="M22.485 14.83l.56.918c.045.089.022.201-.067.268-.09.045-.202.023-.269-.067l-.56-.918c-.044-.089-.022-.201.068-.268.111-.045.223-.023.268.067z" fill="#eff3f4"/><path d="M29.696 13.842l1.03-.873c.09-.089.247-.067.336.023.09.089.067.246-.022.335l-1.03.874c-.09.089-.246.067-.336-.023-.09-.089-.09-.246.022-.336z" fill="#ccc"/><path d="M29.763 13.864l1.03-.873c.089-.09.246-.068.336.022.089.09.067.246-.023.336l-1.03.873c-.089.09-.246.067-.336-.022-.089-.09-.089-.247.023-.336z" fill="#eff3f4"/><path d="M18.366 29.157l.47-.896c.045-.089.157-.111.247-.067.089.045.112.157.067.247l-.47.895c-.045.09-.157.112-.247.067-.089-.067-.112-.156-.067-.246z" fill="#ccc"/><path d="M18.411 29.134l.47-.896c.045-.09.157-.112.247-.067.089.045.112.157.067.246l-.47.896c-.045.089-.157.112-.247.067-.089-.045-.112-.157-.067-.246z" fill="#eff3f4"/><path d="M12.501 26.694l.56 1.164c.045.112 0 .246-.112.313-.112.045-.246 0-.313-.112l-.56-1.164c-.045-.112 0-.246.112-.313.134-.045.268 0 .313.112z" fill="#ccc"/><path d="M12.478 26.738l.559 1.165c.045.112 0 .246-.111.313-.112.045-.247 0-.314-.112l-.56-1.164c-.044-.112 0-.246.112-.313.112-.045.247 0 .314.111z" fill="#eff3f4"/><path d="M33.39 19.955l-.403-1.299c-.045-.134.022-.268.156-.291.135-.044.269.023.291.157l.403 1.299c.045.134-.022.268-.156.291-.112.045-.247-.023-.291-.157z" fill="#ccc"/><path d="M33.434 19.91l-.403-1.298c-.044-.135.023-.269.157-.291.135-.045.269.022.291.156l.403 1.299c.045.134-.022.268-.157.291-.134.045-.268-.023-.291-.157z" fill="#eff3f4"/><path d="M31.711 15.701l.963-.045c.09 0 .179.067.179.157s-.067.179-.156.179l-.963.045c-.09 0-.179-.067-.179-.157 0-.089.067-.179.156-.179z" fill="#ccc"/><path d="M31.756 15.744l.963-.045c.089 0 .179.067.179.157 0 .089-.067.179-.157.179l-.963.045c-.089 0-.179-.067-.179-.157-.022-.112.067-.179.157-.179z" fill="#eff3f4"/><path d="M17.673 26.694l.963-.694c.09-.067.224-.045.291.045.067.089.045.224-.045.291l-.985.694c-.089.067-.224.045-.291-.045-.067-.089-.045-.224.067-.291z" fill="#ccc"/><path d="M17.719 26.715l.962-.693c.09-.068.224-.045.291.044.068.09.045.224-.044.291l-.963.694c-.09.068-.224.045-.291-.044-.067-.112-.045-.224.045-.292z" fill="#eff3f4"/><path d="M20.159 33.748l-1.321-.224c-.135-.022-.224-.134-.202-.268.023-.135.135-.224.269-.202l1.321.224c.134.023.224.134.201.269-.022.134-.156.224-.268.201z" fill="#ccc"/><path d="M20.114 33.68l-1.321-.224c-.134-.022-.224-.134-.202-.269.023-.134.135-.223.269-.201l1.321.224c.134.022.224.134.202.268 0 .135-.135.224-.269.202z" fill="#eff3f4"/><path d="M25.062 17.491l.985.784c.089.067.112.224.044.313-.067.09-.223.112-.313.045l-.985-.806c-.09-.067-.112-.224-.045-.313.067-.09.202-.09.314-.023z" fill="#ccc"/><path d="M25.062 17.559l.985.784c.089.067.112.224.044.313-.067.09-.223.112-.313.045l-.985-.784c-.09-.067-.112-.223-.045-.313.067-.112.202-.134.314-.045z" fill="#eff3f4"/><path d="M25.285 16.169l-1.165.045c-.112 0-.201-.089-.223-.201 0-.112.089-.202.201-.224l1.187-.045c.112 0 .201.09.224.202-.023.112-.112.223-.224.223z" fill="#ccc"/><path d="M25.262 16.127l-1.186.044c-.112 0-.202-.089-.224-.201 0-.112.089-.202.201-.224l1.187-.045c.112 0 .201.09.224.202 0 .112-.09.224-.202.224z" fill="#eff3f4"/><path d="M26.225 30.098l.851-.694c.089-.067.201-.045.269.022.067.09.044.202-.023.269l-.851.694c-.089.067-.201.045-.268-.022-.067-.068-.045-.202.022-.269z" fill="#ccc"/><path d="M26.293 30.119l.851-.694c.089-.067.201-.044.268.023.068.089.045.201-.022.268l-.851.695c-.089.067-.201.044-.269-.023-.067-.089-.067-.201.023-.269z" fill="#eff3f4"/></svg>