<svg viewBox="0 0 44 44" xmlns="http://www.w3.org/2000/svg" fill-rule="evenodd" clip-rule="evenodd"><path d="M8.474 17.76s6.856 2.744 13.059 4.523c10.975 3.141 13.386 10.791 14.258 7.841-.007.454-.05.929-.121 1.411-.73 4.892-2.651-3.658-14.42-7.033-6.211-1.779-13.06-4.523-13.06-4.523l.284-2.219z" fill="#d46300"/><path d="M25.204 11.91c.085-1.46-1.666-3.453-3.19-2.729-.497.234-2.957.73-3.453.95-.759.34-1.34-.433-2.113-.249-1.872.447-3.205 2.241-5.175 2.099-2.156-.156-3.85.489-5.623 1.375-1.964.979-1.524 3.099-.517 4.651 1.205 1.851 3.41 2.475 5.679 1.801 2.049-.61 4.013-1.46 6.026-2.169 2.276-.801 4.112-.773 6.147-2.212l2.219-3.517z" fill="#f7ad3e"/><path d="M25.226 11.967s13.159 4.147 10.932 19.001c-.73 4.891-2.942-5.297-14.711-8.671-6.211-1.78-13.059-4.524-13.059-4.524l16.838-5.806z" fill="#f7bd25"/><path d="M8.546 17.761c-.475-.113.248-1.319.007-1.723-.475-.808-1.177-2.191-2.312-1.914-3.488.837-.198 4.942 1.262 5.615.993.454 4.084 1.482 5.034.73.078-.056-.064-1.177.135-1.07-.978-.539-2.304-1.496-3.481-1.454l-.645-.184z" fill="#d46300"/><path d="M35.399 28.068c.192 1.439.319 3.545.454 5.147.071.837.482 3.091-.454 3.58-1.148.596-1.836-.865-1.488-1.893.411-1.191 1.233-3.197.56-2.318-.468.61.092 1.127-.901 1.453-.539.178-.9-.475-.765-1.035.099-.432.255-1.786-.256-2.623-.858-1.418-.418-2.9-2.921-5.076l5.771 2.765z" fill="#f7bd25"/><path d="M8.906 16.362c1.503.645 2.148-.234 3.694-.901 1.255-.538 1.794-1.432.539-2.836 2.439.107 1.467 2.191 4.02.972 3.339-1.603 5.296.035 2.907-2.545.964.078 3.112 1.963 4.197.772.432-.475.546-.85.461-1.474.319.496.453.971.538 1.467l.064.149-16.852 5.793s-1.269-1.66-1.291-2.943c-.021-.907 1.177 1.312 1.723 1.546z" fill="#d47100"/><path d="M11.274 11.982c1.092.078 1.985-.433 2.878-.986-.255.475-.538.929-.992 1.333-.461.411-1.361-.014-2.134-.362l.248.015zM18.554 10.137c.497-.227 2.964-.716 3.453-.95l.05-.021c-.404.837-3.255 1.964-4.19 1.099l-.142-.113c.269.078.539.12.829-.015z" fill="#d47e00"/><path d="M35.635 33.257c1.971-1.9 1.085-4.495 1.475-5.062.681-.986-.071-3.162-.447-4.077-.177-.418-.049-.858-.234-1.255-.17-.369-.609-.702-.865-1.007-.546-.638-.489-.574-.375-1.29.085-.525.226-.702-.107-1.148-.517-.674-1.46-.816-1.992-1.518-.581-.758-5.721-5.693-6.601-5.813-.304-.043-1.006-.213-1.219-.142-1.007.305-1.957 1.822-2.177 2.885-.333 1.589-.574 1.702.872 2.723 1.319.929 2.567 1.957 3.935 2.815.78.489 1.652.857 2.425 1.361.666.439 1.241.985 1.694 1.637.972 1.404 1.192 2.709 1.44 4.29l2.176 5.601zM25.604 12.356c-.043-.156-.483-.262-.61-.297-.291-.085-.482.198-.737.319-.263.12-.568.113-.837.22-.241.099-.56.241-.815.297-.277.064-.504-.106-.787.007-.319.128-1.737.362-1.986.575-.545.468-2.204 0-2.715.482-.553.524-1.163.581-1.879.73-.737.149-1.056 1-1.808 1-.531 0-1.318.234-1.793.482-.284.149-.44.446-.738.567-.361.149-.78.191-1.155.312-.149.05-1.333.659-1.241.709.106.057.298.014.411-.007.383-.064.759-.029 1.149-.014.858.035 1.708.092 2.559.205.915.121 1.836.376 2.765.326 1.617-.092 2.893-1.503 4.509-1.389.752.049 1.241.163 1.943-.213.737-.397 1.326-.829 1.914-1.418l1.851-2.893zM28.169 23.793c.099.652-.681 1.368-1.248 1.361-.411-.007-.46-.113-.857.078-.348.17-.504.348-.951.27-.021-.334.298-1.021.107-1.284-.319-.439-.964.015-1.347-.014-.709-.049-1.787-1.517-1.936.064-.049.503.695 2.481-1.063 1.78-1.085-.433.198-1.688.099-2.368-.071-.461-.376-.454-.702-.688-.319-.227-.34-.539-.546-.759-.326-.34-.368-.028-.851.043-.354.049-.623-.078-.9-.27-.347-.241-.56-.489-.978-.701-.681-.348-.872-.873-.865-1.667 0-.191-.064-.439.099-.538.142-.093.751.141.893.163.737.134 1.447.283 2.163.496 2.056.603 4.204 1.326 6.366 1.333l2.517 2.701z" fill="#f7bd25"/><path d="M23.163 17.471s1.886.092 2.581.758c.687.667.758 1.369.489 2.049-.262.681-.9.844-1.56 1.057-1.12.354-2.29-.022-3.077-.405-.773-.375-.787-1.02-.787-1.02s-.142-.823.114-1.376c.269-.553.617-1.014 2.24-1.063z" fill="#ff8e85"/><path d="M22.319 19.085c-.042.1.015.199.128.22.106.021.227-.042.269-.142.043-.099-.014-.198-.127-.219-.114-.022-.234.042-.27.141zM23.482 19.469c-.035.085.022.177.135.198.106.022.22-.035.255-.12.036-.085-.021-.177-.127-.199-.114-.021-.227.036-.263.121zM24.419 18.922c-.021.064.028.128.121.149.092.021.184-.021.205-.078.021-.064-.028-.128-.12-.149-.093-.021-.185.014-.206.078zM24.248 20.758c-.043.099.021.198.128.22.106.021.226-.043.269-.142.042-.099-.021-.199-.128-.22-.106-.028-.227.036-.269.142zM25.121 19.844c-.028.078.021.156.121.177.099.021.198-.028.227-.106.028-.078-.022-.156-.121-.178-.099-.021-.198.029-.227.107zM22.59 20.552c-.021.05.042.107.135.128.092.021.191-.007.212-.057.022-.05-.042-.106-.134-.128-.1-.021-.199.008-.213.057zM21.221 19.307c-.043.113 0 .219.099.241.099.021.213-.057.255-.171.043-.113 0-.219-.099-.241-.099-.021-.213.057-.255.171zM21.533 18.469c-.021.057.035.121.135.135.099.021.191-.014.212-.064.022-.056-.035-.12-.134-.134-.093-.022-.192.007-.213.063z" fill="#ff725c"/><path d="M20.959 18.881c.064.333.028.772.163 1.006.113.199.312.27.461.383.418.312.858.511 1.361.624.248.05.766.028 1.255-.021l.106.085c.064.035.135.035.234-.021l.107-.114c.312-.035.567-.078.652-.099.085-.021.893-.255.907-.929.007-.184.05-.255.057-.213.071.398-.149.844-.517 1.085-.319.213-.667.376-.95.461-.348.106-.752.078-1.078.092-.737.043-1.418-.099-1.992-.475-.44-.283-1.057-.517-.809-1.829l.043-.035z" fill="#fff" fill-opacity=".3"/><path d="M23.61 18.433c-.035.085.022.177.128.198.107.021.22-.035.255-.12.036-.085-.021-.178-.127-.199-.107-.028-.22.028-.256.121zM25.099 18.44c-.036.085.021.178.127.199.107.021.22-.036.256-.121.035-.085-.022-.177-.128-.198-.106-.028-.22.028-.255.12zM22.555 18.078c-.036.085.021.177.134.199.107.021.22-.036.256-.121.035-.085-.022-.177-.128-.198-.114-.022-.234.035-.262.12z" fill="#ff725c"/><path d="M25.268 16.995c.071-1.596 1.624-2.893 3.68-4.02l.17.106.121.064c-1.191.68-2.12 1.51-2.673 2.545-1.227 1.794-.525 3.715 1.567 4.275 1.751.468 4.232-.255 6.012-1.538l.212.227c-.489.333-1.02.645-1.581.907-.886.425-3.027.83-3.126.879l-.553-.014c-2.226-.057-3.907-1.716-3.829-3.431z" fill="#b61e00"/><path d="M29.904 20.421c-.071-.036-.156-.029-.255.021.064.042.149.035.255-.021zM30.082 20.411c-.028-.042-.078-.035-.142.008l.142-.008z" fill="#cec2bf"/><path d="M26.566 15.69c.553-1.042 1.481-1.865 2.672-2.545.142.078.27.156.397.248l.156.12.284.241c.376.326.787.638 1.127.986.192.198.383.404.553.617l.057.07.043.057.234.326c.276.397.553.809.85 1.199.376.489.773.95 1.191 1.41l.015.015c-1.78 1.283-4.261 2.006-6.013 1.538-2.091-.567-2.793-2.488-1.566-4.282z" fill="#f46c4a"/><path d="M27.091 15.711c-.787 1.588-.475 2.751.787 3.552.134.085 3.708-.092 3.892-.44.333-.645-.617-1.425-.298-2.07.085-.163-.432.305-1.156.199-.864-.135-.794-.546-.999-.766-.05-.05.057-.206.092-.312l.149-.092c.227-.064.496.049.673-.163.185-.22-.071-.326-.177-.461-.262-.326-.553-.638-.844-.95-.205-.227-.482-.17-.829.12-.525.433-.9.908-1.29 1.383zM32.514 16.42l.419.581c.276.362.567.709.872 1.05-.227.134-.404.212-.489.234-.582.148-.433-1.362-1.007-1.255-.142.028.035-.312.205-.61zM31.203 14.733l.227.241c-.305.283-.355.056-.475-.114l-.27-.447-.12-.255c.227.184.446.376.638.575z" fill="#b61e00"/><path d="M31.67 16.415c-.071.063-.234.078-.284.156l-.049.311-.185.575c-.042.127-.283.496-.475.34-.198-.163-.106-.482-.234-.673-.177.028-.971 1.425-.595-.057-.156-.036-.411.149-.567.085-.213-.099.106-.525-.05-.688-.191-.198-.567-.581-.525-.624.135-.113.468.121.582.092.12-.035.212-.517.12-.73l.709.376c.199-.014.369-.057.383-.262.17.12.355.283.475.475l.695.624zM31.378 14.916l.376.433.057.07.042.057.234.326c.241.341.475.688.724 1.028-.128-.049-.334-.269-.433-.255-.099.014-.12.092-.255-.042-.192-.192-.206-.596-.376-.873l-.454-.531.085-.213z" fill="#f46c4a"/><path d="M28.274 15.371c-.163-.035-.283-.085-.234-.241.05-.142.185-.142.341-.106.163.028.418.205.404.269-.015.071-.341.121-.511.078zM28.671 14.755c-.099-.092-.163-.163-.021-.185.127-.021.227.043.326.128s.184.263.134.27c-.056.021-.34-.121-.439-.213zM27.996 16.103c-.177-.007-.319-.036-.305-.22.007-.17.149-.192.319-.192.17.007.475.149.482.213 0 .085-.312.213-.496.199zM27.869 16.853c-.191.043-.347.064-.411-.163-.057-.199.078-.269.256-.312.177-.042.545.028.574.106.035.078-.227.319-.419.369z" fill="#f4c34a"/><path d="M15.626 20.673c1.496.284 3.084.242 4.29-.241 1.659-.666 2.325-1.765 1.843-3.14l-.184-.404-.071-.086c-.773-.907-1.9-1.559-3.566-1.822-2.071-.326-3.957-.319-5.07.695-1.106 1.007-1.162 2.786.092 3.843l.312.262c.093.014 1.574.745 2.354.893zm3.673-.397c-2.198.823-5.573.064-6.601-1.481-.865-1.298-.085-2.794 1.737-3.325 1.099-.433 2.311-.475 3.602-.256 1.765.298 3.176 1.262 3.445 2.361.277 1.142-.581 2.205-2.183 2.701z" fill="#b61e00"/><path d="M13.435 19.888c-.014-.057-.07-.086-.155-.107.014.05.063.092.155.107zM21.512 16.797l.078.092-.078-.092zM13.55 19.958l-.085-.063.085.063z" fill="#cec2bf"/><path d="M14.428 15.471c1.099-.432 2.312-.475 3.602-.255 1.765.298 3.176 1.262 3.446 2.361.283 1.141-.575 2.205-2.177 2.701-2.198.822-5.572.064-6.601-1.482-.864-1.304-.085-2.793 1.73-3.325z" fill="#f46c4a"/><path d="M14.726 15.726c-1.432.602-1.978 1.46-1.737 2.524.028.113 2.198 1.645 2.517 1.517.588-.241.525-1.149 1.106-1.397.149-.064-.44-.014-.787-.411-.418-.475-.121-.695-.106-.922.007-.056.155-.099.248-.149l.141.007c.171.064.263.256.49.213.241-.049.163-.234.184-.361.05-.319.071-.645.099-.965.022-.233-.177-.326-.553-.304-.581.021-1.092.134-1.602.248zM17.605 16.583l-.121.397c-.042.184-.191.369.404.255l.192.326c.12.057-.319.837-.27.95 0 .007-1.056.334-.893.411.397.199-.624 1.05-.191 1.227.319.135 2.786.425 4.012-1.404.192-.29.27-.51.227-.787-.134-.943-.794-1.708-2.233-2.205-.503-.177-.723-.113-.858.206l-.269.624z" fill="#b61e00"/><path d="M16.937 18.25l-.262-.036-.22.17-.461.27c-.099.057-.468.17-.482-.014-.014-.192.234-.341.284-.518-.121-.064-1.44.426-.305-.312-.071-.092-.333-.099-.376-.205-.064-.156.383-.27.397-.447.014-.206.028-.617.085-.617.149-.007.192.291.284.326.092.036.439-.212.517-.383l.178.553c.12.086.248.135.382.015.022.148.029.333-.021.51v.688zM17.505 17.3c.348-.106.376-.39.61-.56.092.022-.035.199-.035.305.007.17.127.135.205.184.064.043.092.149.199.128.106-.021.177-.135.262-.071-.057.248-.213.411-.361.468-.128.05-.305.078-.291.355.014.255.262.127.376.198.134.085.156.326-.078.362-.057.007-.291-.064-.362.056-.085.156.078.156.106.227.05.156-.056.49-.205.589-.22.149-.192-.078-.234-.263-.071-.276-.149-.191-.326-.212-.1-.014-.05-.341-.135-.39-.064-.036-.128 0-.121-.142.008-.206.249-.454.327-.702l.063-.532z" fill="#f46c4a"/><path d="M19.03 16.735c.12-.049.212-.092.148-.22-.056-.113-.156-.092-.276-.049-.121.042-.298.213-.277.255.022.05.284.057.405.014zM18.653 16.274c.064-.085.107-.149-.007-.149-.099 0-.17.057-.234.135-.071.078-.106.227-.064.234.036 0 .234-.142.305-.22zM19.342 17.294c.135-.021.241-.056.206-.205-.029-.135-.135-.142-.27-.121-.134.021-.347.163-.34.22.007.064.262.135.404.106zM19.533 17.89c.156.022.277.014.298-.17.014-.17-.092-.206-.234-.227-.142-.021-.411.078-.426.142-.021.064.213.234.362.255zM19.206 18.699c.163.057.305.078.369-.149.057-.206-.057-.277-.206-.326-.148-.05-.46.007-.496.085-.035.078.17.333.333.39zM18.619 19.663c.163.085.319.128.482-.17.149-.262.042-.362-.121-.426-.149-.063-.517.008-.574.1-.064.092.057.411.213.496zM15.619 16.066c-.071-.099-.114-.184.014-.255.12-.064.191 0 .262.092.071.092.114.319.064.347-.05.029-.269-.085-.34-.184zM16.222 15.869c0-.099.007-.17.1-.12.085.049.106.134.113.227.007.099-.057.241-.092.226-.036-.014-.114-.233-.121-.333zM15.002 16.377c-.099-.085-.163-.163-.043-.277.114-.099.206-.049.298.029.099.078.184.305.149.347-.043.057-.305-.007-.404-.099zM14.471 16.776c-.135-.057-.241-.121-.135-.291.093-.149.213-.128.341-.071.127.057.297.269.269.326-.035.071-.333.092-.475.036zM14.237 17.612c-.17-.036-.298-.086-.213-.305.078-.199.22-.199.376-.17.156.028.376.233.354.311-.014.086-.347.192-.517.164zM14.116 18.697c-.191-.007-.34-.05-.298-.376.043-.291.192-.319.369-.298.17.021.425.262.418.362-.007.12-.304.326-.489.312z" fill="#f4c34a"/><path d="M32.43 29.437c.248.872.73 1.638 1.382 2.071.844.56 1.716.581 2.56.056l.248-.177.05-.05c.51-.574.801-1.29.716-2.24-.121-1.312-.511-2.559-1.659-3.006-1.206-.461-2.794.135-3.255 1.375l-.106.291c.007.057-.071 1.191.064 1.68zm1.34 1.752c-1.191-.851-1.702-2.978-.787-4.155.837-1.071 2.389-1.028 3.297.071.602.574.872 1.304.936 2.105.085 1-.369 1.915-1.092 2.305-.723.389-1.631.269-2.354-.326z" fill="#b61e00"/><path d="M36.67 31.336l-.05.058.05-.058z" fill="#cec2bf"/><path d="M36.281 27.106c.602.574.872 1.304.935 2.106.085.999-.368 1.914-1.091 2.304-.724.39-1.631.269-2.361-.319-1.192-.851-1.702-2.978-.787-4.155.843-1.078 2.389-1.028 3.304.064z" fill="#f46c4a"/><path d="M36.13 27.381c-.872-.773-1.758-.858-2.595-.333-.085.056-.638 1.907-.446 2.048.354.263 1.042-.035 1.382.22.085.064-.106-.248.113-.567.27-.39.518-.284.709-.34.043-.014.121.064.178.099l.028.085c-.014.121-.142.227-.05.347.093.121.22.022.319 0 .263-.063.518-.148.78-.226.192-.057.22-.199.135-.419-.142-.333-.347-.617-.553-.914zM36.074 29.36l-.334.049c-.148.029-.326 0-.106.291l-.198.192c-.015.078-.702.063-.766.12 0 0-.518-.468-.539-.362-.042.27-.964-.042-.971.242-.007.205.454 1.474 2.013 1.581.241.014.411-.008.589-.086.638-.304 1.063-.801 1.17-1.652.042-.318-.05-.418-.319-.404l-.539.029z" fill="#b61e00"/><path d="M34.642 29.465l-.036-.156-.184-.078-.326-.185c-.071-.042-.263-.219-.121-.283.142-.064.333.035.482.014.014-.092-.744-.744.163-.276l.064-.291c.114-.085.319.149.461.106.17-.056.503-.17.518-.142.042.086-.185.206-.192.27-.007.064.277.198.426.191l-.397.27c-.036.092-.05.177.077.219-.106.057-.248.114-.397.135l-.538.206zM35.507 29.508c.156.156.383.092.553.17.007.05-.156.035-.241.064-.127.049-.071.106-.092.156-.021.049-.092.085-.049.135.042.049.134.049.106.113-.192.035-.348 0-.426-.057-.063-.049-.127-.134-.326-.056-.184.077-.035.17-.063.24-.029.093-.199.164-.284.057-.021-.028-.021-.163-.128-.163-.141 0-.092.085-.141.114-.1.063-.369.099-.483.056-.17-.071.008-.12.128-.191.184-.106.099-.128.071-.227l.255-.177c.014-.043-.035-.064.078-.107.156-.049.404.007.61-.021l.432-.106z" fill="#f46c4a"/><path d="M36.257 30.154c.057.049.113.078.191.014.071-.057.043-.106-.014-.156-.057-.05-.213-.092-.248-.071-.036.029.007.163.071.213zM36.527 29.835c.071.015.128.015.113-.042-.021-.057-.078-.071-.148-.085-.071-.014-.192.007-.192.028.007.021.149.085.227.099zM35.904 30.452c.043.056.092.099.192.049.092-.049.077-.106.035-.163-.043-.064-.191-.127-.234-.113-.035.021-.035.163.007.227zM35.512 30.699c.022.078.05.135.185.1.127-.036.127-.1.113-.171-.014-.07-.142-.184-.191-.17-.05.007-.121.163-.107.241zM34.861 30.75c0 .092.014.163.191.135.156-.022.184-.1.184-.185 0-.085-.106-.219-.17-.219-.064.007-.198.177-.205.269zM34.031 30.714c-.021.099-.007.184.241.192.227.007.262-.071.277-.163.007-.093-.128-.249-.213-.256-.085-.014-.284.128-.305.227zM36.053 28.055c.064-.071.12-.128.213-.071.078.05.042.121-.015.192-.056.07-.234.163-.269.148-.043-.021.007-.191.071-.269zM36.344 28.367c.078-.035.142-.049.121.021-.022.064-.085.1-.163.135-.078.036-.206.043-.199.014.007-.028.163-.134.241-.17zM35.65 27.77c.05-.093.099-.157.22-.114.106.043.085.114.042.199-.042.085-.205.212-.255.198-.049-.007-.057-.191-.007-.283zM35.189 27.559c.014-.106.042-.199.205-.184.149.014.156.099.142.198-.014.099-.149.277-.206.277-.056 0-.148-.185-.141-.291zM34.437 27.679c-.021-.121-.014-.22.192-.234.184-.014.227.078.241.191.014.114-.092.319-.163.326-.071.007-.248-.17-.27-.283zM33.515 27.948c-.05-.12-.064-.234.22-.312.255-.071.319.021.354.142.029.113-.085.347-.177.376-.099.035-.354-.093-.397-.206z" fill="#f4c34a"/><path d="M21.178 18.028c-.049-.099-.078-.291.036-.369.113-.078.205-.113.34-.134.241-.043.206-.149.341-.277.425-.397 1.169.014 1.524-.446l.064-.043.014-.043c.042-.099.177-.035.184.05.05.44.213.518.433.851.127.198.312.312.297.567-.056.723-.957-.262-1.056.482-.035.277.163.631-.191.752-.192.064-.355-.128-.44-.263-.184-.283-.369.029-.489.206l-.177.142-.036.049-.135.1c-.078.028-.141-.043-.149-.114v-.014l-.077-.078c-.156-.17-.206-.326-.44-.418-.142-.057-.17-.1-.248-.22-.284-.39.376-.433.205-.78z" fill="#a7ad05"/><path d="M22.73 17.596c.114 0-.113.212 0 .326.376.34.482.588.617.744-.035.277.163.631-.191.752-.192.064-.355-.128-.44-.262-.184-.284-.368.028-.489.205l-.177.142-.036.049-.134.1c-.078.028-.142-.043-.149-.114v-.014l-.078-.078c-.156-.17-.206-.326-.44-.418-.142-.057-.17-.099-.248-.22-.121-.184-.05-.291.05-.383.588-.269.815-.446 1.715-.829z" fill="#858304"/><path d="M33.466 25.686c.092-.362.574-.908.503-1.227l.206.014c-.064-.021 1.148-.46 1.318-.177.071.128-.064.305-.12.404-.206.376.645.319.73.376.099.064.248.291.17.418-.057.085-.17.199-.149.249.085.148.114.375.135.545.106.766-.737.256-1.17.142-.156.114-.418.199-.539.213-.092.007-.227.042-.305-.035l-.085-.135c-.099-.156-.007-.255-.156-.362-.234-.184-.631-.071-.538-.425z" fill="#ab9505"/><path d="M33.467 25.687c.071-.291.432-.787.524-1.099.043.113.227.269.291.333.34.255 1.177.277 1.177.66-.043.276-.035.694-.014.978l-.348-.121c-.156.114-.418.199-.538.213-.093.007-.227.043-.305-.035l-.085-.135c-.1-.156-.007-.255-.156-.362-.241-.191-.638-.078-.546-.432z" fill="#857404"/><path d="M31.819 19.397s1.694.092 2.318.779c.624.688.681 1.404.44 2.106-.241.702-.808.872-1.404 1.085-1.007.368-2.063-.021-2.765-.411-.695-.383-.709-1.05-.709-1.05s-.127-.851.106-1.411c.234-.574.546-1.049 2.014-1.098z" fill="#ff8e85"/><path d="M31.054 21.055c-.035.106.014.206.113.227.1.021.206-.043.242-.149.035-.106-.015-.206-.114-.227-.092-.021-.205.05-.241.149zM32.104 21.452c-.029.092.021.184.12.206.1.021.199-.036.227-.121.028-.092-.021-.184-.12-.205-.093-.029-.192.028-.227.12zM32.947 20.885c-.022.064.028.135.106.149.078.021.163-.021.184-.085.022-.064-.028-.135-.106-.149-.078-.014-.163.021-.184.085zM32.796 22.78c-.035.106.014.205.114.227.099.021.205-.043.241-.149.035-.106-.014-.206-.114-.227-.099-.021-.205.043-.241.149zM33.577 21.837c-.029.078.021.163.106.184.085.021.177-.028.206-.113.028-.078-.022-.164-.107-.185-.085-.014-.177.036-.205.114zM31.302 22.573c-.015.049.035.113.127.127.085.022.17-.007.192-.056.014-.05-.036-.114-.128-.128-.092-.021-.177 0-.191.057zM30.352 20.424c-.022.057.035.121.12.142.085.021.17-.014.192-.071.021-.057-.036-.12-.121-.142-.085-.014-.17.014-.191.071z" fill="#ff725c"/><path d="M29.827 20.842c.057.341.028.795.149 1.036.099.198.276.276.418.389.376.327.773.525 1.227.639.219.056.687.028 1.134-.022l.092.085c.057.036.121.043.213-.021l.092-.113c.284-.043.51-.078.588-.1.078-.021.802-.262.816-.957.007-.191.042-.262.049-.212.064.404-.134.864-.468 1.12-.29.22-.602.39-.857.475-.312.106-.681.078-.972.099-.666.043-1.276-.106-1.793-.489-.397-.291-.95-.532-.724-1.886l.036-.043z" fill="#fff" fill-opacity=".3"/><path d="M32.215 20.383c-.028.092.021.184.121.205.099.022.198-.035.226-.12.029-.092-.021-.184-.12-.206-.092-.021-.192.036-.227.121zM33.563 20.391c-.029.092.021.184.12.205.099.022.199-.035.227-.12.028-.092-.021-.185-.121-.206-.092-.021-.198.036-.226.121zM31.266 20.028c-.029.092.021.185.12.206.1.021.199-.036.227-.121.029-.092-.021-.184-.12-.205-.092-.029-.199.028-.227.12z" fill="#ff725c"/><path d="M25.397 22.24c.064-.276 1.163-2.184.071-1.737-.283.113-.432.503-.709.631-.269.128-.588 0-.851-.057-.404-.085-.652-.014-.957.27-.312.29-.397.269-.815.283-.241.007-.851.149-.815.497.042.418 1.574.468 1.963.567.185.049.39.113.518.248l1.595-.702z" fill="#f7bd25"/><path d="M10.544 12.102c.9 0 2.829 1.758.907 1.865-.695.035-1.326-.121-1.914.361-.603.497-1.248-.482-1.872-.666-.198-.057-1.652.049-1.482-.404.142-.39 1.014-.411 1.319-.688.702-.617 2.134-.447 3.042-.468zM17.726 10.306c.319.277 1.9 1.34.758 1.539-.425.078-.886-.086-1.318-.064-.674.028-.787.475-1.319.723-.369.17-.745-.213-.929-.475-.446-.624.418-1.22.879-1.546.674-.489 1.163-.297 1.929-.177zM24.014 9.691c.603.404.206 1.077-.468.886-.34-.099-1.815.007-1.9-.319-.184-.681 1.106-.872 1.446-1.014.249-.099.688.305.922.447z" fill="#f7c16f"/><path d="M18.371 15.193c-.348-.305-.61.085-.61.085s-.425.22-.071.524c.348.305.979.256.979.256s.056-.56-.298-.865z" fill="#6da800"/><path d="M18.66 16.051c-.057-.099-.433-.744-.894-.787.05-.064.291-.347.603-.071.347.298.298.844.291.858z" fill="#88bd26"/><path d="M17.74 15.286l.022-.014.028-.036c.085.029.284.093.468.249.12.099.135.17.135.17-.227-.241-.553-.348-.653-.369z" fill="#558200"/><path d="M17.712 15.307c-.071.149-.092.468.759.751-.213-.007-.553-.057-.78-.255-.277-.248-.078-.433.021-.496z" fill="#5c8c00"/><path d="M32.705 25.861c-1.035-.95-1.886-.78-1.886-.78s-1.326-.319-.283.631c1.042.943 2.963 1.786 2.963 1.786s.241-.687-.794-1.637z" fill="#6da800"/><path d="M33.499 27.499c-.163-.226-1.233-1.687-2.651-2.424.149-.022.928-.064 1.857.787 1.028.936.801 1.623.794 1.637z" fill="#88bd26"/><path d="M30.763 25.066l.063.015.085-.007c.256.163.851.545 1.397 1.035.362.326.397.439.397.439-.659-.68-1.645-1.304-1.942-1.482z" fill="#558200"/><path d="M30.677 25.046c-.241.107-.34.518 2.233 2.17-.652-.326-1.694-.901-2.368-1.51-.815-.745-.184-.709.135-.66z" fill="#5c8c00"/><path d="M30.43 18.675c-.517-.475-.936-.39-.936-.39s-.659-.156-.141.312c.517.475 1.474.893 1.474.893s.114-.347-.397-.815z" fill="#6da800"/><path d="M30.82 19.49c-.078-.114-.61-.837-1.319-1.206.071-.007.461-.035.922.39.51.461.404.802.397.816z" fill="#88bd26"/><path d="M29.458 18.277l.028.007.043-.007c.127.085.425.27.694.511.185.163.199.22.199.22-.319-.334-.815-.646-.964-.731z" fill="#558200"/><path d="M29.416 18.271c-.12.049-.17.255 1.113 1.077-.326-.163-.843-.446-1.177-.751-.411-.369-.092-.355.064-.326z" fill="#5c8c00"/><path d="M24.354 12.393s1.702.085 2.318.68c.624.603.681 1.227.44 1.843-.241.617-.808.759-1.404.951-1.006.319-2.063-.015-2.765-.362-.695-.34-.709-.915-.709-.915s-.127-.744.107-1.233c.234-.496.546-.915 2.013-.964z" fill="#ff8e85"/><path d="M23.589 13.853c-.035.092.014.177.114.198.099.022.205-.035.241-.127.035-.092-.014-.178-.114-.199-.092-.021-.205.036-.241.128zM24.637 14.193c-.028.078.021.156.12.178.1.021.199-.029.227-.107.029-.078-.021-.163-.12-.177-.092-.021-.192.028-.227.106zM25.474 13.704c-.021.057.028.114.106.135.078.014.163-.014.185-.071.021-.057-.029-.113-.107-.135-.078-.021-.156.014-.184.071zM25.333 15.357c-.035.092.015.177.114.198.099.021.205-.035.241-.127.035-.093-.014-.178-.114-.199-.099-.021-.205.036-.241.128zM26.112 14.534c-.029.071.021.141.106.163.085.014.177-.029.206-.1.028-.07-.022-.141-.107-.163-.085-.014-.177.029-.205.1zM23.829 15.173c-.014.043.035.099.128.114.085.014.17-.007.191-.05.014-.043-.035-.099-.128-.113-.085-.015-.17.007-.191.049zM22.603 14.051c-.043.1 0 .199.092.22.092.022.191-.049.234-.149.042-.099 0-.198-.092-.219-.093-.022-.199.042-.234.148zM22.887 13.302c-.022.05.035.106.12.127.085.015.17-.007.192-.063.021-.05-.036-.107-.121-.128-.085-.014-.177.014-.191.064z" fill="#ff725c"/><path d="M22.362 13.669c.057.298.028.695.149.907.099.178.276.241.418.341.376.283.773.46 1.227.56.219.049.687.021 1.134-.022l.092.071c.057.036.121.036.213-.021l.092-.099.589-.085c.078-.022.801-.234.815-.837.007-.17.042-.227.05-.191.063.354-.135.758-.468.978-.291.192-.603.34-.858.418-.312.1-.681.071-.972.085-.666.043-1.276-.092-1.793-.425-.397-.255-.95-.468-.723-1.652l.035-.028z" fill="#fff" fill-opacity=".3"/><path d="M24.752 13.264c-.028.078.021.156.121.177.099.022.198-.028.227-.106.028-.078-.022-.163-.121-.177-.092-.021-.191.021-.227.106zM26.092 13.273c-.028.078.021.156.12.177.1.021.199-.029.227-.106.029-.078-.021-.164-.12-.178-.092-.028-.192.022-.227.107zM23.801 12.947c-.028.078.021.156.121.178.099.021.198-.029.226-.107.029-.078-.021-.163-.12-.177-.092-.021-.199.028-.227.106z" fill="#ff725c"/><path d="M27.021 14.108c-.021.113-.113.276-.248.276-.135-.007-.234-.028-.354-.092-.22-.113-.256 0-.44.021-.581.071-.929-.702-1.496-.546h-.078l-.036.029c-.092.056-.163-.078-.12-.149.22-.383.135-.546.163-.943.014-.234-.071-.433.099-.631.475-.553.61.78 1.135.241.198-.206.241-.61.602-.489.192.064.206.312.199.475-.021.333.319.198.517.12l.227-.007.064-.021h.17c.078.028.092.12.05.177l-.007.007.014.107c.028.227-.028.383.106.602.078.128.078.178.071.326-.014.483-.574.121-.638.497z" fill="#858304"/><path d="M25.511 13.541c-.092-.071.22-.1.191-.263-.106-.496-.042-.758-.056-.964.198-.206.241-.61.602-.489.192.064.206.312.199.475-.021.333.319.198.517.12l.227-.007.064-.021h.17c.078.028.092.12.05.177l-.007.007.014.107c.028.227-.028.383.106.602.078.128.078.178.071.326-.007.22-.134.263-.269.277-.645-.128-.929-.121-1.879-.347z" fill="#a7ad05"/><path d="M18.64 13.74c-.624-.064-.737.305-.737.305s-.425.319.198.383c.624.063 1.397-.227 1.397-.227s-.234-.397-.858-.461z" fill="#6da800"/><path d="M19.498 14.208c-.128-.05-.971-.334-1.595-.17.028-.064.177-.355.737-.298.617.064.858.454.858.468z" fill="#88bd26"/><path d="M17.882 14.066l.021-.014.014-.036c.128-.014.418-.049.737-.021.213.021.27.057.27.057-.426-.078-.901-.014-1.042.014z" fill="#558200"/><path d="M17.861 14.086c-.007.135.142.354 1.397.199-.277.077-.745.191-1.149.148-.496-.049-.34-.262-.248-.347z" fill="#5c8c00"/><path d="M27.602 15.378c-.135 1.503-2.858 1.028-2.39-.319.008-.007 2.503-.879 2.39.319zm-1.198.44c.801 0 .666-1.092-.078-.972-.695.107-.638.972.078.972z" fill="#171626"/><path d="M25.205 15.365c.029-.134.092-.262.192-.368l.212-.178.057-.035.149-.071c.142-.057.298-.099.468-.106l.12-.007h.071c.163.007.326.035.468.092l.014.007.256.127c.099.064.177.135.241.22l.113.206.036.128c-.029.163-.114.311-.242.432l-.163.128-.099.056c-.085.043-.184.085-.29.107-.128.035-.263.049-.405.049-.205 0-.397-.035-.567-.106-.127-.05-.241-.121-.34-.199-.092-.078-.163-.163-.213-.255l-.078-.22v-.007zm.752.333c.099.1.262.157.439.157l.163-.015c.234-.049.397-.205.397-.397l-.021-.113c-.042-.114-.149-.206-.291-.255l-.085-.029-.063-.014-.1-.007c-.205 0-.39.085-.482.206l-.056.099-.008.021-.014.092c0 .093.05.185.121.255z" fill="#231c7e"/><path d="M25.27 14.945l.12-.17.1-.1.113-.085.057-.035.092-.05.241-.085.283-.05.121-.007h.092c.206.015.404.064.567.142l.149.085.213.185c.064.077.113.156.149.241l.042.219v.014l-.007.114c-.028.163-.113.312-.241.432l-.163.128-.099.057c-.085.042-.184.085-.291.106-.127.036-.262.05-.404.05-.205 0-.397-.036-.567-.107-.128-.049-.241-.12-.34-.198-.093-.078-.163-.163-.213-.255l-.078-.22v-.014l-.007-.093c-.007-.092.021-.205.071-.304zm1.127.737h.043c.241-.014.432-.135.496-.298l.021-.113c0-.107-.057-.206-.142-.277l-.149-.085-.014-.007-.085-.021-.078-.014-.092-.007c-.206 0-.39.085-.482.205l-.007.014-.007.015-.043.085-.014.092.021.113v.007c.043.114.156.206.298.256l.234.035z" fill="#626570"/><path d="M35.166 23.004c-.014-.383-.191-.503-.695-.517-.432-.008-.496.269-.851.46-.375.206-.432.022-.765-.149-.319-.163-.816-.184-1.17-.106-.744.156-1.184.78-1.29.971-.199.362.794-.007 1.077.1.248.099.794.368 1.05.354.29-.014.453-.305.673-.468.326-.241 1.219-.312 1.531-.064l.44-.581z" fill="#f7bd25"/><path d="M33.45 24.43c-.206 2.29-4.346 1.567-3.63-.489 0 0 3.793-1.333 3.63.489zm-1.822.674c1.219 0 1.014-1.659-.121-1.482-1.056.163-.978 1.482.121 1.482zM29.799 24.415c.035-.205.141-.397.29-.56.092-.099.199-.191.326-.269l.085-.05.22-.106c.213-.085.454-.149.709-.163l.184-.007h.107c.255.007.489.057.709.135l.021.007c.142.049.269.12.39.198.149.092.269.206.369.333.078.1.134.206.177.312l.05.192c-.043.248-.171.468-.369.659l-.255.199-.149.085c-.135.071-.284.127-.44.163-.191.049-.397.078-.617.078-.312 0-.609-.057-.865-.163-.198-.078-.368-.178-.51-.298-.135-.114-.248-.241-.326-.39-.057-.106-.099-.22-.121-.333l.015-.022zm1.148.504c.156.149.397.241.674.241l.241-.028c.354-.078.609-.32.609-.603l-.028-.17c-.064-.17-.227-.312-.44-.39l-.134-.043-.093-.014-.155-.007c-.312 0-.589.128-.738.312l-.085.149-.014.028-.021.135c0 .149.064.283.184.39z" fill="#171626"/><path d="M29.897 23.779l.007-.008.17-.241.156-.148.177-.128.085-.05.135-.071c.113-.049.234-.099.361-.127.135-.036.284-.064.433-.071l.184-.007h.128c.319.014.61.092.865.212l.227.128c.12.078.234.177.326.277.099.113.177.241.227.368.042.107.063.22.063.333v.022l-.014.17c-.042.248-.17.468-.368.659l-.256.199-.149.085c-.134.071-.283.127-.439.163-.192.05-.397.078-.617.078-.312 0-.61-.057-.865-.163-.198-.078-.369-.177-.51-.298-.135-.113-.248-.241-.326-.39-.057-.106-.1-.22-.121-.333l-.007-.021-.007-.142c.014-.177.057-.348.135-.496zm1.715 1.12h.064c.362-.022.659-.206.759-.454l.028-.17c0-.163-.085-.305-.22-.418-.064-.057-.142-.1-.227-.135l-.021-.007-.127-.036-.121-.021-.135-.007c-.312 0-.588.128-.737.312l-.014.021-.014.021-.064.135-.021.142.028.17.007.014c.071.17.234.312.454.39.106.021.234.043.361.043z" fill="#626570"/><path d="M22.348 19.221c-.22 2.467-4.679 1.687-3.907-.525 0-.007 4.084-1.439 3.907.525zm-1.964.723c1.312 0 1.092-1.787-.135-1.595-1.134.177-1.042 1.595.135 1.595zM18.413 19.198c.043-.219.149-.425.312-.602.1-.107.22-.206.355-.291l.092-.057.241-.12c.234-.092.489-.156.766-.178l.198-.007h.114c.269.015.531.064.758.149l.021.007c.157.057.291.128.419.213.156.106.291.227.397.362.085.106.149.219.191.34l.057.206c-.043.262-.184.51-.397.709-.078.078-.17.148-.269.212l-.163.092c-.142.078-.305.135-.475.178-.206.056-.426.085-.66.085-.34 0-.652-.064-.936-.17-.212-.085-.397-.192-.553-.327-.149-.12-.262-.262-.347-.418-.064-.113-.107-.234-.128-.361l.007-.022zm1.234.546c.17.156.425.255.723.255l.262-.028c.376-.085.653-.34.653-.645l-.036-.184c-.071-.185-.241-.341-.475-.426l-.142-.042-.099-.022-.17-.014c-.34 0-.631.135-.794.333l-.092.156-.014.036-.022.149c.015.17.085.312.206.432z" fill="#171626"/><path d="M18.527 18.517l.007-.014c.05-.092.113-.184.184-.262l.163-.163.192-.142.092-.057.149-.078c.12-.057.255-.106.39-.142.149-.035.305-.063.461-.078l.198-.007h.142c.34.014.659.1.929.227l.241.135c.134.085.248.191.347.298.106.12.192.255.241.397.043.113.071.234.071.361v.028l-.014.185c-.043.262-.184.51-.397.709-.078.078-.17.149-.27.213l-.163.092c-.141.078-.305.134-.475.177-.205.057-.425.085-.659.085-.34 0-.652-.064-.936-.17-.213-.085-.397-.191-.553-.326-.149-.121-.262-.263-.347-.418-.064-.114-.107-.234-.128-.362l-.007-.028-.014-.157c.021-.162.071-.34.156-.503zm1.843 1.198h.071c.39-.021.709-.219.815-.489l.036-.184c0-.17-.085-.333-.234-.454-.071-.057-.156-.106-.248-.142l-.022-.007-.134-.042-.135-.022-.149-.007c-.34 0-.638.135-.794.334l-.014.021-.014.028-.071.142-.021.149.035.184.007.014c.078.185.255.334.482.419.121.035.248.056.39.056z" fill="#626570"/><path d="M19.916 14.371s.943-1.29 2.758-1.148c0 0 .758.014 2.183.532 0 0-.786-.674-2.396-.702 0 0-2.396.049-2.566 1.318h.021zM19.881 14.173c0 .107.014.206.063.298l.071.177.05.064c0 .539 1.205 1.12 2.687 1.12 1.482 0 2.673-.574 2.673-1.12 0-.092-.036-.184-.107-.277-.056-.269-.269-.574-.432-.673l-.057-.035c.716.184 1.007.659 1.007 1.028 0 .709-1.368 1.488-3.013 1.524-1.454.028-3.261-.737-3.184-1.56.015-.17.086-.361.242-.546z" fill="#c97575"/><path d="M25.665 14.563c.057.049.035.241.014.311l-.085.199-.064-.078c-.05.035-.064.106-.142.099-.014.057-.049.121-.113.107 0 .063-.021.113-.092.099.021.128-.057.064-.107.099-.049.029-.056.135-.141.057l-.086.099-.056.007-.064.057-.106.007-.135.035-.135.029-.191.028c-.078.014-.185.177-.263.071l-.056.114-.114-.036-.113.057-.142-.036-.227.085-.092-.056-.128.127c-.056-.064-.014-.141-.106-.071l-.106.114-.078-.092-.064.085c-.007-.043-.021-.114-.071-.135-.078-.028-.114.057-.17.092h-.128l-.127.107-.085-.142c-.05-.022-.086.049-.121.078-.014-.05-.035-.163-.099-.17l-.099.078c-.036-.064-.086-.128-.171-.121l-.156.106c-.028-.07-.071-.092-.134-.106l-.17-.042-.071-.015-.064-.071c-.036-.028-.085-.063-.114.007l-.028-.141c-.043-.014-.064.042-.064.078-.049-.057-.17-.163-.22-.05-.035-.099-.134-.085-.205-.035-.05-.071-.17-.185-.255-.192l-.015.022-.12-.128v.021l-.021-.113-.078-.064c-.043-.078-.015-.199.078-.177l.163.127.219.1c.27.092.553.163.844.205l1.163.128c.319.042.631.071.95.042.269-.021.546.007.808-.057.199-.049.44-.127.624-.205.248-.113.496-.241.723-.39.121-.078.213-.177.199-.333l.007-.021z" fill="#e3c2f2"/><path d="M22.674 12.946c1.453.085 3.062.68 3.062 1.389s-1.644 1.461-3.105 1.461c-1.453 0-3.034-.681-3.034-1.39 0-.716 1.191-1.574 3.077-1.46zm-.1 2.495c1.482 0 2.673-.574 2.673-1.12 0-.539-1.347-1.255-2.829-1.255-1.481 0-2.531.716-2.531 1.255 0 .546 1.213 1.12 2.687 1.12z" fill="#e6e6f2"/><path d="M23.716 21.785s1.085-1.482 3.162-1.319c0 0 .865.014 2.503.61 0 0-.9-.773-2.751-.808 0 0-2.751.056-2.942 1.517h.028zM23.681 21.559c0 .121.021.234.071.341l.078.205.057.071c0 .617 1.389 1.283 3.084 1.283 1.701 0 3.07-.666 3.07-1.283 0-.106-.043-.213-.121-.319-.064-.305-.312-.652-.496-.773l-.064-.035c.822.213 1.156.758 1.156 1.184 0 .815-1.574 1.709-3.453 1.751-1.673.036-3.743-.851-3.651-1.787.007-.205.085-.425.269-.638z" fill="#c97575"/><path d="M30.318 22.006c.071.057.043.276.021.354l-.092.227-.071-.085c-.057.036-.078.128-.163.114-.014.063-.057.134-.134.12 0 .071-.022.128-.1.114.029.148-.071.077-.127.113-.057.035-.064.156-.164.064l-.099.113-.063.007-.071.064-.121.007-.156.043-.156.028-.22.029c-.092.014-.212.205-.305.085l-.063.127-.128-.035-.128.071-.163-.043-.255.092-.099-.064-.142.149c-.064-.071-.014-.156-.12-.085l-.121.135-.092-.106-.071.099c-.014-.05-.028-.135-.085-.156-.085-.036-.128.064-.192.106h-.141l-.142.121c-.014-.036-.05-.149-.092-.163-.057-.022-.1.056-.142.092-.014-.057-.043-.185-.114-.199l-.113.085c-.042-.071-.099-.148-.198-.134l-.178.12c-.035-.078-.078-.106-.156-.12l-.191-.043-.078-.021-.071-.078c-.043-.035-.099-.078-.128.007l-.035-.156c-.05-.014-.071.05-.071.092-.057-.064-.198-.184-.248-.056-.043-.114-.156-.1-.241-.036-.057-.078-.199-.213-.298-.22l-.014.029-.142-.149v.021l-.021-.128-.085-.078c-.05-.092-.014-.226.085-.205l.191.142c.078.056.163.085.255.113.312.106.639.191.965.234l1.333.149c.361.042.723.078 1.091.05.312-.029.624.007.929-.071.227-.057.504-.142.716-.241.284-.128.575-.277.83-.447.134-.092.241-.206.227-.383l-.043-.014z" fill="#e3c2f2"/><path d="M26.886 20.148c1.666.099 3.516.78 3.516 1.595 0 .816-1.893 1.673-3.559 1.673-1.673 0-3.488-.779-3.488-1.595 0-.822 1.368-1.801 3.531-1.673zm-.114 2.864c1.702 0 3.07-.666 3.07-1.283 0-.617-1.545-1.446-3.247-1.446-1.701 0-2.907.822-2.907 1.446s1.383 1.283 3.084 1.283z" fill="#e6e6f2"/><path d="M27.375 22.421c-.95-.709-1.524-.248-1.524-.248s-1.021.078-.071.787c.95.709 2.517 1.013 2.517 1.013s.028-.843-.922-1.552z" fill="#6da800"/><path d="M28.297 23.971c-.163-.199-1.248-1.461-2.432-1.822.106-.071.652-.376 1.51.262.936.709.922 1.538.922 1.56z" fill="#88bd26"/><path d="M25.802 22.171l.05-.007.056-.035c.22.099.73.326 1.227.688.333.241.383.354.383.354-.617-.532-1.461-.9-1.716-1z" fill="#558200"/><path d="M25.738 22.186c-.148.191-.134.687 2.071 1.673-.539-.149-1.418-.44-2.028-.901-.752-.56-.284-.73-.043-.772z" fill="#5c8c00"/></svg>