<?xml version="1.0" encoding="UTF-8" standalone="no"?>
<!DOCTYPE svg PUBLIC "-//W3C//DTD SVG 1.1//EN" "http://www.w3.org/Graphics/SVG/1.1/DTD/svg11.dtd">
<svg width="100%" height="100%" viewBox="0 0 44 44" version="1.1" xmlns="http://www.w3.org/2000/svg" xmlns:xlink="http://www.w3.org/1999/xlink" xml:space="preserve" xmlns:serif="http://www.serif.com/" style="fill-rule:evenodd;clip-rule:evenodd;stroke-linejoin:round;stroke-miterlimit:2;">
    <path d="M30.116,36.224C27.299,38.416 22.513,38.505 19.517,36.806C16.521,35.062 15.447,29.963 14.821,27.593C14.195,25.223 15.224,16.234 14.866,14.176C14.508,12.119 13.703,12.03 13.703,12.03L14.732,11.627L17.013,10.375C17.639,11.314 18.444,12.209 19.293,13.058C20.859,14.579 22.558,15.831 23.81,16.591C25.689,17.754 32.621,22.048 33.694,26.699C34.096,28.488 34.096,29.963 33.739,31.26C33.649,31.529 33.56,31.797 33.47,32.065C32.889,33.72 31.637,35.017 30.116,36.224Z" style="fill:url(#_Linear1);fill-rule:nonzero;"/>
    <path d="M30.116,36.224C27.299,38.416 22.513,38.505 19.517,36.806C16.521,35.062 15.447,29.963 14.821,27.593C14.195,25.223 15.224,16.234 14.866,14.176C14.508,12.119 13.703,12.03 13.703,12.03C13.703,12.03 14.106,12.298 15.492,11.583C16.878,10.867 17.013,10.375 17.013,10.375C17.639,11.314 17.862,11.583 18.757,12.522L19.517,13.282C19.517,13.282 19.696,14.981 18.041,15.652C17.192,15.965 16.923,16.591 16.7,19.185C16.476,21.824 15.939,28.577 19.249,32.826C22.558,37.074 27.97,37.208 31.413,33.944C32.397,33.004 33.157,32.065 33.694,31.26C33.605,31.529 33.515,31.797 33.426,32.065C32.889,33.72 31.637,35.017 30.116,36.224Z" style="fill:rgb(147,88,3);fill-opacity:0.12;fill-rule:nonzero;"/>
    <path d="M30.116,36.223C27.299,38.415 22.513,38.504 19.517,36.805C16.521,35.061 15.268,30.544 14.821,27.592C14.24,23.701 15.224,16.233 14.866,14.175C14.508,12.118 13.703,12.029 13.703,12.029L14.285,11.895C14.687,12.565 15.403,13.728 15.447,15.115C15.492,17.038 14.732,24.998 15.805,29.694C16.923,34.613 19.741,37.52 23.81,37.61C28.819,37.699 31.86,35.329 33.47,32.109C32.889,33.719 31.637,35.016 30.116,36.223Z" style="fill:rgb(226,121,43);fill-rule:nonzero;"/>
    <path d="M20.767,16.904C19.47,17.396 18.799,23.97 21.393,28.8C23.987,33.63 28.951,34.122 31.277,32.959C33.602,31.752 34.094,28.04 32.574,25.535C28.772,19.274 22.064,16.412 20.767,16.904Z" style="fill:rgb(250,173,82);fill-rule:nonzero;"/>
    <path d="M27.922,21.556C27.922,21.556 29.397,22.137 31.097,24.328C32.796,26.52 32.573,27.951 32.349,28.264C32.081,28.622 31.41,28.89 31.276,28.174C31.142,27.459 31.052,26.117 30.158,24.999C29.263,23.881 27.519,22.584 27.519,22.584C27.519,22.584 26.714,22.361 27.117,21.735C27.519,21.153 27.922,21.556 27.922,21.556Z" style="fill:rgb(253,200,114);fill-rule:nonzero;"/>
    <path d="M15.714,11.448C14.372,12.208 13.925,12.074 13.925,12.074C13.925,12.074 12.941,11.492 12.002,10.777C11.689,10.553 11.331,10.285 11.063,10.017C10.303,9.39 9.766,8.72 9.945,8.362C10.392,7.512 11.734,6.528 12.315,6.305C12.404,6.26 12.449,6.26 12.494,6.26C12.852,6.26 13.299,6.573 13.299,6.573C13.299,6.573 13.388,5.947 13.657,5.768C13.657,5.768 13.701,5.723 13.746,5.723C14.238,5.5 16.206,5.052 16.877,5.365C17.592,5.723 18.174,6.26 17.995,7.154C17.995,7.244 17.95,7.333 17.95,7.423C17.861,7.915 17.682,8.407 17.592,8.764C17.503,9.033 17.458,9.167 17.458,9.167L17.19,10.151C17.19,10.151 17.056,10.732 15.714,11.448Z" style="fill:rgb(247,220,195);fill-rule:nonzero;"/>
    <path d="M13.433,10.017C12.136,10.866 11.063,10.017 11.063,10.017C10.303,9.391 9.766,8.72 9.945,8.362C10.392,7.512 11.734,6.528 12.315,6.305C12.941,6.26 13.478,6.976 13.88,7.736C14.104,8.049 14.685,9.122 13.433,10.017Z" style="fill:rgb(255,238,222);fill-rule:nonzero;"/>
    <path d="M17.948,7.422C16.607,9.703 14.594,8.317 14.594,8.317C13.074,6.662 13.432,5.857 13.745,5.678C14.237,5.455 16.204,5.007 16.875,5.321C17.591,5.678 18.172,6.215 17.993,7.109C17.993,7.199 17.993,7.288 17.948,7.422Z" style="fill:rgb(255,238,222);fill-rule:nonzero;"/>
    <path d="M13.119,7.87C13.119,7.736 12.895,7.065 12.761,6.931C12.627,6.797 12.135,6.573 11.912,6.752C11.688,6.886 10.57,7.691 10.615,7.96C10.659,8.228 11.464,9.122 11.822,9.122C12.18,9.078 13.074,8.452 13.119,7.87Z" style="fill:rgb(255,253,240);fill-rule:nonzero;"/>
    <path d="M16.653,6.036C16.653,6.036 16.25,5.589 15.848,5.544C15.445,5.455 14.417,5.678 14.238,5.812C14.059,5.946 14.014,6.438 14.059,6.617C14.104,6.796 14.641,7.512 14.819,7.512C14.998,7.512 15.669,7.422 15.937,7.288C16.206,7.154 16.564,6.796 16.653,6.573C16.742,6.349 16.787,6.215 16.653,6.036Z" style="fill:rgb(255,253,240);fill-rule:nonzero;"/>
    <path d="M15.713,11.447C14.953,11.85 14.461,11.984 14.193,12.073C14.014,12.118 13.835,12.073 13.701,11.984C13.611,11.939 13.522,11.894 13.432,11.805C13.075,11.581 12.538,11.223 12.001,10.821L11.867,10.731C11.867,10.731 13.298,11.447 14.416,10.955C15.49,10.463 16.742,9.792 17.592,8.764C17.502,9.032 17.458,9.166 17.458,9.166L17.234,10.105L17.234,10.15C17.189,10.15 17.055,10.731 15.713,11.447Z" style="fill:rgb(223,197,173);fill-rule:nonzero;"/>
    <path d="M15.714,11.447C14.954,11.85 14.418,12.029 14.149,12.073C13.97,12.118 13.836,12.073 13.702,11.984C13.613,11.939 13.523,11.895 13.434,11.805C13.478,11.85 13.881,11.984 14.149,11.939C14.462,11.895 15.178,11.626 15.893,11.224C16.609,10.821 17.145,10.24 17.235,10.15L17.235,10.195C17.19,10.15 17.056,10.732 15.714,11.447Z" style="fill:rgb(153,118,98);fill-rule:nonzero;"/>
    <path d="M25.193,25.267C24.97,25.446 24.657,25.401 24.478,25.177C24.299,24.954 24.343,24.641 24.567,24.462C24.791,24.283 25.104,24.328 25.283,24.551C25.462,24.775 25.417,25.088 25.193,25.267Z" style="fill:rgb(244,128,32);fill-opacity:0.3;fill-rule:nonzero;"/>
    <path d="M25.775,29.246C25.552,29.424 25.238,29.38 25.06,29.156C24.881,28.932 24.925,28.619 25.149,28.441C25.373,28.262 25.686,28.306 25.865,28.53C25.999,28.754 25.999,29.067 25.775,29.246Z" style="fill:rgb(244,128,32);fill-opacity:0.3;fill-rule:nonzero;"/>
    <path d="M20.721,24.058C20.497,24.237 20.184,24.192 20.005,23.969C19.826,23.745 19.871,23.432 20.094,23.253C20.318,23.074 20.631,23.119 20.81,23.342C20.989,23.566 20.944,23.879 20.721,24.058Z" style="fill:rgb(244,128,32);fill-opacity:0.3;fill-rule:nonzero;"/>
    <path d="M23.763,31.796C23.539,31.975 23.226,31.93 23.047,31.707C22.868,31.483 22.868,31.17 23.092,30.991C23.315,30.812 23.628,30.857 23.807,31.081C23.986,31.304 23.942,31.617 23.763,31.796Z" style="fill:rgb(244,128,32);fill-opacity:0.3;fill-rule:nonzero;"/>
    <path d="M22.957,26.832C22.823,26.921 22.644,26.921 22.555,26.787C22.465,26.653 22.465,26.474 22.599,26.385C22.733,26.295 22.912,26.295 23.002,26.429C23.091,26.519 23.091,26.698 22.957,26.832Z" style="fill:rgb(244,128,32);fill-opacity:0.3;fill-rule:nonzero;"/>
    <path d="M27.922,25.535C27.788,25.624 27.609,25.624 27.519,25.49C27.43,25.356 27.43,25.177 27.564,25.088C27.698,24.998 27.877,24.998 27.967,25.132C28.056,25.267 28.056,25.446 27.922,25.535Z" style="fill:rgb(244,128,32);fill-opacity:0.3;fill-rule:nonzero;"/>
    <path d="M26.359,32.332C26.225,32.421 26.046,32.421 25.957,32.287C25.867,32.153 25.867,31.974 26.002,31.885C26.136,31.795 26.315,31.795 26.404,31.929C26.538,32.019 26.494,32.242 26.359,32.332Z" style="fill:rgb(244,128,32);fill-opacity:0.3;fill-rule:nonzero;"/>
    <path d="M20.051,26.383C19.917,26.472 19.738,26.472 19.648,26.338C19.559,26.204 19.559,26.025 19.693,25.935C19.827,25.846 20.006,25.846 20.096,25.98C20.185,26.114 20.185,26.293 20.051,26.383Z" style="fill:rgb(244,128,32);fill-opacity:0.3;fill-rule:nonzero;"/>
    <path d="M19.246,22.494C19.112,22.583 18.933,22.583 18.844,22.449C18.754,22.315 18.754,22.136 18.888,22.047C19.023,21.957 19.201,21.957 19.291,22.091C19.425,22.226 19.38,22.405 19.246,22.494Z" style="fill:rgb(244,128,32);fill-opacity:0.3;fill-rule:nonzero;"/>
    <path d="M29.578,25.267C29.444,25.357 29.265,25.357 29.176,25.223C29.086,25.089 29.086,24.91 29.22,24.82C29.355,24.731 29.533,24.731 29.623,24.865C29.712,24.954 29.712,25.133 29.578,25.267Z" style="fill:rgb(244,128,32);fill-opacity:0.3;fill-rule:nonzero;"/>
    <path d="M23.81,21.152C23.587,21.331 23.274,21.286 23.095,21.062C22.916,20.839 22.961,20.526 23.184,20.347C23.408,20.168 23.721,20.212 23.9,20.436C24.079,20.66 24.034,20.973 23.81,21.152Z" style="fill:rgb(244,128,32);fill-opacity:0.3;fill-rule:nonzero;"/>
    <path d="M28.549,28.306C28.415,28.396 28.236,28.396 28.101,28.262C28.012,28.127 28.012,27.949 28.146,27.814C28.28,27.725 28.459,27.725 28.593,27.859C28.683,28.038 28.638,28.217 28.549,28.306Z" style="fill:rgb(244,128,32);fill-opacity:0.3;fill-rule:nonzero;"/>
    <path d="M26.58,21.509C26.446,21.599 26.267,21.599 26.133,21.465C26.043,21.331 26.043,21.152 26.177,21.017C26.312,20.928 26.49,20.928 26.625,21.062C26.759,21.196 26.714,21.42 26.58,21.509Z" style="fill:rgb(244,128,32);fill-opacity:0.3;fill-rule:nonzero;"/>
    <path d="M28.326,22.584C28.192,22.673 28.013,22.673 27.879,22.539C27.789,22.405 27.789,22.226 27.924,22.092C28.058,22.002 28.237,22.002 28.371,22.136C28.46,22.27 28.46,22.449 28.326,22.584Z" style="fill:rgb(250,173,82);fill-rule:nonzero;"/>
    <path d="M31.771,26.609C31.637,26.698 31.458,26.698 31.324,26.564C31.235,26.43 31.235,26.251 31.369,26.117C31.503,26.028 31.682,26.028 31.816,26.162C31.95,26.296 31.905,26.52 31.771,26.609Z" style="fill:rgb(250,173,82);fill-rule:nonzero;"/>
    <path d="M29.177,23.611C29.133,23.656 29.043,23.656 28.998,23.611C28.954,23.566 28.954,23.477 28.998,23.432C29.043,23.387 29.133,23.387 29.177,23.432C29.267,23.477 29.267,23.566 29.177,23.611Z" style="fill:rgb(250,173,82);fill-rule:nonzero;"/>
    <path d="M30.74,25.089C30.695,25.134 30.606,25.134 30.561,25.089C30.516,25.045 30.516,24.955 30.561,24.911C30.606,24.866 30.695,24.866 30.74,24.911C30.785,24.955 30.785,25.045 30.74,25.089Z" style="fill:rgb(250,173,82);fill-rule:nonzero;"/>
    <path d="M32.259,27.861C32.215,27.906 32.125,27.906 32.08,27.861C32.036,27.816 32.036,27.727 32.08,27.682C32.125,27.637 32.215,27.637 32.259,27.682C32.349,27.727 32.304,27.816 32.259,27.861Z" style="fill:rgb(250,173,82);fill-rule:nonzero;"/>
    <path d="M30.427,23.971C30.337,24.016 30.203,24.016 30.158,23.927C30.114,23.837 30.114,23.703 30.203,23.658C30.292,23.614 30.427,23.614 30.471,23.703C30.516,23.792 30.516,23.882 30.427,23.971Z" style="fill:rgb(250,173,82);fill-rule:nonzero;"/>
    <path d="M31.68,28.13C31.591,28.174 31.457,28.174 31.412,28.085C31.368,28.04 31.368,27.906 31.457,27.861C31.546,27.817 31.68,27.817 31.725,27.906C31.77,27.951 31.77,28.085 31.68,28.13Z" style="fill:rgb(250,173,82);fill-rule:nonzero;"/>
    <path d="M22.736,22.851C22.602,22.941 22.423,22.941 22.289,22.806C22.2,22.672 22.2,22.493 22.334,22.359C22.468,22.27 22.647,22.27 22.781,22.404C22.915,22.538 22.87,22.717 22.736,22.851Z" style="fill:rgb(244,128,32);fill-opacity:0.3;fill-rule:nonzero;"/>
    <path d="M21.931,19.318C21.797,19.407 21.618,19.407 21.484,19.273C21.395,19.139 21.395,18.96 21.529,18.826C21.663,18.737 21.842,18.737 21.976,18.871C22.11,19.005 22.066,19.184 21.931,19.318Z" style="fill:rgb(244,128,32);fill-opacity:0.3;fill-rule:nonzero;"/>
    <path d="M28.771,32.513C28.637,32.603 28.458,32.603 28.324,32.468C28.235,32.334 28.235,32.156 28.369,32.021C28.503,31.932 28.682,31.932 28.816,32.066C28.95,32.245 28.905,32.424 28.771,32.513Z" style="fill:rgb(244,128,32);fill-opacity:0.3;fill-rule:nonzero;"/>
    <path d="M20.365,20.572C20.231,20.661 20.052,20.661 19.918,20.527C19.828,20.393 19.828,20.214 19.962,20.08C20.097,19.991 20.276,19.991 20.41,20.125C20.499,20.304 20.499,20.482 20.365,20.572Z" style="fill:rgb(244,128,32);fill-opacity:0.3;fill-rule:nonzero;"/>
    <path d="M21.841,28.621C21.707,28.71 21.528,28.71 21.394,28.576C21.259,28.442 21.304,28.263 21.438,28.129C21.572,28.039 21.751,28.039 21.886,28.174C22.02,28.352 21.975,28.531 21.841,28.621Z" style="fill:rgb(244,128,32);fill-opacity:0.3;fill-rule:nonzero;"/>
    <path d="M17.326,14.22C17.102,14.399 16.789,14.354 16.61,14.131C16.432,13.907 16.476,13.594 16.7,13.415C16.923,13.236 17.237,13.281 17.415,13.505C17.549,13.773 17.549,14.086 17.326,14.22Z" style="fill:rgb(249,169,90);fill-opacity:0.5;fill-rule:nonzero;"/>
    <path d="M16.252,17.486C16.118,17.576 15.984,17.576 15.894,17.442C15.805,17.307 15.805,17.173 15.939,17.084C16.073,16.994 16.207,16.994 16.297,17.129C16.386,17.218 16.342,17.352 16.252,17.486Z" style="fill:rgb(249,169,90);fill-opacity:0.5;fill-rule:nonzero;"/>
    <path d="M16.206,21.956C16.027,22.09 15.759,22.09 15.58,21.911C15.446,21.732 15.446,21.464 15.625,21.285C15.804,21.151 16.072,21.151 16.251,21.33C16.43,21.509 16.385,21.777 16.206,21.956Z" style="fill:rgb(249,169,90);fill-opacity:0.5;fill-rule:nonzero;"/>
    <path d="M16.296,26.34C16.161,26.475 15.938,26.43 15.804,26.296C15.669,26.161 15.714,25.938 15.848,25.804C15.983,25.67 16.206,25.714 16.34,25.848C16.475,26.027 16.43,26.206 16.296,26.34Z" style="fill:rgb(249,169,90);fill-opacity:0.5;fill-rule:nonzero;"/>
    <path d="M15.936,24.149C15.802,24.283 15.579,24.238 15.444,24.104C15.31,23.97 15.355,23.746 15.489,23.612C15.623,23.478 15.847,23.523 15.981,23.657C16.115,23.836 16.07,24.06 15.936,24.149Z" style="fill:rgb(249,169,90);fill-opacity:0.5;fill-rule:nonzero;"/>
    <path d="M19.022,34.256C18.754,34.48 18.351,34.435 18.128,34.167C17.904,33.898 17.949,33.496 18.217,33.272C18.485,33.049 18.888,33.093 19.111,33.362C19.335,33.585 19.29,34.032 19.022,34.256Z" style="fill:rgb(249,169,90);fill-opacity:0.5;fill-rule:nonzero;"/>
    <path d="M17.862,32.11C17.728,32.244 17.459,32.199 17.37,32.065C17.236,31.931 17.281,31.663 17.415,31.573C17.549,31.439 17.817,31.484 17.907,31.618C18.041,31.752 18.041,31.976 17.862,32.11Z" style="fill:rgb(249,169,90);fill-opacity:0.5;fill-rule:nonzero;"/>
    <path d="M18.487,13.147C18.352,13.236 18.218,13.236 18.129,13.102C18.039,12.968 18.039,12.833 18.174,12.744C18.308,12.655 18.442,12.655 18.531,12.789C18.621,12.878 18.576,13.057 18.487,13.147Z" style="fill:rgb(249,169,90);fill-opacity:0.5;fill-rule:nonzero;"/>
    <path d="M15.85,13.102C15.716,13.191 15.582,13.191 15.492,13.057C15.403,12.923 15.403,12.789 15.537,12.699C15.671,12.61 15.805,12.61 15.895,12.744C15.984,12.833 15.984,13.012 15.85,13.102Z" style="fill:rgb(249,169,90);fill-opacity:0.5;fill-rule:nonzero;"/>
    <path d="M17.948,23.075C17.858,23.164 17.724,23.119 17.635,23.03C17.545,22.94 17.59,22.806 17.679,22.717C17.769,22.627 17.903,22.672 17.993,22.761C18.082,22.851 18.037,22.985 17.948,23.075Z" style="fill:rgb(147,88,3);fill-opacity:0.12;fill-rule:nonzero;"/>
    <path d="M18.443,27.056C18.264,27.19 17.995,27.19 17.861,27.011C17.727,26.832 17.727,26.564 17.906,26.43C18.085,26.296 18.353,26.296 18.487,26.474C18.622,26.653 18.622,26.922 18.443,27.056Z" style="fill:rgb(147,88,3);fill-opacity:0.12;fill-rule:nonzero;"/>
    <path d="M18.802,18.692C18.533,18.915 18.175,18.871 17.952,18.602C17.728,18.334 17.773,17.976 18.041,17.753C18.31,17.529 18.667,17.574 18.891,17.842C19.115,18.066 19.07,18.468 18.802,18.692Z" style="fill:rgb(147,88,3);fill-opacity:0.12;fill-rule:nonzero;"/>
    <path d="M18.039,20.748C17.905,20.837 17.726,20.837 17.637,20.703C17.547,20.569 17.547,20.39 17.681,20.301C17.815,20.211 17.994,20.211 18.084,20.345C18.173,20.48 18.173,20.658 18.039,20.748Z" style="fill:rgb(147,88,3);fill-opacity:0.12;fill-rule:nonzero;"/>
    <path d="M20.453,16.234C20.319,16.324 20.14,16.324 20.051,16.189C19.961,16.055 19.961,15.876 20.095,15.787C20.23,15.698 20.408,15.698 20.498,15.832C20.587,15.966 20.543,16.145 20.453,16.234Z" style="fill:rgb(147,88,3);fill-opacity:0.12;fill-rule:nonzero;"/>
    <path d="M20.724,29.874C20.589,30.008 20.366,29.963 20.276,29.829C20.142,29.695 20.187,29.471 20.321,29.382C20.455,29.248 20.679,29.292 20.768,29.427C20.858,29.561 20.858,29.784 20.724,29.874Z" style="fill:rgb(147,88,3);fill-opacity:0.12;fill-rule:nonzero;"/>
    <path d="M21.35,33.137C21.082,33.36 20.679,33.316 20.456,33.047C20.232,32.779 20.277,32.377 20.545,32.153C20.814,31.929 21.216,31.974 21.44,32.242C21.663,32.555 21.619,32.958 21.35,33.137Z" style="fill:rgb(147,88,3);fill-opacity:0.12;fill-rule:nonzero;"/>
    <path d="M24.792,34.256C24.658,34.391 24.434,34.346 24.3,34.212C24.166,34.078 24.21,33.854 24.345,33.72C24.479,33.586 24.702,33.63 24.836,33.764C24.971,33.899 24.926,34.122 24.792,34.256Z" style="fill:rgb(147,88,3);fill-opacity:0.12;fill-rule:nonzero;"/>
    <path d="M27.206,35.239C27.072,35.373 26.848,35.328 26.714,35.194C26.58,35.06 26.624,34.836 26.759,34.702C26.893,34.568 27.116,34.613 27.251,34.747C27.385,34.881 27.34,35.105 27.206,35.239Z" style="fill:rgb(147,88,3);fill-opacity:0.12;fill-rule:nonzero;"/>
    <path d="M22.915,34.659C22.825,34.748 22.691,34.704 22.646,34.614C22.557,34.525 22.602,34.391 22.691,34.346C22.781,34.301 22.915,34.301 22.959,34.391C23.004,34.48 23.004,34.614 22.915,34.659Z" style="fill:rgb(147,88,3);fill-opacity:0.12;fill-rule:nonzero;"/>
    <defs>
        <linearGradient id="_Linear1" x1="0" y1="0" x2="1" y2="0" gradientUnits="userSpaceOnUse" gradientTransform="matrix(18.6047,-1.8773,1.8773,18.6047,14.5962,24.8135)"><stop offset="0" style="stop-color:rgb(246,142,55);stop-opacity:1"/><stop offset="1" style="stop-color:rgb(248,160,69);stop-opacity:1"/></linearGradient>
    </defs>
</svg>
