<?xml version="1.0" encoding="UTF-8" standalone="no"?>
<!DOCTYPE svg PUBLIC "-//W3C//DTD SVG 1.1//EN" "http://www.w3.org/Graphics/SVG/1.1/DTD/svg11.dtd">
<svg width="100%" height="100%" viewBox="0 0 44 44" version="1.1" xmlns="http://www.w3.org/2000/svg" xmlns:xlink="http://www.w3.org/1999/xlink" xml:space="preserve" xmlns:serif="http://www.serif.com/" style="fill-rule:evenodd;clip-rule:evenodd;stroke-linejoin:round;stroke-miterlimit:2;">
    <path d="M37.795,19.129C35.919,21.005 31.979,23.381 28.853,25.195C28.728,25.257 28.603,25.32 28.478,25.445C27.665,25.882 26.664,26.383 25.601,26.82C24.101,27.446 22.412,28.071 20.724,28.571C17.66,29.509 14.471,30.197 12.158,30.197C11.782,30.197 11.407,30.197 11.032,30.134C10.094,30.072 9.281,29.697 8.531,29.071C6.405,27.321 5.279,23.631 6.405,20.317C6.718,19.317 7.28,18.316 8.031,17.441C8.781,16.566 9.719,15.815 10.782,15.127C15.597,11.938 22.6,10.188 22.6,10.188C24.163,10.125 25.476,10 26.727,10C27.978,10 29.103,10.063 30.104,10.188C37.107,11.251 38.733,15.878 38.92,17.253C38.983,17.816 38.545,18.442 37.795,19.129Z" style="fill:rgb(245,136,71);fill-rule:nonzero;"/>
    <path d="M21.475,27.072C21.475,27.072 21.224,27.822 20.724,28.698C17.66,29.635 14.471,30.323 12.158,30.323C10.907,30.011 9.656,29.635 8.531,29.198C6.405,27.447 5.279,23.758 6.405,20.444C6.593,20.131 6.718,19.943 6.718,19.943C6.718,19.943 6.593,23.257 7.781,24.258C8.906,25.196 9.656,26.196 11.595,27.509C13.533,28.823 15.534,27.572 16.347,27.509C17.223,27.447 21.475,27.072 21.475,27.072Z" style="fill:rgb(249,172,112);fill-rule:nonzero;"/>
    <path d="M28.352,19.755C28.352,21.693 29.478,22.819 30.416,23.444C30.853,23.694 29.79,24.694 28.477,25.507C27.414,26.195 26.226,26.82 25.601,26.883C25.413,26.883 25.226,26.883 25.226,26.758L24.975,25.882C25.976,24.882 27.602,19.442 21.599,15.315C20.473,14.565 18.222,13.564 15.721,13.877C12.845,14.19 10.844,15.253 10.844,15.253C10.719,15.253 10.719,15.628 10.844,15.253C15.659,12.064 22.662,10.313 22.662,10.313C24.163,10.125 25.476,10 26.726,10C23.412,10.625 20.849,11.938 23.537,13.189C26.226,14.502 30.29,14.502 30.353,15.503C30.478,16.378 28.29,17.754 28.352,19.755Z" style="fill:rgb(241,97,60);fill-rule:nonzero;"/>
    <path d="M39.047,20.379C38.672,22.63 38.734,24.194 38.171,24.882C37.609,25.569 38.171,25.132 34.607,27.633C33.482,28.383 32.169,29.634 30.668,30.884C27.354,33.761 23.414,36.95 19.725,36.7C14.41,36.324 9.408,35.512 7.595,32.885C5.781,30.197 6.844,28.883 6.532,27.758C6.281,26.695 5.969,23.318 5.969,23.006C6.031,23.443 7.344,29.946 14.973,28.633C19.538,27.883 26.791,25.632 31.918,22.505C33.732,21.442 35.232,20.254 36.358,19.066C37.546,17.753 38.234,16.628 38.171,15.19C38.171,15.19 39.422,18.066 39.047,20.379Z" style="fill:rgb(181,61,38);fill-rule:nonzero;"/>
    <path d="M8.346,29.009C8.346,29.009 8.095,29.321 9.534,30.885C10.972,32.448 11.347,32.573 11.159,33.573C10.972,34.574 10.847,34.886 10.534,34.011C10.284,33.136 9.909,32.198 8.971,31.885C8.033,31.572 7.595,30.134 7.283,29.196C6.97,28.258 7.032,27.383 7.032,27.383C7.032,27.383 7.72,28.508 8.346,29.009Z" style="fill:rgb(145,49,31);fill-rule:nonzero;"/>
    <path d="M24.978,35.2C24.978,35.2 26.416,30.01 24.978,25.883L21.539,27.071C21.539,27.071 23.415,31.26 21.602,36.638C21.539,36.575 23.54,36.138 24.978,35.2Z" style="fill:rgb(195,81,53);fill-rule:nonzero;"/>
    <path d="M14.535,28.696C14.535,28.696 15.536,29.571 17.161,29.509C18.787,29.446 19.663,28.446 21.101,28.133C22.539,27.82 24.04,29.071 25.103,28.321C26.166,27.57 26.666,26.32 27.666,25.507C28.667,24.694 30.48,23.443 30.48,23.443C30.48,23.443 24.227,27.008 14.535,28.696Z" style="fill:rgb(145,49,31);fill-rule:nonzero;"/>
    <path d="M39.047,20.379C38.672,22.63 38.734,24.194 38.172,24.882C37.609,25.569 38.172,25.132 34.607,27.633C33.482,28.383 32.169,29.634 30.668,30.884L30.668,30.759C30.668,30.759 32.982,26.882 31.981,22.505C33.794,21.442 35.295,20.254 36.421,19.066C37.609,17.753 38.297,16.628 38.234,15.19C38.172,15.19 39.422,18.066 39.047,20.379Z" style="fill:rgb(169,54,36);fill-rule:nonzero;"/>
    <path d="M39.17,20.256C38.92,22.819 38.732,24.195 38.17,24.883C37.607,25.571 38.17,25.133 34.606,27.634C34.606,27.634 35.606,26.008 36.106,23.695C36.356,22.382 36.419,19.943 36.419,19.13C37.607,17.817 38.295,16.817 38.232,15.378C38.17,15.316 39.483,17.442 39.17,20.256Z" style="fill:rgb(152,45,32);fill-rule:nonzero;"/>
    <path d="M7.216,25.883C7.216,25.883 6.654,27.446 7.654,28.572C8.592,29.697 11.406,32.761 11.218,33.574C11.031,34.387 10.906,35.137 10.906,35.137L12.406,35.637C12.406,35.637 12.781,33.949 12.844,32.886C12.907,31.823 11.656,31.761 11.468,30.573C11.281,29.322 11.844,28.759 11.844,28.759C11.844,28.759 8.529,28.009 7.216,25.883Z" style="fill:rgb(218,87,38);fill-rule:nonzero;"/>
    <path d="M37.796,19.129C36.17,20.13 34.607,20.692 34.482,20.755C34.607,20.63 37.045,17.754 36.483,16.253C35.92,14.69 34.169,12.564 32.918,12.063C31.73,11.626 29.354,10.625 30.105,10.188C37.108,11.251 38.734,15.878 38.921,17.253C38.984,17.816 38.546,18.441 37.796,19.129Z" style="fill:rgb(216,112,62);fill-rule:nonzero;"/>
    <path d="M6.281,20.879L17.036,28.195L18.349,27.883L6.594,19.879L6.281,20.879Z" style="fill:rgb(133,44,27);fill-rule:nonzero;"/>
    <path d="M9.094,16.567L23.601,26.384L24.914,25.884L9.907,15.879L9.094,16.567Z" style="fill:rgb(133,44,27);fill-rule:nonzero;"/>
    <path d="M14.035,13.502L29.793,23.695L30.981,23.069L15.223,12.877L14.035,13.502Z" style="fill:rgb(133,44,27);fill-rule:nonzero;"/>
    <path d="M20.911,10.813L36.355,20.004L35.167,20.505L19.848,11.188L20.911,10.813Z" style="fill:rgb(133,44,27);fill-rule:nonzero;"/>
    <path d="M27.414,10L38.919,17.816L38.857,16.878L29.603,10.125L27.414,10Z" style="fill:rgb(133,44,27);fill-rule:nonzero;"/>
    <path d="M11.906,19.005C10.906,18.379 10.968,17.691 9.968,17.754C8.967,17.817 7.904,18.88 8.092,19.755C8.28,20.63 17.346,26.383 17.471,26.383C17.597,26.383 19.472,26.946 19.973,26.758C20.473,26.571 22.349,26.195 21.473,25.633C20.66,25.07 11.906,19.005 11.906,19.005Z" style="fill:rgb(236,34,39);fill-opacity:0.21;fill-rule:nonzero;"/>
    <path d="M15.284,15.065C14.972,15.003 11.845,15.19 12.721,16.503C13.596,17.816 22.6,23.444 23.601,24.069C24.601,24.695 26.79,24.945 26.977,24.132C27.165,23.319 25.852,22.068 23.288,20.443C20.599,18.817 15.284,15.065 15.284,15.065Z" style="fill:rgb(236,34,39);fill-opacity:0.21;fill-rule:nonzero;"/>
    <path d="M21.035,12.563C20.597,12.563 18.284,13.438 19.347,14.563C20.41,15.752 29.039,21.317 29.789,21.317C30.54,21.317 33.353,21.192 31.853,19.941C30.415,18.69 21.035,12.563 21.035,12.563Z" style="fill:rgb(236,34,39);fill-opacity:0.21;fill-rule:nonzero;"/>
    <path d="M13.344,35.763C13.344,35.763 14.282,35.95 15.658,35.137C17.033,34.387 18.346,33.386 19.097,33.887C19.847,34.387 20.347,35.387 20.785,35.637C21.223,35.888 21.473,36.575 21.473,36.575C21.473,36.575 20.41,36.826 19.159,36.638C19.159,36.638 16.658,36.513 13.282,35.825L12.656,35.7L13.344,35.763Z" style="fill:rgb(145,49,31);fill-rule:nonzero;"/>
</svg>
