<?xml version="1.0" encoding="UTF-8" standalone="no"?>
<!DOCTYPE svg PUBLIC "-//W3C//DTD SVG 1.1//EN" "http://www.w3.org/Graphics/SVG/1.1/DTD/svg11.dtd">
<svg width="100%" height="100%" viewBox="0 0 44 44" version="1.1" xmlns="http://www.w3.org/2000/svg" xmlns:xlink="http://www.w3.org/1999/xlink" xml:space="preserve" xmlns:serif="http://www.serif.com/" style="fill-rule:evenodd;clip-rule:evenodd;stroke-linejoin:round;stroke-miterlimit:2;">
    <path d="M37.34,20.598C37.075,21.732 33.258,26.191 30.688,26.758C29.63,26.985 27.778,27.552 25.738,28.308C23.395,29.215 20.863,30.386 19.011,31.709C18.482,32.087 18.028,32.465 17.65,32.88C14.74,35.866 13.796,35.148 13.796,35.148C13.796,35.148 13.72,35.11 13.607,35.072C13.229,34.883 12.359,34.392 12.284,33.598C12.284,32.427 13.04,30.764 13.833,29.404C14.665,27.968 15.496,26.834 15.496,26.834C15.383,26.834 15.156,26.985 14.891,27.174C14.854,27.212 14.778,27.249 14.703,27.287C13.115,28.383 9.752,31.142 8.24,31.369C6.615,31.558 4.499,29.555 4.461,28.761C4.461,28.61 4.537,28.497 4.725,28.459C5.066,28.383 5.557,28.005 6.01,27.514C7.031,26.456 8.051,24.906 8.051,24.906C11.263,20.107 13.266,17.764 13.266,17.764C20.296,11.415 25.095,10.735 29.177,11.075C29.555,11.112 29.933,11.15 30.31,11.188C30.462,11.226 30.651,11.226 30.802,11.264C31.709,11.453 32.578,11.793 33.372,12.208C34.543,12.813 35.563,13.569 36.319,14.287C36.433,14.4 36.584,14.551 36.697,14.665C37.037,15.043 37.302,15.421 37.491,15.647C37.68,15.912 37.755,16.063 37.755,16.063C39.229,18.746 37.604,19.464 37.34,20.598Z" style="fill:rgb(232,113,92);fill-rule:nonzero;"/>
    <path d="M4.613,28.496C4.613,28.572 4.651,28.647 4.651,28.723C4.613,28.61 4.613,28.496 4.613,28.496Z" style="fill:rgb(214,84,76);fill-rule:nonzero;"/>
    <path d="M21.428,21.505C20.974,21.807 17.724,23.319 15.457,26.796C15.457,26.796 13.87,27.741 12.018,29.29C11.375,29.819 10.809,30.273 10.204,30.613C9.788,30.877 9.372,31.028 8.957,31.142C8.314,31.293 7.672,31.255 7.067,30.953C6.009,30.613 5.026,30.159 4.686,28.874C4.686,28.837 4.686,28.799 4.648,28.761C4.648,28.799 4.686,28.837 4.686,28.874C4.837,29.139 5.178,29.479 6.122,29.403C6.311,29.403 6.5,29.366 6.765,29.29C8.919,28.761 13.378,25.889 16.061,23.584C16.969,22.828 17.724,22.185 18.405,21.694C19.727,20.711 20.672,20.258 21.201,20.258C22.033,20.333 21.881,21.165 21.428,21.505Z" style="fill:rgb(214,84,76);fill-rule:nonzero;"/>
    <path d="M27.175,26.985C27.175,26.985 26.608,27.515 25.739,28.308C23.396,29.215 20.864,30.387 19.012,31.709C18.483,32.087 18.03,32.465 17.652,32.881C15.951,34.619 14.893,35.111 14.364,35.186C13.986,35.262 13.797,35.111 13.797,35.111C13.797,35.111 12.399,34.582 12.285,33.561C12.285,33.221 12.361,32.843 12.436,32.428C12.701,31.445 13.23,30.349 13.797,29.366C15.006,27.666 16.593,25.625 16.593,25.625C16.593,25.625 20.07,26.041 22.187,25.738C24.227,25.474 27.175,26.985 27.175,26.985Z" style="fill:rgb(216,98,83);fill-rule:nonzero;"/>
    <path d="M10.204,30.575C9.788,30.84 9.373,30.991 8.957,31.104C8.314,31.255 7.748,31.482 6.916,31.104C5.858,30.764 4.233,29.328 4.649,28.799C4.762,28.799 4.875,28.837 5.102,28.95C5.291,29.026 5.291,29.026 5.631,29.404C6.727,30.613 8.617,30.877 10.204,30.575Z" style="fill:rgb(189,95,98);fill-rule:nonzero;"/>
    <path d="M23.245,19.388C23.245,19.388 26.268,18.141 32.352,21.883L33.977,20.673C33.977,20.673 27.137,19.993 26.986,16.516C26.986,16.516 19.654,16.819 18.407,14.967L17.387,15.345L17.387,15.609C17.349,15.572 23.925,17.763 23.245,19.388Z" style="fill:rgb(218,106,86);fill-rule:nonzero;"/>
    <path d="M16.553,33.562C16.478,33.599 15.23,34.506 14.286,35.187C13.908,35.262 13.719,35.111 13.719,35.111C13.719,35.111 12.32,34.582 12.207,33.562C12.207,33.221 12.283,32.843 12.358,32.428C12.509,32.995 12.812,33.637 13.416,33.902C14.588,34.431 16.478,33.599 16.553,33.562Z" style="fill:rgb(189,95,98);fill-rule:nonzero;"/>
    <path d="M23.242,19.276C23.242,19.276 23.582,18.445 23.771,17.538C23.922,16.631 25.585,16.177 26.303,16.744C27.021,17.311 27.362,18.256 26.719,18.596C25.661,19.087 24.867,18.672 24.149,18.86C23.393,19.049 23.242,19.276 23.242,19.276Z" style="fill:rgb(253,229,215);fill-rule:nonzero;"/>
    <path d="M29.178,11.075C27.629,11.226 23.812,11.793 19.919,13.531C19.919,13.531 18.294,14.022 18.294,15.458C18.294,15.458 16.556,14.551 11.567,21.089C11.567,21.089 7.523,26.154 6.012,27.59L6.012,27.514C7.032,26.456 8.052,24.906 8.052,24.906C11.265,20.107 13.268,17.764 13.268,17.764C20.297,11.415 25.097,10.735 29.178,11.075Z" style="fill:rgb(239,200,181);fill-rule:nonzero;"/>
    <path d="M37.605,15.837C36.698,14.703 34.62,12.927 31.974,13.229C31.974,13.229 32.088,11.453 28.309,11.15C28.46,11.188 28.611,10.81 30.765,11.226C33.297,11.717 36.812,13.985 37.605,15.837Z" style="fill:rgb(239,200,181);fill-rule:nonzero;"/>
    <path d="M37.338,20.598C37.074,21.732 33.257,26.191 30.687,26.758C28.457,27.211 19.463,30.613 16.251,33.863C14.852,34.996 14.475,35.034 14.928,34.656C17.044,33.107 18.934,28.345 23.242,28.043C25.661,27.892 29.175,25.775 29.175,25.775C33.899,23.508 32.161,21.316 32.161,21.316C32.161,21.316 34.088,20.976 35.638,19.842C36.998,18.859 37.452,16.29 37.527,15.723C37.716,15.987 37.792,16.138 37.792,16.138C39.228,18.746 37.603,19.464 37.338,20.598Z" style="fill:rgb(253,229,215);fill-rule:nonzero;"/>
    <path d="M38.815,20.598C38.702,20.862 38.551,21.202 38.362,21.618C38.059,22.185 37.644,22.827 37.115,23.507C36.094,24.906 34.658,26.493 32.92,27.816C31.144,29.176 29.103,30.272 26.76,30.726C26.571,30.763 26.382,30.801 26.231,30.839C20.297,31.897 21.658,30.726 17.954,33.522C16.556,34.58 15.611,35.072 14.931,35.261C13.759,35.601 13.457,35.034 13.457,35.034C13.457,35.034 15.158,35.261 16.745,33.069C16.934,32.804 17.123,32.577 17.312,32.313C18.635,30.537 19.882,28.912 22.376,28.458C23.699,28.194 25.664,27.891 27.667,27.173C29.896,26.417 32.164,25.246 33.789,23.281C33.978,23.054 34.205,22.789 34.356,22.6C35.49,21.24 36.359,20.371 36.963,19.691C37.039,19.615 37.077,19.539 37.152,19.464C37.833,18.67 38.097,18.179 37.984,17.499C37.87,16.781 37.833,16.44 37.795,16.252C37.757,16.1 37.757,16.063 37.757,16.063C37.757,16.063 37.795,16.1 37.833,16.138C38.059,16.44 38.815,17.461 38.966,18.821C39.08,19.35 39.042,19.955 38.815,20.598Z" style="fill:rgb(158,154,151);fill-rule:nonzero;"/>
    <path d="M16.555,25.246C16.555,25.246 20.032,25.132 21.392,28.307L21.468,28.42L22.337,28.156C22.337,28.156 20.863,26.115 18.595,25.359C18.595,25.359 17.802,25.057 16.933,24.943L16.555,25.246Z" style="fill:rgb(234,144,131);fill-rule:nonzero;"/>
    <path d="M19.047,23.018C19.047,23.018 23.62,26.721 27.55,26.646L28.344,26.268C28.344,26.268 22.939,26.155 19.425,22.791L19.047,23.018Z" style="fill:rgb(234,144,131);fill-rule:nonzero;"/>
    <path d="M21.091,21.808C21.091,21.808 27.214,25.172 31.975,23.622L32.089,23.547C32.089,23.547 27.667,25.285 21.394,21.506L20.902,21.77L21.091,21.808Z" style="fill:rgb(234,144,131);fill-rule:nonzero;"/>
    <path d="M23.244,19.389C23.244,19.389 22.375,19.691 22.224,20.485C22.072,21.278 21.808,21.996 20.674,22.525C19.54,23.017 17.575,24.717 16.593,25.662C15.761,26.456 12.662,31.747 12.662,31.747C12.662,31.747 13.002,28.648 17.878,23.962C17.878,23.962 19.881,22.299 20.561,21.996C21.241,21.694 21.619,21.392 21.808,20.674C21.808,20.674 21.543,20.145 20.976,20.334C20.41,20.522 18.785,21.014 15.119,24.415C15.119,24.415 9.563,28.799 7.22,29.177C7.22,29.177 5.595,29.706 4.953,29.139C4.953,29.139 4.802,28.988 4.726,28.874C4.65,28.723 4.688,28.95 5.142,28.988C5.595,29.026 6.427,29.366 7.598,28.685C9.374,28.119 13.645,25.057 14.854,23.886C16.064,22.714 18.936,20.371 20.901,20.031C21.77,19.88 23.244,19.389 23.244,19.389Z" style="fill:rgb(253,229,215);fill-opacity:0.71;fill-rule:nonzero;"/>
    <path d="M25.664,17.158C25.626,17.158 24.644,17.158 24.341,17.65C24.039,18.179 24.719,18.443 25.059,18.443C25.399,18.443 26.155,18.557 26.231,18.179C26.306,17.839 26.458,17.574 26.117,17.385C25.815,17.196 25.664,17.158 25.664,17.158Z" style="fill:rgb(237,186,168);fill-rule:nonzero;"/>
    <path d="M22.148,20.75C22.148,20.75 26.381,23.471 29.707,21.959C29.707,21.959 27.742,22.639 25.55,21.997C23.547,21.43 22.224,20.447 22.224,20.447L22.148,20.75Z" style="fill:rgb(234,144,131);fill-rule:nonzero;"/>
    <path d="M23.621,20.295C23.621,20.295 24.982,21.693 27.4,21.467C29.819,21.278 28.118,20.257 27.589,19.993C27.06,19.728 26.115,19.426 25.7,19.426C25.7,19.426 27.022,19.728 27.551,20.106C28.081,20.484 29.214,21.051 27.438,21.315C25.662,21.618 23.621,20.295 23.621,20.295Z" style="fill:rgb(234,144,131);fill-rule:nonzero;"/>
    <path d="M25.208,20.637C25.208,20.637 23.659,20.183 23.961,19.768C24.263,19.352 25.095,19.39 25.926,19.616C26.871,19.919 27.287,20.108 27.929,20.637C27.929,20.637 26.871,19.805 25.699,19.654C24.528,19.541 24.377,19.503 24.074,19.843C23.81,20.145 25.208,20.637 25.208,20.637Z" style="fill:rgb(234,144,131);fill-rule:nonzero;"/>
    <path d="M25.586,20.485C25.586,20.485 26.455,20.901 27.022,20.75C27.589,20.599 26.342,20.221 26.342,20.221C26.342,20.221 27.135,20.561 26.946,20.674C26.795,20.788 25.586,20.485 25.586,20.485Z" style="fill:rgb(234,144,131);fill-rule:nonzero;"/>
    <path d="M17.613,16.744C17.613,16.744 18.294,18.18 20.372,18.898C22.451,19.616 21.317,18.294 20.977,17.953C20.637,17.576 19.956,17.047 19.578,16.895C19.578,16.895 20.561,17.576 20.901,18.029C21.241,18.483 21.997,19.276 20.448,18.823C18.898,18.407 17.613,16.744 17.613,16.744Z" style="fill:rgb(234,144,131);fill-rule:nonzero;"/>
    <path d="M18.86,17.008C18.86,17.008 17.727,16.138 18.105,15.95C18.482,15.761 19.125,16.063 19.767,16.554C20.485,17.121 20.75,17.386 21.128,17.99C21.128,17.99 20.523,17.045 19.578,16.516C18.671,16.025 18.52,15.95 18.18,16.063C17.878,16.176 18.86,17.008 18.86,17.008Z" style="fill:rgb(234,144,131);fill-rule:nonzero;"/>
    <path d="M19.313,17.311C19.313,17.311 19.917,17.915 20.409,17.991C20.9,18.104 19.993,17.386 19.993,17.386C19.993,17.386 20.56,17.915 20.371,17.915C20.182,17.915 19.313,17.311 19.313,17.311Z" style="fill:rgb(234,144,131);fill-rule:nonzero;"/>
    <path d="M14.892,28.194C14.892,28.194 17.349,28.874 18.067,29.328C18.785,29.781 18.822,30.273 18.822,30.273L18.596,30.499C18.596,30.499 18.218,29.668 17.802,29.479C17.424,29.29 14.703,28.345 14.703,28.345L14.817,28.156L14.892,28.194Z" style="fill:rgb(234,144,131);fill-rule:nonzero;"/>
    <path d="M13.417,30.462C13.417,30.462 15.873,30.311 16.365,33.108L16.365,33.183L15.987,33.637C15.987,33.637 15.798,31.936 14.74,31.332C13.681,30.727 13.266,30.727 13.266,30.727L13.417,30.462Z" style="fill:rgb(234,144,131);fill-rule:nonzero;"/>
    <path d="M30.801,14.098C30.801,14.098 33.144,13.228 36.469,15.005C36.469,15.005 34.58,13.682 32.804,13.72C31.028,13.757 30.801,14.098 30.801,14.098Z" style="fill:rgb(234,144,131);fill-rule:nonzero;"/>
    <path d="M29.629,14.777C29.629,14.777 35.6,13.984 37.225,16.932L37.338,16.478C37.338,16.478 36.356,13.757 30.271,14.437L29.629,14.777Z" style="fill:rgb(234,144,131);fill-rule:nonzero;"/>
    <path d="M28.195,15.686C28.195,15.686 36.207,15.724 36.51,18.785L36.812,18.142C36.812,18.142 35.527,14.892 28.573,15.422L28.195,15.686Z" style="fill:rgb(234,144,131);fill-rule:nonzero;"/>
    <path d="M27.703,15.988C27.703,15.988 29.517,20.032 34.77,20.183L34.619,20.448C34.619,20.448 28.837,20.259 27.59,16.064L27.703,15.988Z" style="fill:rgb(234,144,131);fill-rule:nonzero;"/>
    <path d="M33.786,19.389C33.786,19.389 35.6,19.767 35.335,18.784C35.071,17.802 31.745,16.517 30.082,16.63C30.082,16.63 34.541,17.386 34.995,18.784C34.995,18.784 35.222,19.389 33.786,19.389Z" style="fill:rgb(234,144,131);fill-rule:nonzero;"/>
    <path d="M32.881,17.952C32.881,17.952 30.992,17.083 30.727,17.612C30.463,18.141 31.899,18.935 32.844,19.011C32.844,19.011 30.652,18.028 31.143,17.763C31.634,17.499 32.881,17.952 32.881,17.952Z" style="fill:rgb(234,144,131);fill-rule:nonzero;"/>
    <path d="M8.882,28.081C8.882,28.081 9.26,26.683 7.711,25.738L8.089,25.322C8.089,25.322 9.298,26.456 9.26,27.817L8.882,28.081Z" style="fill:rgb(234,144,131);fill-rule:nonzero;"/>
    <path d="M11.564,26.419C11.564,26.419 11.187,25.36 10.771,24.718C10.355,24.113 9.902,23.962 9.826,23.924C9.75,23.887 9.297,23.849 9.297,23.849L9.675,23.357C9.675,23.357 10.015,23.471 10.62,23.962C11.224,24.453 11.187,24.68 11.3,24.945C11.413,25.209 11.753,25.814 11.829,25.965L11.905,26.116L11.564,26.419Z" style="fill:rgb(234,144,131);fill-rule:nonzero;"/>
    <path d="M11.113,21.657C11.113,21.657 12.549,21.771 13.381,22.111C14.212,22.451 14.741,23.093 14.741,23.169C14.741,23.244 14.892,23.849 14.892,23.849L15.119,23.66C15.119,23.66 15.006,23.244 14.704,22.866C14.401,22.489 14.099,21.959 13.645,21.884C13.23,21.808 13.343,21.922 12.776,21.695C12.209,21.468 11.416,21.279 11.416,21.279L11.113,21.657Z" style="fill:rgb(234,144,131);fill-rule:nonzero;"/>
    <path d="M16.783,22.224C16.783,22.224 14.478,20.788 14.327,20.75C14.175,20.712 13.457,20.41 13.495,20.145C13.533,19.843 13.004,19.276 13.004,19.276L13.155,19.125C13.155,19.125 13.533,19.427 13.646,19.654C13.722,19.881 13.457,20.108 13.835,20.297C14.213,20.485 14.78,20.901 15.12,20.939C15.498,20.977 16.065,21.166 16.254,21.279C16.443,21.392 16.896,21.77 16.934,21.77C17.01,21.77 17.123,21.959 17.123,21.959L16.783,22.224Z" style="fill:rgb(234,144,131);fill-rule:nonzero;"/>
    <path d="M18.822,20.75C18.822,20.75 17.235,20.221 16.781,19.881C16.366,19.541 16.177,19.578 15.874,19.125C15.572,18.671 15.534,18.747 15.383,18.331C15.232,17.916 15.043,17.311 15.043,17.311L15.043,17.16L15.27,16.971C15.27,16.971 15.648,17.916 15.874,18.445C16.101,18.974 16.328,19.314 16.555,19.427C16.781,19.541 16.895,19.881 17.424,19.994C17.953,20.107 18.369,20.183 18.633,20.296C18.898,20.41 19.276,20.599 19.351,20.561C19.427,20.523 18.898,20.788 18.898,20.788L18.822,20.75Z" style="fill:rgb(234,144,131);fill-rule:nonzero;"/>
    <path d="M20.486,20.069C20.486,20.069 17.123,18.709 16.934,16.441C16.934,16.441 16.934,18.709 20.259,20.145L20.486,20.069Z" style="fill:rgb(234,144,131);fill-rule:nonzero;"/>
    <path d="M35.527,13.947C35.263,16.026 32.806,18.067 29.632,19.578C29.632,19.578 28.347,24.113 23.887,25.663C19.428,27.174 17.16,28.61 15.309,31.596C14.213,33.335 13.759,34.468 13.495,35.073C13.117,34.884 12.248,34.393 12.172,33.599C12.172,32.428 12.928,30.765 13.721,29.404C14.553,27.968 15.384,26.834 15.384,26.834C15.271,26.834 15.044,26.985 14.78,27.174C18.181,23.66 22.527,19.843 22.527,19.843C22.527,19.843 29.14,14.665 33.26,12.209C34.469,12.814 34.771,13.229 35.527,13.947Z" style="fill:rgb(253,244,161);fill-opacity:0.3;fill-rule:nonzero;"/>
    <path d="M18.707,14.249C18.707,14.249 26.454,10.47 27.739,15.836L27.89,15.723C27.89,15.723 27.475,12.926 24.678,12.662C21.919,12.359 18.707,14.249 18.707,14.249Z" style="fill:rgb(234,144,131);fill-rule:nonzero;"/>
    <path d="M29.101,14.815C29.101,14.815 29.29,11.716 25.359,11.716C25.359,11.716 28.043,11.452 28.95,13.152C28.95,13.152 29.29,14.059 29.252,14.739L29.101,14.815Z" style="fill:rgb(234,144,131);fill-rule:nonzero;"/>
    <path d="M30.725,13.72C30.725,13.72 30.498,11.453 28.117,11.226C28.117,11.226 29.742,11.075 30.687,12.851L30.876,13.645L30.725,13.72Z" style="fill:rgb(234,144,131);fill-rule:nonzero;"/>
    <path d="M26.57,15.156C26.57,15.156 24.983,12.7 20.75,13.909C20.712,13.909 24.718,13.267 26.57,15.156Z" style="fill:rgb(234,144,131);fill-rule:nonzero;"/>
    <path d="M24.681,15.08C24.681,15.08 25.777,15.382 25.588,15.684C25.399,15.987 22.187,15.684 21.469,15.004C21.469,15.004 23.925,15.798 24.983,15.609C24.983,15.646 25.437,15.609 24.681,15.08Z" style="fill:rgb(234,144,131);fill-rule:nonzero;"/>
    <path d="M23.32,14.401C23.32,14.401 21.392,13.872 21.43,14.363C21.468,14.817 22.904,14.855 22.904,14.855C22.904,14.855 20.145,14.174 23.32,14.401Z" style="fill:rgb(234,144,131);fill-rule:nonzero;"/>
    <path d="M30.461,14.589C30.31,14.551 30.235,14.513 30.197,14.475C31.406,13.757 32.653,13.153 33.296,13.153L32.2,12.926C32.2,12.926 31.217,13.455 29.932,14.286L29.97,14.286C29.97,14.286 29.441,14.475 29.139,14.4L29.365,14.702C29.101,14.891 28.836,15.08 28.534,15.269C28.534,15.269 28.005,15.458 27.702,15.382L27.929,15.722L27.967,15.722C27.627,15.987 27.325,16.251 26.984,16.554C26.984,16.554 27.476,16.214 28.232,15.722L28.987,15.571C28.798,15.533 28.723,15.496 28.685,15.42C29.025,15.231 29.365,15.004 29.743,14.778L30.461,14.589Z" style="fill:rgb(253,229,215);fill-rule:nonzero;"/>
    <path d="M38.814,20.597C38.701,20.862 38.549,21.202 38.36,21.618C38.058,22.185 37.642,22.827 37.113,23.507C37.151,22.941 37.113,22.109 37.34,21.467C37.453,21.051 37.453,20.597 37.378,20.22C37.34,19.917 37.227,19.615 37.189,19.464C37.869,18.67 38.134,18.179 38.02,17.499C37.907,16.78 37.869,16.44 37.831,16.251L37.869,16.176C38.209,16.554 39.57,18.406 38.814,20.597Z" style="fill:rgb(109,127,146);fill-rule:nonzero;"/>
    <path d="M38.361,21.581C38.059,22.148 37.643,22.79 37.114,23.47C36.094,24.869 34.657,26.456 32.919,27.778L32.919,27.552C32.881,27.363 33.939,24.869 34.053,23.924C34.091,23.508 34.242,22.979 34.393,22.525C35.527,21.165 36.585,20.069 37.189,19.389L37.378,20.145C37.681,20.636 38.096,21.203 38.361,21.581Z" style="fill:rgb(126,137,146);fill-rule:nonzero;"/>
    <path d="M27.667,27.174C27.515,27.59 27.289,28.081 26.949,28.648C26.533,29.366 26.344,30.235 26.231,30.84C20.297,31.898 21.658,30.726 17.954,33.523C16.556,34.581 16.934,33.75 17.009,33.598C17.047,33.523 17.161,32.994 17.312,32.313C17.954,31.444 18.559,30.651 19.315,29.97C20.108,29.252 21.091,28.686 22.376,28.459C23.623,28.232 25.399,27.93 27.251,27.325C27.402,27.249 27.515,27.212 27.667,27.174Z" style="fill:rgb(196,179,164);fill-rule:nonzero;"/>
    <path d="M27.249,27.287C26.304,27.93 24.112,28.95 22.638,28.874C21.429,28.799 20.031,29.517 19.313,29.933C20.106,29.215 21.089,28.648 22.374,28.421C23.621,28.194 25.397,27.892 27.249,27.287Z" style="fill:rgb(196,171,160);fill-rule:nonzero;"/>
    <path d="M32.502,13.003L25.057,17.764C22.185,18.369 15.534,26.456 15.534,26.456C15.534,26.456 15.156,26.797 14.665,27.212C13.077,28.308 9.714,31.067 8.202,31.294C6.615,31.558 4.499,29.555 4.461,28.762C4.537,28.762 4.574,28.724 4.65,28.724C7.938,28.422 13.796,21.392 15.043,19.805C16.328,18.218 20.296,16.593 20.296,16.593C20.296,16.593 21.127,14.892 22.374,13.834C23.621,12.776 32.276,12.096 32.276,12.096L32.502,13.003Z" style="fill:rgb(253,244,161);fill-opacity:0.3;fill-rule:nonzero;"/>
    <path d="M38.815,20.597C38.702,20.862 38.551,21.202 38.362,21.618C38.059,22.184 37.644,22.827 37.115,23.507C36.094,24.905 34.658,26.493 32.92,27.815C31.144,29.176 29.103,30.272 26.76,30.725C26.571,30.763 26.382,30.801 26.231,30.839C20.297,31.897 21.658,30.725 17.954,33.522C16.556,34.58 15.611,35.071 14.931,35.26C13.759,35.6 13.457,35.034 13.457,35.034C14.515,35.789 16.669,34.202 16.669,34.202C18.219,32.313 21.091,31.179 21.091,31.179C26.004,30.65 29.519,29.478 29.519,29.478C37.19,24.376 38.74,20.559 39.042,18.783C39.08,19.35 39.042,19.955 38.815,20.597Z" style="fill:rgb(92,69,84);fill-opacity:0.29;fill-rule:nonzero;"/>
    <path d="M21.428,21.506C20.975,21.808 17.725,23.32 15.457,26.796C15.457,26.796 13.87,27.741 12.018,29.291C10.922,30.198 9.94,30.878 8.957,31.142C9.977,30.198 12.169,28.006 13.454,26.759C15.117,25.171 17.611,22.828 17.951,22.261C18.027,22.11 18.178,21.959 18.367,21.77C19.69,20.788 20.635,20.334 21.164,20.334C22.033,20.334 21.882,21.165 21.428,21.506Z" style="fill:rgb(193,68,61);fill-rule:nonzero;"/>
    <path d="M36.848,15.004C36.848,15.004 37.414,15.76 37.452,16.138L37.566,15.722C37.528,15.684 37.074,15.004 36.848,15.004Z" style="fill:rgb(239,200,181);fill-rule:nonzero;"/>
</svg>
