<?xml version="1.0" encoding="UTF-8" standalone="no"?>
<!DOCTYPE svg PUBLIC "-//W3C//DTD SVG 1.1//EN" "http://www.w3.org/Graphics/SVG/1.1/DTD/svg11.dtd">
<svg width="100%" height="100%" viewBox="0 0 44 44" version="1.1" xmlns="http://www.w3.org/2000/svg" xmlns:xlink="http://www.w3.org/1999/xlink" xml:space="preserve" xmlns:serif="http://www.serif.com/" style="fill-rule:evenodd;clip-rule:evenodd;stroke-linejoin:round;stroke-miterlimit:2;">
    <path d="M38.042,19.463C37.109,19.202 36.698,18.306 36.511,18.044C36.399,17.895 35.914,17.783 35.615,17.746C35.429,17.708 35.279,17.708 35.279,17.708C35.279,17.708 34.831,16.626 35.503,16.177L36.474,16.177C36.474,16.177 36.959,16.177 37.109,15.916C37.258,15.655 38.117,15.095 39.05,15.58C39.984,16.028 39.797,16.85 39.386,17.148C39.013,17.447 38.751,17.41 38.751,17.41C38.751,17.41 39.312,17.596 39.312,18.343C39.349,19.09 38.677,19.65 38.042,19.463Z" style="fill:rgb(230,205,183);fill-rule:nonzero;"/>
    <path d="M38.825,17.298C38.825,17.298 39.609,17.149 39.647,16.551C39.684,15.991 39.161,15.618 38.527,15.506C37.892,15.394 37.145,16.29 36.921,16.477C36.697,16.663 36.025,16.439 36.174,16.626C36.324,16.775 36.286,17.559 36.137,17.671C35.988,17.783 36.585,17.597 36.846,18.119C37.108,18.642 37.854,19.351 38.228,19.426C38.601,19.501 39.161,19.239 39.236,18.679C39.311,18.269 39.236,17.783 38.751,17.559C38.527,17.447 38.377,17.373 38.414,17.373C38.527,17.335 38.825,17.298 38.825,17.298Z" style="fill:rgb(247,220,195);fill-rule:nonzero;"/>
    <path d="M39.274,16.923C39.274,16.923 39.423,16.737 39.461,16.513C39.498,16.289 38.975,15.729 38.602,15.729C38.228,15.729 37.892,16.027 37.818,16.363C37.743,16.699 38.004,17.185 38.228,17.259C38.452,17.334 39.087,17.147 39.274,16.923Z" style="fill:rgb(255,240,216);fill-opacity:0.5;fill-rule:nonzero;"/>
    <path d="M39.05,18.865C39.05,18.865 39.2,18.641 39.088,18.342C38.976,18.044 38.565,17.633 38.341,17.633C38.117,17.633 37.744,17.782 37.632,18.156C37.52,18.529 37.744,18.79 37.93,18.977C38.154,19.164 38.304,19.238 38.565,19.164C38.826,19.089 39.05,18.865 39.05,18.865Z" style="fill:rgb(255,240,216);fill-opacity:0.5;fill-rule:nonzero;"/>
    <path d="M39.273,16.513C39.273,16.513 38.937,15.916 38.676,15.953C38.377,15.99 38.489,16.849 38.601,16.998C38.751,17.148 38.975,16.998 39.124,16.886C39.273,16.774 39.348,16.625 39.273,16.513Z" style="fill:rgb(255,240,216);fill-rule:nonzero;"/>
    <path d="M38.975,18.754C38.975,18.754 39.012,18.568 38.863,18.381C38.714,18.194 38.49,17.858 38.415,17.895C38.34,17.933 38.228,18.344 38.34,18.68C38.452,19.016 38.49,19.09 38.714,19.016C38.938,18.904 38.975,18.866 38.975,18.754Z" style="fill:rgb(255,240,216);fill-rule:nonzero;"/>
    <path d="M35.615,17.783C35.429,17.746 35.279,17.746 35.279,17.746C35.279,17.746 34.831,16.663 35.503,16.215L35.877,16.215C35.877,16.215 35.653,16.29 35.765,16.588C35.839,16.85 35.951,17.372 35.765,17.559C35.653,17.596 35.615,17.708 35.615,17.783Z" style="fill:rgb(189,170,153);fill-rule:nonzero;"/>
    <path d="M36.699,9.681C36.437,10.577 35.504,11.025 35.28,11.174C35.131,11.286 35.019,11.735 34.981,12.07C34.944,12.257 34.944,12.407 34.944,12.407C34.944,12.407 33.861,12.855 33.413,12.145L33.413,11.212C33.413,11.212 33.413,10.726 33.152,10.577C32.89,10.428 32.368,9.532 32.816,8.636C33.301,7.702 34.085,7.926 34.384,8.3C34.683,8.673 34.645,8.934 34.645,8.934C34.645,8.934 34.832,8.374 35.616,8.374C36.363,8.374 36.923,9.046 36.699,9.681Z" style="fill:rgb(230,205,183);fill-rule:nonzero;"/>
    <path d="M34.57,8.86C34.57,8.86 34.421,8.076 33.823,8.039C33.301,8.002 32.89,8.524 32.74,9.122C32.629,9.756 33.487,10.503 33.674,10.727C33.861,10.951 33.637,11.623 33.786,11.474C33.935,11.325 34.719,11.362 34.831,11.511C34.943,11.661 34.757,11.063 35.279,10.802C35.802,10.541 36.512,9.794 36.586,9.42C36.661,9.047 36.4,8.487 35.84,8.375C35.429,8.3 34.943,8.375 34.719,8.823C34.607,9.047 34.533,9.196 34.533,9.159C34.607,9.196 34.57,8.86 34.57,8.86Z" style="fill:rgb(247,220,195);fill-rule:nonzero;"/>
    <path d="M34.199,8.411C34.199,8.411 34.012,8.262 33.788,8.225C33.564,8.187 33.004,8.71 33.004,9.046C33.004,9.382 33.303,9.755 33.601,9.83C33.937,9.905 34.423,9.643 34.497,9.457C34.572,9.233 34.423,8.635 34.199,8.411Z" style="fill:rgb(255,240,216);fill-opacity:0.5;fill-rule:nonzero;"/>
    <path d="M36.137,8.673C36.137,8.673 35.913,8.523 35.614,8.635C35.315,8.747 34.867,9.158 34.867,9.382C34.867,9.606 35.017,9.98 35.39,10.092C35.726,10.204 36.025,10.017 36.211,9.793C36.398,9.606 36.473,9.419 36.398,9.158C36.361,8.897 36.137,8.673 36.137,8.673Z" style="fill:rgb(255,240,216);fill-opacity:0.5;fill-rule:nonzero;"/>
    <path d="M33.788,8.412C33.788,8.412 33.191,8.711 33.228,9.009C33.266,9.308 34.124,9.196 34.274,9.084C34.423,8.972 34.274,8.711 34.162,8.561C34.05,8.412 33.9,8.337 33.788,8.412Z" style="fill:rgb(255,240,216);fill-rule:nonzero;"/>
    <path d="M35.991,8.748C35.991,8.748 35.804,8.711 35.617,8.86C35.431,9.01 35.094,9.234 35.132,9.308C35.169,9.383 35.58,9.495 35.916,9.42C36.252,9.308 36.327,9.271 36.252,9.047C36.177,8.786 36.103,8.748 35.991,8.748Z" style="fill:rgb(255,240,216);fill-rule:nonzero;"/>
    <path d="M34.982,12.107C34.945,12.294 34.945,12.443 34.945,12.443C34.945,12.443 33.862,12.891 33.414,12.182L33.414,11.809C33.414,11.809 33.489,12.033 33.787,11.921C34.049,11.846 34.572,11.734 34.758,11.958C34.833,12.033 34.908,12.07 34.982,12.107Z" style="fill:rgb(189,170,153);fill-rule:nonzero;"/>
    <path d="M11.533,15.804C11.496,16.439 11.271,19.687 10.711,20.882C10.637,21.031 10.562,21.18 10.45,21.367C9.629,22.599 7.799,24.279 8.06,22.412C8.06,22.412 9.815,16.812 10.562,16.065C10.861,15.767 11.085,15.543 11.271,15.468C11.458,15.356 11.533,15.468 11.533,15.804Z" style="fill:rgb(247,151,59);fill-rule:nonzero;"/>
    <path d="M8.696,20.732C8.696,20.732 10.189,16.551 10.488,16.252C10.787,15.953 11.086,15.729 11.086,15.916C11.086,16.103 10.115,19.687 9.779,20.023C9.48,20.359 8.92,21.068 8.845,21.068C8.733,21.106 8.584,21.031 8.696,20.732Z" style="fill:rgb(253,194,94);fill-rule:nonzero;"/>
    <path d="M11.532,15.804C11.495,16.439 11.271,19.687 10.711,20.882C10.636,21.031 10.561,21.18 10.449,21.367C10.487,21.18 10.487,21.031 10.487,20.994C10.524,20.62 11.383,16.065 11.457,15.729C11.495,15.43 11.308,15.468 11.308,15.468C11.457,15.356 11.532,15.468 11.532,15.804Z" style="fill:rgb(233,125,47);fill-opacity:0.6;fill-rule:nonzero;"/>
    <path d="M32.63,19.501C32.368,19.799 32.032,19.986 31.659,19.986C30.613,20.023 26.88,20.247 23.818,19.762C21.466,19.389 19.487,18.567 19.375,16.924C19.375,16.924 19.524,16.402 19.935,15.73C20.495,14.871 21.578,13.751 23.519,13.452C26.73,12.892 30.875,13.863 32.368,14.796C32.443,14.834 32.518,14.908 32.592,14.945C33.638,15.73 33.6,18.381 32.63,19.501Z" style="fill:rgb(247,151,59);fill-rule:nonzero;"/>
    <path d="M32.367,14.796C32.068,14.908 31.732,15.057 31.546,15.319C30.836,16.178 28.633,15.02 26.206,14.983C23.294,14.908 22.174,15.991 20.942,16.215C19.747,16.439 19.897,15.767 19.897,15.73C20.457,14.871 21.539,13.751 23.481,13.452C26.692,12.892 30.836,13.863 32.367,14.796Z" style="fill:rgb(248,159,60);fill-rule:nonzero;"/>
    <path d="M32.629,19.502C32.368,19.8 32.032,19.987 31.658,19.987C30.613,20.024 26.879,20.248 23.817,19.763C22.959,19.053 22.212,18.045 21.727,16.701C21.727,16.701 23.183,15.581 27.178,16.104C30.165,16.515 32.48,16.291 32.741,16.701C32.816,16.851 32.255,18.381 32.629,19.502Z" style="fill:rgb(233,125,47);fill-opacity:0.6;fill-rule:nonzero;"/>
    <path d="M24.527,16.813C24.527,16.813 27.477,17.186 29.68,17.335C31.621,17.447 29.568,19.053 28.41,18.754C27.178,18.455 24.527,16.813 24.527,16.813Z" style="fill:rgb(229,117,45);fill-rule:nonzero;"/>
    <path d="M32.479,22.786C32.367,23.533 32.143,24.466 31.844,25.475C31.545,26.445 31.172,27.453 30.724,28.462C30.089,29.806 29.305,31.075 28.372,32.083C27.662,32.83 26.692,33.502 25.571,34.099C22.136,35.929 17.357,36.862 14.37,36.564C10.375,36.153 8.695,33.763 8.695,33.763C7.724,34.062 5.223,33.465 4.663,30.702C4.513,30.216 4.476,29.768 4.513,29.32C4.7,26.968 6.343,24.578 7.836,22.562C8.098,22.189 8.509,21.778 8.994,21.405C11.682,19.202 17.283,16.738 22.099,16.663C27.812,16.551 32.329,19.725 32.516,21.33C32.591,21.666 32.553,22.152 32.479,22.786Z" style="fill:rgb(248,159,60);fill-rule:nonzero;"/>
    <path d="M31.844,25.474C31.545,26.445 31.172,27.453 30.724,28.461C30.089,29.805 29.305,31.075 28.372,32.083C27.662,32.829 26.692,33.501 25.571,34.099C22.136,35.928 17.357,36.862 14.37,36.563C10.375,36.152 8.695,33.763 8.695,33.763C7.724,34.062 5.223,33.464 4.663,30.701C4.513,30.216 4.476,29.768 4.513,29.32C4.7,26.968 6.343,24.578 7.836,22.562C8.098,22.188 8.509,21.778 8.994,21.404C8.919,21.516 4.812,26.669 9.778,28.013C9.778,28.013 10.599,28.088 10.973,28.013C10.973,28.013 12.69,31.56 20.643,30.216C28.596,28.872 29.529,22.45 29.529,22.45C29.529,22.45 30.649,23.719 31.844,25.474Z" style="fill:rgb(233,133,59);fill-opacity:0.4;fill-rule:nonzero;"/>
    <path d="M30.688,28.461C30.538,28.76 30.389,29.096 30.202,29.394C29.68,30.403 29.045,31.299 28.298,32.045C25.349,35.107 18.292,36.936 14.297,36.526C10.302,36.115 8.622,33.725 8.622,33.725C7.8,33.987 5.859,33.576 4.963,31.784C4.813,31.448 4.664,31.112 4.589,30.664C4.515,30.216 4.477,29.768 4.515,29.32L4.552,29.32C4.552,29.32 5.411,30.962 7.352,31.112C9.144,31.261 9.891,30.664 9.891,30.664C9.891,30.664 10.563,33.016 14.185,33.651C17.807,34.286 27.626,32.68 30.501,28.722C30.576,28.61 30.65,28.536 30.688,28.461Z" style="fill:rgb(234,131,56);fill-rule:nonzero;"/>
    <path d="M32.481,22.787C32.258,24.206 31.735,26.222 30.876,28.126C30.839,28.238 30.764,28.35 30.727,28.462C30.092,29.806 29.308,31.076 28.375,32.084C28.151,32.308 27.926,32.532 27.665,32.718C27.068,33.204 26.358,33.652 25.574,34.063C26.694,33.092 26.881,32.308 26.657,28.462C26.433,24.579 27.964,21.965 27.964,21.965L28.412,21.965C30.092,21.891 31.436,22.227 32.481,22.787Z" style="fill:rgb(233,125,47);fill-opacity:0.6;fill-rule:nonzero;"/>
    <path d="M30.24,29.395C29.717,30.403 29.082,31.299 28.336,32.045C25.386,35.107 18.329,36.937 14.334,36.526C10.339,36.115 8.659,33.726 8.659,33.726C7.838,33.987 5.896,33.576 5,31.784C5.075,31.896 6.269,33.651 8.771,33.352C8.771,33.352 12.206,37.086 19.188,35.891C25.237,34.846 28.858,31.56 30.24,29.395Z" style="fill:rgb(211,109,49);fill-rule:nonzero;"/>
    <path d="M30.836,28.126C30.799,28.238 30.724,28.35 30.687,28.462C30.052,29.806 29.268,31.075 28.335,32.083C28.111,32.307 27.887,32.531 27.625,32.718C27.215,32.643 26.953,32.531 26.953,32.531C26.953,32.531 28.185,32.083 27.775,30.702C27.364,29.32 26.916,28.76 27.252,25.475C27.439,23.421 27.775,22.45 28.036,21.965C28.185,21.704 28.26,21.629 28.26,21.629C28.26,21.629 28.335,21.741 28.409,21.965C28.857,22.898 30.164,25.699 30.836,28.126Z" style="fill:rgb(226,121,43);fill-rule:nonzero;"/>
    <path d="M28.449,32.83C28.337,33.278 28.075,33.689 27.553,33.951C27.553,33.951 19.264,36.9 18.704,36.452C18.144,35.967 17.995,35.108 18.443,33.801C18.853,32.569 20.048,28.947 20.384,28.499C20.384,28.462 20.421,28.462 20.421,28.462C20.683,28.35 20.384,30.292 20.608,30.217C20.832,30.142 24.379,22.675 24.827,22.451C24.939,22.413 25.089,22.488 25.163,22.675C25.201,22.749 25.238,22.824 25.275,22.899C25.462,23.459 25.537,24.43 25.163,25.288C24.566,26.707 22.848,31.486 23.67,31.748C24.491,32.009 26.806,30.777 27.702,31.001C28.262,31.188 28.636,32.046 28.449,32.83Z" style="fill:rgb(247,151,59);fill-rule:nonzero;"/>
    <path d="M36.548,24.018C36.511,25.736 36.511,29.32 33.524,30.552C33.524,30.552 30.724,31.859 29.828,31.859C29.454,31.859 29.006,31.56 28.595,31.037C27.961,30.253 27.401,28.947 27.363,27.341C27.326,25.698 27.55,23.309 28.259,20.882C28.707,19.314 29.38,17.708 30.276,16.364C32.628,12.892 33.076,12.22 33.86,12.108C34.009,12.07 34.159,12.07 34.308,12.07C34.383,12.07 34.457,12.108 34.569,12.108C35.092,12.257 35.54,12.817 35.801,14.46C36.212,16.849 36.586,22.301 36.548,24.018Z" style="fill:rgb(248,159,60);fill-rule:nonzero;"/>
    <path d="M36.548,24.018C36.511,25.736 36.511,29.32 33.524,30.552C33.524,30.552 30.724,31.859 29.828,31.859C29.454,31.859 29.006,31.56 28.595,31.037C27.961,30.253 27.401,28.947 27.363,27.341C27.326,25.698 27.55,23.309 28.259,20.882C28.222,21.18 27.214,29.992 29.94,30.253C32.703,30.515 34.756,28.125 35.092,25.325C35.353,22.487 35.54,16.7 34.345,12.07C34.383,12.07 34.457,12.108 34.607,12.108C35.129,12.257 35.577,12.817 35.839,14.46C36.212,16.849 36.586,22.301 36.548,24.018Z" style="fill:rgb(226,121,43);fill-opacity:0.26;fill-rule:nonzero;"/>
    <path d="M36.55,24.018C36.513,25.736 36.513,29.32 33.526,30.552C33.526,30.552 30.725,31.859 29.829,31.859C29.456,31.859 29.195,31.709 28.896,31.411C28.859,31.373 29.642,31.896 30.688,31.485C31.509,31.149 34.72,29.731 35.43,28.013C36.139,26.296 35.43,15.617 35.019,14.124C34.608,12.63 34.608,12.294 34.31,12.07C34.907,12.108 35.504,12.556 35.803,14.497C36.214,16.849 36.587,22.301 36.55,24.018Z" style="fill:rgb(226,124,53);fill-rule:nonzero;"/>
    <path d="M22.472,17.784C22.472,17.784 15.117,17.522 11.607,21.144C8.097,24.765 15.079,27.379 19.373,25.176C23.667,22.973 27.251,19.016 26.952,18.418C26.654,17.821 16.722,23.384 15.639,22.824C14.557,22.264 15.266,20.92 18.216,20.061C21.165,19.202 24.003,18.344 24.302,18.045C24.6,17.784 22.472,17.784 22.472,17.784Z" style="fill:rgb(250,172,73);fill-rule:nonzero;"/>
    <path d="M22.51,14.199C22.51,14.199 21.24,14.722 20.904,15.394C20.568,16.066 21.352,15.655 22.136,15.207C23.144,14.684 24.414,14.162 26.617,14.348C28.82,14.535 29.79,15.17 30.164,14.983C30.5,14.796 30.126,14.236 28.26,13.938C26.393,13.639 24.451,13.452 22.51,14.199Z" style="fill:rgb(250,173,84);fill-rule:nonzero;"/>
    <path d="M28.225,33.352C28.187,33.427 28.038,33.725 27.553,33.987C27.553,33.987 23.595,35.405 20.981,36.115C19.787,36.451 18.891,36.638 18.704,36.488C18.144,36.003 17.995,35.144 18.443,33.837C18.853,32.605 20.048,28.983 20.384,28.535C20.384,28.535 20.421,28.535 20.421,28.498C20.421,28.498 20.235,28.834 20.123,29.767C20.011,30.701 19.563,32.232 19.451,33.352C19.339,34.509 18.853,36.227 21.952,35.443C24.79,34.733 27.59,33.949 28.225,33.352Z" style="fill:rgb(250,172,73);fill-rule:nonzero;"/>
    <path d="M25.163,22.711C24.827,22.487 24.528,23.159 24.453,23.495C24.379,23.831 23.221,26.967 22.549,28.237C21.914,29.469 21.056,31.522 20.757,31.485C20.57,31.485 20.57,31.074 20.57,30.776C20.57,30.514 20.608,30.29 20.608,30.29C20.832,30.215 23.893,23.794 24.677,22.711C24.752,22.636 24.789,22.561 24.827,22.561C24.939,22.412 25.051,22.524 25.163,22.711Z" style="fill:rgb(250,172,73);fill-rule:nonzero;"/>
    <path d="M28.448,32.83C28.336,33.278 28.075,33.689 27.552,33.95C27.552,33.95 28.299,33.054 28.224,32.307C28.149,31.56 27.701,31.187 26.768,31.448C25.834,31.672 23.93,32.606 23.221,32.046C22.511,31.486 24.528,26.333 24.789,25.811C25.013,25.288 25.461,24.168 25.312,22.936C25.498,23.496 25.573,24.466 25.2,25.325C24.602,26.744 22.885,31.523 23.706,31.784C24.528,32.046 26.842,30.814 27.738,31.038C28.261,31.187 28.635,32.046 28.448,32.83Z" style="fill:rgb(201,79,37);fill-opacity:0.32;fill-rule:nonzero;"/>
    <path d="M34.199,13.75C34.199,13.6 34.087,12.854 33.564,12.854C33.041,12.854 30.652,16.625 29.868,18.753C29.084,20.918 28.486,24.353 29.27,26.594C29.681,27.751 33.153,27.826 34.012,25.697C34.945,23.345 34.721,20.582 34.721,17.745C34.684,14.982 34.199,13.75 34.199,13.75Z" style="fill:rgb(251,177,76);fill-rule:nonzero;"/>
    <path d="M15.94,21.815C15.977,21.591 16.35,21.218 16.836,21.031C18.329,20.359 21.13,19.575 21.988,19.276C23.332,18.866 24.565,18.418 24.639,18.604C24.714,18.791 23.034,19.426 20.457,20.434C18.18,21.33 16.462,22.525 16.089,22.301C15.79,22.151 15.94,21.965 15.94,21.815Z" style="fill:rgb(233,133,59);fill-opacity:0.4;fill-rule:nonzero;"/>
    <path d="M12.467,24.914C12.467,24.914 12.392,24.466 12.766,24.428C13.139,24.391 14.035,25.063 15.715,25.1C17.395,25.138 20.233,23.943 21.652,22.935C23.071,21.889 25.236,20.135 25.498,19.948C25.759,19.761 25.871,19.537 25.983,19.537C26.095,19.537 24.34,21.292 22.623,22.599C20.905,23.906 18.74,25.324 16.275,25.586C16.275,25.586 14.931,25.698 13.923,25.511C12.915,25.287 12.915,25.25 12.467,24.914Z" style="fill:rgb(253,194,94);fill-rule:nonzero;"/>
    <path d="M12.429,21.406C12.429,21.406 12.914,20.248 15.416,19.352C17.918,18.456 21.129,18.12 21.987,18.083C22.809,18.045 23.257,18.008 23.331,18.008C23.369,18.045 23.145,18.12 22.435,18.157C21.726,18.232 18.03,18.867 17.021,19.203C16.013,19.501 13.922,20.771 13.586,21.144C13.25,21.517 13.101,21.741 12.84,21.741C12.578,21.704 12.317,21.592 12.429,21.406Z" style="fill:rgb(253,194,94);fill-rule:nonzero;"/>
    <path d="M33.375,15.169C33.375,15.169 32.815,22.711 32.74,23.719C32.703,24.727 33.3,25.138 33.785,24.205C34.271,23.271 34.271,20.844 34.308,18.455C34.345,16.065 34.084,14.124 33.972,13.862C33.86,13.564 33.449,14.086 33.375,15.169Z" style="fill:rgb(253,194,94);fill-rule:nonzero;"/>
    <path d="M24.752,22.525C24.677,22.712 23.52,25.736 22.624,27.417C21.728,29.134 20.608,30.628 20.57,30.702C20.57,30.441 20.608,30.217 20.608,30.217C20.832,30.142 23.781,23.645 24.752,22.525Z" style="fill:rgb(253,194,94);fill-rule:nonzero;"/>
    <path d="M20.981,36.078C19.787,36.414 18.891,36.6 18.704,36.451C18.144,35.966 17.995,35.107 18.443,33.8C18.853,32.568 20.048,28.946 20.384,28.498C20.384,28.498 20.421,28.498 20.421,28.461C20.347,28.536 20.272,28.834 20.197,28.984C20.123,29.133 19.899,29.992 19.824,30.328C19.712,30.664 19.376,31.933 18.965,33.277C18.555,34.584 18.555,35.518 18.965,35.891C19.376,36.264 20.981,36.078 20.981,36.078Z" style="fill:rgb(253,194,94);fill-rule:nonzero;"/>
    <path d="M31.247,23.645C31.247,23.869 31.061,24.056 30.837,24.056C30.613,24.056 30.426,23.869 30.426,23.645C30.426,23.421 30.613,23.234 30.837,23.234C31.098,23.234 31.247,23.421 31.247,23.645Z" style="fill:rgb(248,159,60);fill-rule:nonzero;"/>
    <path d="M31.062,25.961C31.062,26.11 30.95,26.26 30.764,26.26C30.577,26.26 30.465,26.148 30.465,25.961C30.465,25.812 30.577,25.662 30.764,25.662C30.95,25.662 31.062,25.812 31.062,25.961Z" style="fill:rgb(248,159,60);fill-rule:nonzero;"/>
    <path d="M32.854,25.698C32.854,25.773 32.779,25.885 32.667,25.885C32.593,25.885 32.481,25.81 32.481,25.698C32.481,25.624 32.555,25.512 32.667,25.512C32.779,25.512 32.854,25.586 32.854,25.698Z" style="fill:rgb(248,159,60);fill-rule:nonzero;"/>
    <path d="M31.361,21.479C31.485,21.479 31.585,21.379 31.585,21.255C31.585,21.132 31.485,21.031 31.361,21.031C31.237,21.031 31.137,21.132 31.137,21.255C31.137,21.379 31.237,21.479 31.361,21.479Z" style="fill:rgb(248,159,60);fill-rule:nonzero;"/>
    <path d="M32.332,22.674C32.332,22.861 32.183,23.01 31.996,23.01C31.81,23.01 31.66,22.861 31.66,22.674C31.66,22.487 31.81,22.338 31.996,22.338C32.183,22.375 32.332,22.525 32.332,22.674Z" style="fill:rgb(248,159,60);fill-rule:nonzero;"/>
    <path d="M29.905,21.89C29.905,22.002 29.83,22.077 29.718,22.077C29.606,22.077 29.531,22.002 29.531,21.89C29.531,21.778 29.606,21.703 29.718,21.703C29.83,21.703 29.905,21.778 29.905,21.89Z" style="fill:rgb(248,159,60);fill-rule:nonzero;"/>
    <path d="M32.441,19.426C32.441,19.575 32.329,19.724 32.142,19.724C31.993,19.724 31.844,19.612 31.844,19.426C31.844,19.276 31.956,19.127 32.142,19.127C32.292,19.127 32.441,19.239 32.441,19.426Z" style="fill:rgb(248,159,60);fill-rule:nonzero;"/>
    <path d="M30.801,19.836C30.801,20.023 30.651,20.135 30.502,20.135C30.315,20.135 30.203,19.985 30.203,19.836C30.203,19.649 30.353,19.537 30.502,19.537C30.651,19.537 30.801,19.649 30.801,19.836Z" style="fill:rgb(248,159,60);fill-rule:nonzero;"/>
    <path d="M31.585,18.119C31.585,18.231 31.51,18.343 31.361,18.343C31.249,18.343 31.137,18.268 31.137,18.119C31.137,18.007 31.211,17.895 31.361,17.895C31.473,17.895 31.585,18.007 31.585,18.119Z" style="fill:rgb(248,159,60);fill-rule:nonzero;"/>
    <path d="M33.04,16.514C33.04,16.738 32.853,16.887 32.666,16.887C32.442,16.887 32.293,16.701 32.293,16.514C32.293,16.29 32.48,16.141 32.666,16.141C32.853,16.141 33.04,16.29 33.04,16.514Z" style="fill:rgb(248,159,60);fill-rule:nonzero;"/>
    <path d="M32.628,17.97C32.69,17.97 32.74,17.92 32.74,17.858C32.74,17.796 32.69,17.746 32.628,17.746C32.566,17.746 32.516,17.796 32.516,17.858C32.516,17.92 32.566,17.97 32.628,17.97Z" style="fill:rgb(248,159,60);fill-rule:nonzero;"/>
    <path d="M32.89,14.683C32.89,14.833 32.778,14.945 32.629,14.945C32.479,14.945 32.367,14.833 32.367,14.683C32.367,14.534 32.479,14.422 32.629,14.422C32.778,14.459 32.89,14.571 32.89,14.683Z" style="fill:rgb(248,159,60);fill-rule:nonzero;"/>
    <path d="M13.251,23.01C13.251,23.196 13.064,23.308 12.84,23.308C12.616,23.308 12.43,23.159 12.43,23.01C12.43,22.86 12.616,22.711 12.84,22.711C13.064,22.711 13.251,22.823 13.251,23.01Z" style="fill:rgb(248,159,60);fill-rule:nonzero;"/>
    <path d="M15.903,24.093C15.903,24.243 15.754,24.355 15.53,24.355C15.343,24.355 15.156,24.243 15.156,24.093C15.156,23.944 15.306,23.832 15.53,23.832C15.754,23.832 15.903,23.944 15.903,24.093Z" style="fill:rgb(248,159,60);fill-rule:nonzero;"/>
    <path d="M14.558,22.039C14.703,22.039 14.82,21.972 14.82,21.89C14.82,21.807 14.703,21.74 14.558,21.74C14.414,21.74 14.297,21.807 14.297,21.89C14.297,21.972 14.414,22.039 14.558,22.039Z" style="fill:rgb(248,159,60);fill-rule:nonzero;"/>
    <path d="M18.182,23.794C18.388,23.794 18.555,23.677 18.555,23.533C18.555,23.389 18.388,23.272 18.182,23.272C17.976,23.272 17.809,23.389 17.809,23.533C17.809,23.677 17.976,23.794 18.182,23.794Z" style="fill:rgb(248,159,60);fill-rule:nonzero;"/>
    <path d="M11.87,22.524C11.87,22.599 11.758,22.674 11.609,22.674C11.46,22.674 11.348,22.599 11.348,22.524C11.348,22.45 11.46,22.375 11.609,22.375C11.758,22.338 11.87,22.412 11.87,22.524Z" style="fill:rgb(248,159,60);fill-rule:nonzero;"/>
    <path d="M17.883,19.501C17.883,19.576 17.734,19.688 17.547,19.688C17.36,19.688 17.211,19.613 17.211,19.501C17.211,19.427 17.36,19.315 17.547,19.315C17.734,19.315 17.883,19.389 17.883,19.501Z" style="fill:rgb(248,159,60);fill-rule:nonzero;"/>
    <path d="M21.316,21.89C21.316,21.964 21.204,22.039 21.017,22.039C20.868,22.039 20.719,21.964 20.719,21.89C20.719,21.815 20.831,21.74 21.017,21.74C21.204,21.74 21.316,21.815 21.316,21.89Z" style="fill:rgb(248,159,60);fill-rule:nonzero;"/>
    <path d="M20.422,23.16C20.566,23.16 20.683,23.093 20.683,23.011C20.683,22.928 20.566,22.861 20.422,22.861C20.277,22.861 20.16,22.928 20.16,23.011C20.16,23.093 20.277,23.16 20.422,23.16Z" style="fill:rgb(248,159,60);fill-rule:nonzero;"/>
    <path d="M15.492,20.472C15.492,20.546 15.343,20.584 15.193,20.584C15.044,20.584 14.895,20.509 14.895,20.472C14.895,20.397 15.044,20.36 15.193,20.36C15.343,20.322 15.492,20.397 15.492,20.472Z" style="fill:rgb(248,159,60);fill-rule:nonzero;"/>
    <path d="M20.272,18.978C20.272,19.052 20.16,19.127 20.048,19.127C19.936,19.127 19.824,19.052 19.824,18.978C19.824,18.903 19.936,18.828 20.048,18.828C20.16,18.828 20.272,18.903 20.272,18.978Z" style="fill:rgb(248,159,60);fill-rule:nonzero;"/>
    <path d="M23.184,20.882C23.184,20.994 22.998,21.069 22.811,21.069C22.587,21.069 22.438,20.994 22.438,20.882C22.438,20.77 22.624,20.695 22.811,20.695C22.998,20.695 23.184,20.77 23.184,20.882Z" style="fill:rgb(248,159,60);fill-rule:nonzero;"/>
    <path d="M10.004,26.11C10.004,26.296 9.742,26.446 9.369,26.446C9.033,26.446 8.734,26.296 8.734,26.11C8.734,25.923 8.996,25.773 9.369,25.773C9.742,25.773 10.004,25.923 10.004,26.11Z" style="fill:rgb(233,133,59);fill-opacity:0.4;fill-rule:nonzero;"/>
    <path d="M14.071,27.415C14.071,27.527 13.885,27.639 13.661,27.639C13.437,27.639 13.25,27.527 13.25,27.415C13.25,27.303 13.437,27.191 13.661,27.191C13.885,27.191 14.071,27.303 14.071,27.415Z" style="fill:rgb(233,133,59);fill-opacity:0.4;fill-rule:nonzero;"/>
    <path d="M19.412,26.969C19.412,27.156 19.188,27.305 18.927,27.305C18.665,27.305 18.441,27.156 18.441,26.969C18.441,26.782 18.665,26.633 18.927,26.633C19.188,26.633 19.412,26.782 19.412,26.969Z" style="fill:rgb(233,133,59);fill-opacity:0.4;fill-rule:nonzero;"/>
    <path d="M17.059,29.171C17.059,29.432 16.761,29.656 16.35,29.656C15.977,29.656 15.641,29.432 15.641,29.171C15.641,28.91 15.939,28.686 16.35,28.686C16.723,28.723 17.059,28.947 17.059,29.171Z" style="fill:rgb(233,133,59);fill-opacity:0.4;fill-rule:nonzero;"/>
    <path d="M22.476,25.287C22.476,25.474 22.214,25.623 21.916,25.623C21.617,25.623 21.356,25.474 21.356,25.287C21.356,25.101 21.617,24.951 21.916,24.951C22.214,24.951 22.476,25.063 22.476,25.287Z" style="fill:rgb(233,133,59);fill-opacity:0.4;fill-rule:nonzero;"/>
    <path d="M25.648,27.415C25.648,27.527 25.499,27.639 25.35,27.639C25.163,27.639 25.051,27.527 25.051,27.415C25.051,27.303 25.2,27.191 25.35,27.191C25.536,27.191 25.648,27.303 25.648,27.415Z" style="fill:rgb(233,133,59);fill-opacity:0.4;fill-rule:nonzero;"/>
    <path d="M26.955,22.077C26.955,22.301 26.768,22.45 26.507,22.45C26.283,22.45 26.059,22.263 26.059,22.077C26.059,21.89 26.245,21.703 26.507,21.703C26.768,21.703 26.955,21.853 26.955,22.077Z" style="fill:rgb(233,133,59);fill-opacity:0.4;fill-rule:nonzero;"/>
    <path d="M28.038,20.136C28.038,20.248 27.963,20.323 27.814,20.323C27.702,20.323 27.59,20.248 27.59,20.136C27.59,20.024 27.665,19.949 27.814,19.949C27.963,19.949 28.038,20.024 28.038,20.136Z" style="fill:rgb(233,133,59);fill-opacity:0.4;fill-rule:nonzero;"/>
    <path d="M25.347,17.634C25.347,17.784 25.198,17.896 25.049,17.896C24.862,17.896 24.75,17.784 24.75,17.634C24.75,17.485 24.899,17.373 25.049,17.373C25.198,17.373 25.347,17.485 25.347,17.634Z" style="fill:rgb(233,133,59);fill-opacity:0.4;fill-rule:nonzero;"/>
    <path d="M9.295,24.317C9.295,24.503 9.071,24.653 8.773,24.653C8.474,24.653 8.25,24.503 8.25,24.317C8.25,24.13 8.474,23.981 8.773,23.981C9.071,24.018 9.295,24.167 9.295,24.317Z" style="fill:rgb(233,133,59);fill-opacity:0.4;fill-rule:nonzero;"/>
    <path d="M9.78,22.861C10.028,22.861 10.228,22.744 10.228,22.599C10.228,22.455 10.028,22.338 9.78,22.338C9.533,22.338 9.332,22.455 9.332,22.599C9.332,22.744 9.533,22.861 9.78,22.861Z" style="fill:rgb(233,133,59);fill-opacity:0.4;fill-rule:nonzero;"/>
    <path d="M10.49,21.367C10.655,21.367 10.789,21.316 10.789,21.255C10.789,21.193 10.655,21.143 10.49,21.143C10.325,21.143 10.191,21.193 10.191,21.255C10.191,21.316 10.325,21.367 10.49,21.367Z" style="fill:rgb(233,133,59);fill-opacity:0.4;fill-rule:nonzero;"/>
    <path d="M7.726,29.096C7.726,29.283 7.465,29.432 7.129,29.432C6.793,29.432 6.531,29.283 6.531,29.096C6.531,28.909 6.793,28.76 7.129,28.76C7.465,28.76 7.726,28.909 7.726,29.096Z" style="fill:rgb(234,131,56);fill-rule:nonzero;"/>
    <path d="M11.311,30.104C11.517,30.104 11.684,30.004 11.684,29.88C11.684,29.757 11.517,29.656 11.311,29.656C11.105,29.656 10.938,29.757 10.938,29.88C10.938,30.004 11.105,30.104 11.311,30.104Z" style="fill:rgb(234,131,56);fill-rule:nonzero;"/>
    <path d="M12.841,32.194C13.151,32.194 13.401,32.011 13.401,31.784C13.401,31.557 13.151,31.373 12.841,31.373C12.532,31.373 12.281,31.557 12.281,31.784C12.281,32.011 12.532,32.194 12.841,32.194Z" style="fill:rgb(234,131,56);fill-rule:nonzero;"/>
    <path d="M16.575,31.672C16.575,31.821 16.389,31.97 16.165,31.97C15.941,31.97 15.754,31.821 15.754,31.672C15.754,31.522 15.941,31.373 16.165,31.373C16.389,31.373 16.575,31.522 16.575,31.672Z" style="fill:rgb(234,131,56);fill-rule:nonzero;"/>
    <path d="M17.508,32.829C17.508,32.941 17.358,33.016 17.209,33.016C17.022,33.016 16.91,32.941 16.91,32.829C16.91,32.717 17.06,32.643 17.209,32.643C17.395,32.643 17.508,32.717 17.508,32.829Z" style="fill:rgb(234,131,56);fill-rule:nonzero;"/>
    <path d="M7.501,27.304C7.501,27.454 7.314,27.566 7.127,27.566C6.903,27.566 6.754,27.454 6.754,27.304C6.754,27.155 6.941,27.043 7.127,27.043C7.351,27.043 7.501,27.155 7.501,27.304Z" style="fill:rgb(234,131,56);fill-rule:nonzero;"/>
    <path d="M9.63,29.17C9.63,29.319 9.444,29.469 9.182,29.469C8.921,29.469 8.734,29.319 8.734,29.17C8.734,29.02 8.921,28.871 9.182,28.871C9.406,28.908 9.63,29.02 9.63,29.17Z" style="fill:rgb(234,131,56);fill-rule:nonzero;"/>
    <path d="M6.942,30.366C6.942,30.478 6.755,30.553 6.569,30.553C6.345,30.553 6.195,30.478 6.195,30.366C6.195,30.254 6.382,30.18 6.569,30.18C6.755,30.217 6.942,30.292 6.942,30.366Z" style="fill:rgb(234,131,56);fill-rule:nonzero;"/>
    <path d="M6.008,27.416C6.008,27.603 5.858,27.752 5.709,27.752C5.56,27.752 5.41,27.603 5.41,27.416C5.41,27.229 5.56,27.08 5.709,27.08C5.896,27.08 6.008,27.229 6.008,27.416Z" style="fill:rgb(234,131,56);fill-rule:nonzero;"/>
    <path d="M25.049,30.702C25.049,30.926 24.825,31.112 24.564,31.112C24.302,31.112 24.078,30.926 24.078,30.702C24.078,30.478 24.302,30.291 24.564,30.291C24.825,30.291 25.049,30.478 25.049,30.702Z" style="fill:rgb(234,131,56);fill-rule:nonzero;"/>
    <path d="M25.985,29.47C25.985,29.544 25.835,29.619 25.648,29.619C25.462,29.619 25.313,29.544 25.313,29.47C25.313,29.395 25.462,29.32 25.648,29.32C25.835,29.32 25.985,29.395 25.985,29.47Z" style="fill:rgb(234,131,56);fill-rule:nonzero;"/>
    <path d="M10.524,33.428C10.751,33.428 10.935,33.294 10.935,33.129C10.935,32.964 10.751,32.83 10.524,32.83C10.297,32.83 10.113,32.964 10.113,33.129C10.113,33.294 10.297,33.428 10.524,33.428Z" style="fill:rgb(211,109,49);fill-rule:nonzero;"/>
    <path d="M12.839,33.95C12.839,34.062 12.727,34.137 12.578,34.137C12.428,34.137 12.316,34.062 12.316,33.95C12.316,33.838 12.428,33.764 12.578,33.764C12.727,33.764 12.839,33.876 12.839,33.95Z" style="fill:rgb(211,109,49);fill-rule:nonzero;"/>
    <path d="M14.819,35.593C15.025,35.593 15.192,35.476 15.192,35.332C15.192,35.187 15.025,35.07 14.819,35.07C14.613,35.07 14.445,35.187 14.445,35.332C14.445,35.476 14.613,35.593 14.819,35.593Z" style="fill:rgb(211,109,49);fill-rule:nonzero;"/>
    <path d="M16.013,34.36C16.095,34.36 16.162,34.327 16.162,34.286C16.162,34.244 16.095,34.211 16.013,34.211C15.93,34.211 15.863,34.244 15.863,34.286C15.863,34.327 15.93,34.36 16.013,34.36Z" style="fill:rgb(211,109,49);fill-rule:nonzero;"/>
    <path d="M17.394,35.332C17.394,35.519 17.245,35.668 17.096,35.668C16.909,35.668 16.797,35.519 16.797,35.332C16.797,35.145 16.946,34.996 17.096,34.996C17.282,34.996 17.394,35.145 17.394,35.332Z" style="fill:rgb(211,109,49);fill-rule:nonzero;"/>
    <path d="M8.548,32.047C8.548,32.196 8.361,32.308 8.137,32.308C7.913,32.308 7.727,32.196 7.727,32.047C7.727,31.897 7.913,31.785 8.137,31.785C8.361,31.748 8.548,31.897 8.548,32.047Z" style="fill:rgb(211,109,49);fill-rule:nonzero;"/>
    <path d="M7.503,32.867C7.606,32.867 7.69,32.817 7.69,32.755C7.69,32.693 7.606,32.643 7.503,32.643C7.4,32.643 7.316,32.693 7.316,32.755C7.316,32.817 7.4,32.867 7.503,32.867Z" style="fill:rgb(211,109,49);fill-rule:nonzero;"/>
    <path d="M6.196,31.56C6.196,31.672 6.046,31.784 5.859,31.784C5.673,31.784 5.523,31.709 5.523,31.56C5.523,31.448 5.673,31.336 5.859,31.336C6.046,31.373 6.196,31.448 6.196,31.56Z" style="fill:rgb(211,109,49);fill-rule:nonzero;"/>
    <path d="M22.438,33.465C22.438,33.614 22.252,33.726 22.065,33.726C21.841,33.726 21.691,33.614 21.691,33.465C21.691,33.315 21.878,33.203 22.065,33.203C22.252,33.203 22.438,33.315 22.438,33.465Z" style="fill:rgb(233,133,59);fill-opacity:0.4;fill-rule:nonzero;"/>
    <path d="M22.511,31.15C22.511,31.262 22.398,31.374 22.287,31.374C22.174,31.374 22.063,31.299 22.063,31.15C22.063,31.038 22.174,30.926 22.287,30.926C22.398,30.926 22.511,31.038 22.511,31.15Z" style="fill:rgb(233,133,59);fill-rule:nonzero;"/>
    <path d="M20.459,33.8C20.624,33.8 20.758,33.683 20.758,33.539C20.758,33.394 20.624,33.277 20.459,33.277C20.294,33.277 20.16,33.394 20.16,33.539C20.16,33.683 20.294,33.8 20.459,33.8Z" style="fill:rgb(233,133,59);fill-rule:nonzero;"/>
    <path d="M25.348,33.801C25.575,33.801 25.759,33.651 25.759,33.465C25.759,33.279 25.575,33.129 25.348,33.129C25.121,33.129 24.938,33.279 24.938,33.465C24.938,33.651 25.121,33.801 25.348,33.801Z" style="fill:rgb(233,133,59);fill-rule:nonzero;"/>
    <path d="M26.956,32.53C26.956,32.642 26.844,32.717 26.732,32.717C26.62,32.717 26.508,32.642 26.508,32.53C26.508,32.418 26.62,32.344 26.732,32.344C26.844,32.344 26.956,32.418 26.956,32.53Z" style="fill:rgb(233,133,59);fill-rule:nonzero;"/>
    <path d="M23.331,34.397C23.331,34.472 23.219,34.509 23.107,34.509C22.995,34.509 22.883,34.435 22.883,34.397C22.883,34.36 22.995,34.285 23.107,34.285C23.256,34.248 23.331,34.323 23.331,34.397Z" style="fill:rgb(233,133,59);fill-rule:nonzero;"/>
    <path d="M23.144,28.312C23.289,28.312 23.406,28.179 23.406,28.014C23.406,27.849 23.289,27.715 23.144,27.715C23,27.715 22.883,27.849 22.883,28.014C22.883,28.179 23,28.312 23.144,28.312Z" style="fill:rgb(233,133,59);fill-rule:nonzero;"/>
    <path d="M24.416,25.698C24.416,25.773 24.342,25.885 24.23,25.885C24.118,25.885 24.043,25.81 24.043,25.698C24.043,25.624 24.118,25.512 24.23,25.512C24.342,25.512 24.416,25.586 24.416,25.698Z" style="fill:rgb(233,133,59);fill-rule:nonzero;"/>
</svg>
