<?xml version="1.0" encoding="UTF-8" standalone="no"?>
<!DOCTYPE svg PUBLIC "-//W3C//DTD SVG 1.1//EN" "http://www.w3.org/Graphics/SVG/1.1/DTD/svg11.dtd">
<svg width="100%" height="100%" viewBox="0 0 44 44" version="1.1" xmlns="http://www.w3.org/2000/svg" xmlns:xlink="http://www.w3.org/1999/xlink" xml:space="preserve" xmlns:serif="http://www.serif.com/" style="fill-rule:evenodd;clip-rule:evenodd;stroke-linejoin:round;stroke-miterlimit:2;">
    <path d="M15.06,27.498C14.562,27.408 14.018,27.362 13.43,27.272C11.481,27 9.941,26.547 8.808,26.003C6.815,25.097 5.954,24.01 5.728,23.647C5.41,23.104 5.139,21.835 5.003,20.884C4.867,19.887 5.184,18.482 5.184,18.482C5.546,18.346 5.954,18.256 6.362,18.165C6.951,18.029 7.585,17.893 8.265,17.803C11.527,20.476 15.468,23.828 15.468,23.828C15.468,23.828 14.517,25.55 15.06,27.498Z" style="fill:rgb(128,57,27);fill-rule:nonzero;"/>
    <path d="M37.397,28.269C37.261,28.541 36.808,28.813 36.173,29.039C34.95,29.537 33.002,30.036 31.326,30.308C30.42,30.444 29.287,30.444 28.335,30.308C26.297,30.036 26.07,29.9 23.85,29.175C22.582,28.767 21.041,28.405 18.912,28.042C17.779,27.861 16.511,27.635 15.016,27.453C14.517,27.363 13.974,27.317 13.385,27.227C11.482,26.955 9.987,26.502 8.809,25.958C8.763,25.958 8.763,25.913 8.763,25.913C6.77,25.007 5.909,23.92 5.683,23.557C5.365,23.013 5.094,21.745 4.958,20.793C4.867,19.887 5.184,18.483 5.184,18.483C5.547,18.347 5.954,18.256 6.362,18.166C6.951,18.03 7.585,17.894 8.265,17.803C15.423,16.807 25.934,18.709 31.96,20.069C34.452,20.612 36.173,21.065 36.581,21.201C36.626,21.201 36.672,21.247 36.672,21.247C36.672,21.247 37.85,22.878 37.986,24.282C38.031,25.098 37.986,27.182 37.397,28.269Z" style="fill:rgb(140,67,31);fill-rule:nonzero;"/>
    <path d="M37.939,23.963C38.075,24.869 37.985,27.18 37.396,28.267C37.26,28.539 36.807,28.811 36.172,29.037C34.949,29.536 33.001,30.034 31.325,30.306C30.736,27.859 31.37,26.5 31.37,26.5C31.098,23.238 31.37,21.199 31.914,20.022C34.406,20.565 36.127,21.018 36.535,21.154C36.58,21.154 36.626,21.199 36.626,21.199C36.626,21.199 37.667,22.151 37.939,23.963Z" style="fill:rgb(172,90,49);fill-opacity:0.58;fill-rule:nonzero;"/>
    <path d="M8.808,26.002C8.129,25.685 7.54,25.322 7.087,25.005C6.271,24.416 5.863,23.873 5.728,23.646C5.41,23.102 5.139,21.834 5.003,20.882C4.867,19.886 5.184,18.481 5.184,18.481C5.41,18.391 5.637,18.345 5.863,18.3C6.045,18.255 6.181,18.209 6.362,18.164C7.676,20.022 9.08,22.604 9.08,22.604C9.08,22.604 8.174,23.737 8.808,26.002Z" style="fill:rgb(128,57,27);fill-rule:nonzero;"/>
    <path d="M37.85,23.465C38.076,24.371 37.986,27.18 37.397,28.313C37.261,28.584 36.808,28.856 36.173,29.083C35.947,26.183 37.125,24.009 37.125,24.009C36.672,22.695 36.536,21.743 36.536,21.154C36.581,21.154 36.627,21.2 36.627,21.2C36.627,21.2 37.397,21.653 37.85,23.465Z" style="fill:rgb(128,57,27);fill-rule:nonzero;"/>
    <path d="M7.087,25.006C6.271,24.417 5.863,23.873 5.728,23.647C5.41,23.103 5.139,21.835 5.003,20.883C4.867,19.887 5.184,18.482 5.184,18.482C5.41,18.391 5.637,18.346 5.863,18.301C6.86,18.754 7.313,20.158 6.86,21.472C6.362,22.967 7.087,24.915 7.087,25.006Z" style="fill:rgb(110,53,27);fill-rule:nonzero;"/>
    <path d="M37.488,23.646C37.443,24.688 34.951,26.047 32.278,26.41C29.605,26.772 25.935,26.818 23.896,26.047C21.858,25.277 17.961,24.099 12.978,23.465C8.764,22.921 6.861,21.743 5.865,20.565C5.683,20.339 5.548,20.158 5.412,19.976L5.412,19.931C4.551,18.572 5.638,17.711 5.91,17.485C6.091,17.349 6.272,17.213 6.454,17.077C6.725,16.896 6.997,16.714 7.269,16.578C8.085,16.125 8.945,15.718 9.897,15.4C13.431,14.177 17.554,13.86 19.003,13.996C21.133,14.177 25.12,15.944 31.281,18.028C34.317,19.07 35.857,20.203 36.673,21.2C37.488,22.196 37.488,23.102 37.488,23.646Z" style="fill:rgb(184,85,41);fill-rule:nonzero;"/>
    <path d="M20.452,28.266C20.452,28.266 19.954,26.227 20.634,24.959L19.003,24.551C19.003,24.551 18.323,26.001 18.912,27.994L18.957,28.085L20.452,28.357L20.452,28.266Z" style="fill:rgb(128,57,27);fill-rule:nonzero;"/>
    <path d="M14.834,23.827C14.834,23.827 13.746,25.186 14.154,27.361L18.956,28.086C18.956,28.086 18.367,26.228 19.002,24.552C19.002,24.552 16.782,24.008 14.924,23.736L14.834,23.827Z" style="fill:rgb(172,90,49);fill-opacity:0.58;fill-rule:nonzero;"/>
    <path d="M36.671,21.2C36.671,21.2 36.626,24.869 31.144,24.96C25.662,25.051 19.636,22.649 15.967,22.196C12.297,21.743 8.627,21.2 7.993,19.478C7.449,17.983 8.718,16.397 9.941,15.446C13.429,14.177 17.552,13.86 19.002,13.996C21.131,14.177 25.118,15.944 31.28,18.028C34.315,19.07 35.856,20.158 36.671,21.2Z" style="fill:rgb(201,93,45);fill-rule:nonzero;"/>
    <path d="M13.159,15.491C13.159,15.491 10.214,15.898 8.583,16.759C6.952,17.62 6.499,18.617 7.043,19.296C7.587,19.976 10.079,21.516 11.664,21.652C13.25,21.788 15.923,21.562 16.784,20.882C17.645,20.202 19.729,18.254 20.182,17.982C20.59,17.756 23.398,18.073 23.398,17.348C23.398,16.623 21.677,15.128 20.001,14.947C18.324,14.72 14.02,15.355 13.159,15.491Z" style="fill:rgb(233,136,36);fill-opacity:0.31;fill-rule:nonzero;"/>
    <path d="M9.081,22.605C9.081,22.605 8.9,19.116 11.256,14.993L11.845,14.857C11.845,14.857 9.58,18.935 9.58,22.831L9.081,22.605Z" style="fill:rgb(111,41,19);fill-rule:nonzero;"/>
    <path d="M7.268,16.578C7.177,16.805 7.086,16.986 6.996,17.167C6.633,17.756 6.452,18.39 6.226,18.934C6.135,19.161 5.954,20.021 5.863,20.565C5.682,20.339 5.546,20.157 5.41,19.976C5.591,19.07 5.999,17.983 6.226,17.53C6.271,17.439 6.362,17.303 6.452,17.077C6.724,16.895 6.996,16.759 7.268,16.578Z" style="fill:rgb(111,41,19);fill-rule:nonzero;"/>
    <path d="M14.742,23.646C14.742,23.646 14.969,18.028 16.736,14.087L16.781,14.041L17.415,13.996C17.415,13.996 15.512,18.934 15.467,23.827L14.742,23.737L14.742,23.646Z" style="fill:rgb(111,41,19);fill-rule:nonzero;"/>
    <path d="M30.012,18.434C29.423,18.162 27.339,17.845 25.663,17.936C23.986,18.026 21.585,17.8 20.634,19.25C19.682,20.745 18.459,22.602 20.724,23.599C22.99,24.596 27.792,25.185 30.012,25.139C32.232,25.094 35.131,24.958 35.766,24.143C36.4,23.327 37.714,22.059 35.992,21.107C34.271,20.246 33.818,20.292 32.594,19.839C31.326,19.34 30.012,18.434 30.012,18.434Z" style="fill:rgb(233,136,36);fill-opacity:0.31;fill-rule:nonzero;"/>
    <path d="M20.633,25.005C20.633,25.005 20.905,18.934 22.037,14.721L22.626,14.902C22.626,14.902 21.72,20.112 21.448,25.186L20.633,25.005Z" style="fill:rgb(111,41,19);fill-rule:nonzero;"/>
    <path d="M27.927,16.76L27.52,26.727L28.199,26.682C28.199,26.682 28.516,17.757 28.652,17.122L27.927,16.76Z" style="fill:rgb(111,41,19);fill-rule:nonzero;"/>
    <path d="M33.273,18.799L33.409,26.229L34.134,26.002L33.862,19.071L33.273,18.799Z" style="fill:rgb(111,41,19);fill-rule:nonzero;"/>
    <path d="M5.184,18.481C5.184,18.481 13.973,15.4 22.581,14.902L22.173,14.721C22.173,14.721 12.251,15.264 5.274,18.3L5.184,18.481Z" style="fill:rgb(111,41,19);fill-rule:nonzero;"/>
    <path d="M6.859,21.473C6.859,21.473 19.59,17.486 27.971,16.761L27.563,16.625C27.563,16.625 18.094,17.169 6.723,21.337L6.859,21.473Z" style="fill:rgb(111,41,19);fill-rule:nonzero;"/>
    <path d="M14.742,23.691C14.742,23.691 25.344,19.613 33.272,18.798L32.864,18.617C32.864,18.617 26.612,18.39 14.063,23.646L14.742,23.691Z" style="fill:rgb(111,41,19);fill-rule:nonzero;"/>
    <path d="M24.664,26.273C24.664,26.273 29.738,22.83 36.897,21.516L37.078,21.742C37.078,21.742 30.599,23.373 25.026,26.454L24.664,26.273Z" style="fill:rgb(111,41,19);fill-rule:nonzero;"/>
    <path d="M18.959,28.086C17.826,27.905 16.557,27.678 15.062,27.497C14.564,27.406 14.02,27.361 13.431,27.27C11.528,26.999 10.033,26.546 8.855,26.002C9.173,26.138 10.668,26.727 11.483,26.591C12.389,26.41 12.661,26.093 13.25,26.41C13.839,26.727 13.884,26.999 14.519,26.863C15.153,26.727 14.7,26.41 15.47,26.682C16.24,26.999 18.959,28.086 18.959,28.086Z" style="fill:rgb(175,63,37);fill-opacity:0.49;fill-rule:nonzero;"/>
    <path d="M10.667,24.371C10.35,24.552 10.486,24.96 10.577,25.187C10.622,25.413 10.894,25.277 11.075,25.413C11.256,25.549 11.936,25.821 12.072,25.594C12.163,25.368 11.8,25.005 11.8,24.779C11.8,24.552 11.166,24.145 10.667,24.371Z" style="fill:rgb(121,48,24);fill-rule:nonzero;"/>
    <path d="M12.434,25.095C12.343,25.231 12.298,25.412 12.524,25.503C12.751,25.639 13.159,25.865 13.159,25.594C13.159,25.322 13.023,25.14 12.841,25.05C12.615,25.005 12.434,25.095 12.434,25.095Z" style="fill:rgb(121,48,24);fill-rule:nonzero;"/>
    <path d="M7.086,23.102C7.04,23.102 6.859,23.464 6.995,23.555C7.131,23.691 7.176,24.008 7.357,23.691C7.539,23.464 7.765,23.102 7.086,23.102Z" style="fill:rgb(121,48,24);fill-rule:nonzero;"/>
    <path d="M16.692,25.051C16.692,25.051 16.601,25.323 16.918,25.504C17.235,25.73 17.598,25.912 17.643,25.594C17.688,25.277 17.507,25.006 17.235,24.96C17.009,24.87 16.782,25.006 16.692,25.051Z" style="fill:rgb(121,48,24);fill-rule:nonzero;"/>
    <path d="M15.695,26.816C15.695,26.952 15.831,27.088 16.058,27.088C16.284,27.043 16.42,26.997 16.284,26.816C16.194,26.635 15.741,26.544 15.695,26.816Z" style="fill:rgb(121,48,24);fill-rule:nonzero;"/>
    <path d="M21.494,27.18C21.358,27.406 21.313,27.723 21.63,27.723C21.947,27.723 22.083,27.905 22.083,27.542C22.083,27.18 21.494,27.18 21.494,27.18Z" style="fill:rgb(121,48,24);fill-rule:nonzero;"/>
    <path d="M24.71,27.36C24.665,27.496 24.846,27.768 25.389,27.859C25.933,27.949 26.386,27.632 26.024,27.36C25.616,27.088 24.891,26.681 24.71,27.36Z" style="fill:rgb(121,48,24);fill-rule:nonzero;"/>
    <path d="M27.703,29.401C27.431,29.627 29.017,30.171 28.972,29.582C28.881,29.038 28.383,28.857 27.703,29.401Z" style="fill:rgb(121,48,24);fill-rule:nonzero;"/>
    <path d="M31.055,27.544C31.01,27.725 31.327,28.359 31.644,27.997C31.916,27.68 31.825,27.091 31.554,27.181C31.236,27.227 31.146,27.227 31.055,27.544Z" style="fill:rgb(121,48,24);fill-rule:nonzero;"/>
    <path d="M35.811,27.859C35.765,28.04 35.675,28.403 36.173,28.312C36.717,28.176 37.306,27.768 36.853,27.587C36.399,27.315 35.992,27.361 35.811,27.859Z" style="fill:rgb(121,48,24);fill-rule:nonzero;"/>
    <path d="M8.311,24.642C8.175,24.688 8.13,25.005 8.311,25.141C8.492,25.277 8.809,25.277 8.809,25.096C8.764,24.824 8.673,24.461 8.311,24.642Z" style="fill:rgb(96,43,23);fill-rule:nonzero;"/>
    <path d="M6.361,21.7C6.18,21.745 6.316,22.017 6.361,22.108C6.406,22.153 6.633,22.153 6.633,22.017C6.633,21.881 6.633,21.609 6.361,21.7Z" style="fill:rgb(96,43,23);fill-rule:nonzero;"/>
    <path d="M9.442,23.149C9.351,23.24 9.396,23.421 9.532,23.421C9.714,23.421 9.849,23.33 9.759,23.194C9.623,23.104 9.578,23.058 9.442,23.149Z" style="fill:rgb(96,43,23);fill-rule:nonzero;"/>
    <path d="M14.109,24.189C14.019,24.234 13.974,24.552 14.2,24.642C14.381,24.733 14.653,24.778 14.698,24.552C14.698,24.37 14.653,23.872 14.109,24.189Z" style="fill:rgb(96,43,23);fill-rule:nonzero;"/>
    <path d="M13.836,26.681C13.655,26.817 13.701,27.135 14.018,27.089C14.335,27.044 14.516,26.999 14.335,26.817C14.154,26.636 13.927,26.636 13.836,26.681Z" style="fill:rgb(96,43,23);fill-rule:nonzero;"/>
    <path d="M20,25.867C20,26.003 20.136,26.275 20.317,26.093C20.498,25.912 20.408,25.686 20.272,25.686C20.136,25.686 20,25.867 20,25.867Z" style="fill:rgb(96,43,23);fill-rule:nonzero;"/>
    <path d="M25.208,28.675C25.163,28.811 25.435,29.083 25.571,28.947C25.706,28.811 25.48,28.63 25.389,28.539C25.344,28.448 25.208,28.675 25.208,28.675Z" style="fill:rgb(96,43,23);fill-rule:nonzero;"/>
    <path d="M29.605,27.769C29.424,27.905 29.333,28.222 29.605,28.222C29.877,28.222 30.239,27.905 30.104,27.769C29.922,27.634 29.605,27.769 29.605,27.769Z" style="fill:rgb(96,43,23);fill-rule:nonzero;"/>
    <path d="M32.549,29.4C32.504,29.49 32.73,29.853 32.957,29.581C33.138,29.354 32.911,29.037 32.775,29.083C32.594,29.083 32.549,29.4 32.549,29.4Z" style="fill:rgb(96,43,23);fill-rule:nonzero;"/>
    <path d="M22.945,28.178C22.9,28.269 22.99,28.495 23.172,28.45C23.353,28.404 23.625,28.314 23.444,28.178C23.262,27.997 23.126,27.816 22.945,28.178Z" style="fill:rgb(233,136,80);fill-rule:nonzero;"/>
    <path d="M15.017,25.368C14.835,25.504 14.79,25.821 15.017,26.003C15.243,26.184 15.606,26.41 15.696,26.229C15.832,26.048 15.968,25.867 15.787,25.595C15.651,25.323 15.289,25.142 15.017,25.368Z" style="fill:rgb(233,136,80);fill-rule:nonzero;"/>
    <path d="M33.499,27.225C33.454,27.27 33.408,27.904 33.771,27.859C34.133,27.814 34.722,27.315 34.315,27.179C33.907,27.043 33.725,26.862 33.499,27.225Z" style="fill:rgb(233,136,80);fill-rule:nonzero;"/>
    <path d="M28.199,26.682C28.199,26.682 28.743,27.317 28.743,27.543C28.743,27.77 28.471,28.132 29.196,28.54C29.921,28.902 30.374,28.449 30.6,28.132C30.827,27.815 30.827,27.136 30.872,27C30.918,26.864 31.054,26.592 31.054,26.592C31.054,26.592 29.785,26.773 28.199,26.682Z" style="fill:rgb(250,193,171);fill-opacity:0.21;fill-rule:nonzero;"/>
    <path d="M8.628,22.424C8.628,22.424 8.356,23.375 8.764,23.692C9.126,24.01 9.036,24.599 9.534,24.553C10.032,24.553 11.709,25.233 12.071,24.644C12.388,24.055 12.977,23.421 12.977,23.421C12.977,23.421 10.938,23.421 8.628,22.424Z" style="fill:rgb(250,193,171);fill-opacity:0.21;fill-rule:nonzero;"/>
</svg>
